{
.appVersion = "3436";
.formatVersion = 3;
axes = (
{
name = Italic;
tag = ital;
}
);
customParameters = (
{
name = vendorID;
value = XXXX;
},
{
name = panose;
value = (
0,
0,
0,
0,
0,
0,
0,
0,
0,
0
);
},
{
name = unicodeRanges;
value = (
0,
1,
2,
3,
4,
5,
29,
31,
33,
60
);
},
{
name = fsType;
value = (
);
},
{
name = glyphOrder;
value = (
.notdef,
space,
exclam,
quotedbl,
numbersign,
dollar,
ampersand,
quotesingle,
parenleft,
parenright,
asterisk,
plus,
comma,
hyphen,
period,
slash,
zero,
one,
two,
three,
four,
five,
six,
seven,
eight,
nine,
colon,
semicolon,
equal,
question,
arobase,
A_cap,
B_cap,
C_cap,
D_cap,
E_cap,
F_cap,
G_cap,
H_cap,
I_cap,
J_cap,
K_cap,
L_cap,
M_cap,
N_cap,
O_cap,
P_cap,
Q_cap,
R_cap,
S_cap,
T_cap,
U_cap,
V_cap,
W_cap,
X_cap,
Y_cap,
Z_cap,
bracketleft,
backslash,
bracketright,
asciicircum,
underscore,
grave_glyph,
a,
b,
c,
d,
e,
f,
g,
h,
i,
j,
k,
l,
m,
n,
o,
p,
q,
r,
s,
t,
u,
v,
w,
x,
y,
z,
bar,
asciitilde,
exclamdown,
cent,
acute_glyph,
questiondown,
a_cap_grave,
a_cap_acute,
a_cap_circumflex,
a_cap_tilde,
a_cap_dieresis,
a_cap_ring,
c_cap_cedilla,
e_cap_grave,
e_cap_acute,
e_cap_circumflex,
e_cap_dieresis,
i_cap_grave,
i_cap_acute,
i_cap_circumflex,
i_cap_dieresis,
n_cap_tilde,
o_cap_grave,
o_cap_acute,
o_cap_circumflex,
o_cap_tilde,
o_cap_dieresis,
O_cap_slash,
u_cap_grave,
u_cap_acute,
u_cap_circumflex,
u_cap_dieresis,
y_cap_acute,
a_grave,
a_acute,
a_circumflex,
a_tilde,
a_dieresis,
a_ring,
c_cedilla,
e_grave,
e_acute,
e_circumflex,
e_dieresis,
i_grave,
i_acute,
i_circumflex,
i_dieresis,
n_tilde,
o_grave,
o_acute,
o_circumflex,
o_tilde,
o_dieresis,
o_slash,
u_grave,
u_acute,
u_circumflex,
u_dieresis,
y_dieresis,
a_cap_macron,
a_macron,
a_cap_breve,
a_breve,
c_cap_acute,
c_cap_circumflex,
c_cap_dot_accent,
c_dot_accent,
c_cap_caron,
c_caron,
d_cap_caron,
d_caron,
e_cap_macron,
e_macron,
e_cap_breve,
e_breve,
e_cap_dot_accent,
e_dot_accent,
e_cap_caron,
e_caron,
g_cap_circumflex,
g_cap_breve,
g_breve,
g_cap_dot_accent,
g_dot_accent,

glyphs = (
{
glyphname = space;
lastChange = "2026-03-04 14:02:54 +0000";
layers = (
{
layerId = m01;
shapes = (
{
closed = 1;
nodes = (
(0,0,l)
);
}
);
width = 238;
},
{
layerId = "138274BD-2AF4-44A3-9B34-6F786694E642";
shapes = (
{
closed = 1;
nodes = (
(0,0,l)
);
}
);
width = 238;
},
{
layerId = "0E723D17-59BC-4C5E-BFCA-41CEB45896D2";
shapes = (
{
closed = 1;
nodes = (
(0,0,l)
);
}
);
width = 238;
},
{
layerId = "14257FDA-2614-4218-93F6-F0A118F23CCC";
shapes = (
{
closed = 1;
nodes = (
(0,0,l)
);
}
);
width = 238;
},
{
layerId = "BBA8B076-D1F2-4268-BE72-89D7CC5EB943";
shapes = (
{
closed = 1;
nodes = (
(0,0,l)
);
}
);
width = 238;
}
);
note = space;
unicode = 32;
},
{
glyphname = exclam;
lastChange = "2026-03-04 14:02:54 +0000";
layers = (
{
layerId = m01;
shapes = (
{
closed = 1;
nodes = (
(206,755,o),
(194,721,o),
(188,671,cs),
(133,210,l),
(142,210,l),
(249,671,ls),
(261,721,o),
(261,755,o),
(234,755,cs,{
name = "💚";
})
);
},
{
closed = 1;
nodes = (
(121,-5,o),
(138,9,o),
(141,30,cs),
(145,52,o),
(133,66,o),
(112,66,cs),
(91,66,o),
(74,52,o),
(70,30,cs),
(67,9,o),
(78,-5,o),
(100,-5,cs)
);
}
);
width = 201;
},
{
layerId = "138274BD-2AF4-44A3-9B34-6F786694E642";
shapes = (
{
closed = 1;
nodes = (
(206,755,o),
(187,709,o),
(183,641,cs),
(159,210,l),
(178,210,l),
(305,641,ls),
(325,709,o),
(323,755,o),
(264,755,c),
(264,755,l)
);
},
{
closed = 1;
nodes = (
(173,-5,o),
(206,23,o),
(214,66,cs),
(221,108,o),
(198,136,o),
(155,136,cs),
(113,136,o),
(80,108,o),
(73,66,cs),
(65,23,o),
(88,-5,o),
(130,-5,cs)
);
}
);
width = 262;
},
{
layerId = "0E723D17-59BC-4C5E-BFCA-41CEB45896D2";
shapes = (
{
closed = 1;
nodes = (
(156,210,l),
(272,659,ls),
(287,717,o),
(285,755,o),
(246,755,cs),
(206,755,o),
(192,717,o),
(186,659,cs),
(143,210,l)
);
},
{
closed = 1;
nodes = (
(141,-5,o),
(165,15,o),
(170,44,cs),
(175,74,o),
(159,94,o),
(129,94,cs),
(99,94,o),
(76,74,o),
(71,44,cs),
(66,15,o),
(82,-5,o),
(112,-5,cs)
);
}
);
width = 225;
},
{
layerId = "14257FDA-2614-4218-93F6-F0A118F23CCC";
shapes = (
{
closed = 1;
nodes = (
(206,755,o),
(190,713,o),
(185,649,cs),
(151,210,l),
(168,210,l),
(290,649,ls),
(308,713,o),
(305,755,o),
(256,755,c),
(256,755,l)
);
},
{
closed = 1;
nodes = (
(158,-5,o),
(186,19,o),
(193,56,cs),
(199,92,o),
(179,116,o),
(143,116,cs),
(107,116,o),
(78,92,o),
(72,56,cs),
(65,19,o),
(85,-5,o),
(122,-5,cs)
);
}
);
width = 245;
},
{
layerId = "BBA8B076-D1F2-4268-BE72-89D7CC5EB943";
shapes = (
{
closed = 1;
nodes = (
(205,755,o),
(185,706,o),
(182,632,cs),
(167,210,l),
(188,210,l),
(322,632,ls),
(346,706,o),
(342,755,o),
(273,755,c),
(273,755,l)
);
},
{
closed = 1;
nodes = (
(187,-5,o),
(225,27,o),
(234,75,cs),
(242,123,o),
(215,155,o),
(168,155,cs),
(119,155,o),
(82,123,o),
(74,75,cs),
(65,27,o),
(91,-5,o),
(139,-5,cs)
);
}
);
width = 280;
}
);
note = exclam;
unicode = 33;
},
{
glyphname = quotedbl;
lastChange = "2026-03-04 14:02:54 +0000";
layers = (
{
layerId = m01;
shapes = (
{
closed = 1;
nodes = (
(208,755,o),
(196,737,o),
(194,709,cs),
(185,549,l),
(192,549,l),
(240,709,ls),
(248,737,o),
(243,755,o),
(227,755,cs),
(224,755,ls)
);
},
{
closed = 1;
nodes = (
(318,755,o),
(306,737,o),
(304,709,cs),
(295,549,l),
(302,549,l),
(350,709,ls),
(358,737,o),
(353,755,o),
(337,755,cs),
(334,755,ls)
);
}
);
width = 294;
},
{
layerId = "138274BD-2AF4-44A3-9B34-6F786694E642";
shapes = (
{
closed = 1;
nodes = (
(210,755,o),
(186,718,o),
(190,663,cs),
(201,503,l),
(215,503,l),
(282,663,ls),
(305,718,o),
(294,755,o),
(255,755,cs),
(249,755,ls)
);
},
{
closed = 1;
nodes = (
(370,755,o),
(346,718,o),
(350,663,cs),
(361,503,l),
(375,503,l),
(442,663,ls),
(465,718,o),
(454,755,o),
(415,755,cs),
(409,755,ls)
);
}
);
width = 398;
},
{
layerId = "0E723D17-59BC-4C5E-BFCA-41CEB45896D2";
shapes = (
{
closed = 1;
nodes = (
(331,531,l),
(387,691,ls),
(400,729,o),
(393,755,o),
(368,755,cs),
(364,755,ls),
(339,755,o),
(323,729,o),
(323,691,cs),
(322,531,l)
);
},
{
closed = 1;
nodes = (
(201,531,l),
(257,691,ls),
(270,729,o),
(263,755,o),
(238,755,cs),
(234,755,ls),
(209,755,o),
(193,729,o),
(193,691,cs),
(192,531,l)
);
}
);
width = 335;
},
{
layerId = "14257FDA-2614-4218-93F6-F0A118F23CCC";
shapes = (
{
closed = 1;
nodes = (
(210,755,o),
(190,723,o),
(191,676,cs),
(196,516,l),
(209,516,l),
(270,676,ls),
(288,723,o),
(279,755,o),
(247,755,cs),
(242,755,ls)
);
},
{
closed = 1;
nodes = (
(356,755,o),
(336,723,o),
(337,676,cs),
(342,516,l),
(354,516,l),
(416,676,ls),
(434,723,o),
(425,755,o),
(393,755,cs),
(388,755,ls)
);
}
);
width = 368;
},
{
layerId = "BBA8B076-D1F2-4268-BE72-89D7CC5EB943";
shapes = (
{
closed = 1;
nodes = (
(210,755,o),
(183,713,o),
(189,649,cs),
(205,489,l),
(222,489,l),
(295,649,ls),
(324,713,o),
(311,755,o),
(264,755,cs),
(257,755,ls)
);
},
{
closed = 1;
nodes = (
(385,755,o),
(358,713,o),
(364,649,cs),
(380,489,l),
(397,489,l),
(470,649,ls),
(499,713,o),
(486,755,o),
(439,755,cs),
(432,755,ls)
);
}
);
width = 429;
}
);
note = quotedbl;
unicode = 34;
},
{
glyphname = numbersign;
lastChange = "2026-03-04 14:02:54 +0000";
layers = (
{
layerId = m01;
shapes = (
{
closed = 1;
nodes = (
(484,181,l),
(496,219,l),
(63,219,l),
(51,181,l)
);
},
{
closed = 1;
nodes = (
(575,441,l),
(587,479,l),
(148,479,l),
(136,441,l)
);
},
{
closed = 1;
nodes = (
(125,0,l),
(144,0,l),
(361,681,l),
(341,681,l)
);
},
{
closed = 1;
nodes = (
(285,0,l),
(304,0,l),
(521,681,l),
(502,681,l)
);
}
);
width = 522;
},
{
layerId = "138274BD-2AF4-44A3-9B34-6F786694E642";
shapes = (
{
closed = 1;
nodes = (
(488,161,l),
(512,239,l),
(69,239,l),
(45,161,l)
);
},
{
closed = 1;
nodes = (
(581,421,l),
(605,499,l),
(157,499,l),
(133,421,l)
);
},
{
closed = 1;
nodes = (
(115,0,l),
(154,0,l),
(370,661,l),
(331,661,l)
);
},
{
closed = 1;
nodes = (
(282,0,l),
(321,0,l),
(537,661,l),
(499,661,l)
);
}
);
width = 537;
},
{
layerId = "0E723D17-59BC-4C5E-BFCA-41CEB45896D2";
shapes = (
{
closed = 1;
nodes = (
(148,0,l),
(204,173,l),
(340,173,l),
(284,0,l),
(311,0,l),
(367,173,l),
(485,173,l),
(502,227,l),
(384,227,l),
(451,433,l),
(577,433,l),
(594,487,l),
(468,487,l),
(528,673,l),
(501,673,l),
(441,487,l),
(304,487,l),
(364,673,l),
(337,673,l),
(277,487,l),
(152,487,l),
(135,433,l),
(260,433,l),
(194,227,l),
(66,227,l),
(49,173,l),
(177,173,l),
(121,0,l)
);
},
{
closed = 1;
nodes = (
(287,433,l),
(424,433,l),
(357,227,l),
(221,227,l)
);
}
);
width = 528;
},
{
layerId = "14257FDA-2614-4218-93F6-F0A118F23CCC";
shapes = (
{
closed = 1;
nodes = (
(487,167,l),
(508,233,l),
(68,233,l),
(47,167,l)
);
},
{
closed = 1;
nodes = (
(579,427,l),
(600,493,l),
(155,493,l),
(134,427,l)
);
},
{
closed = 1;
nodes = (
(118,0,l),
(151,0,l),
(367,667,l),
(334,667,l)
);
},
{
closed = 1;
nodes = (
(283,0,l),
(316,0,l),
(533,667,l),
(499,667,l)
);
}
);
width = 533;
},
{
layerId = "BBA8B076-D1F2-4268-BE72-89D7CC5EB943";
shapes = (
{
closed = 1;
nodes = (
(489,156,l),
(517,244,l),
(71,244,l),
(43,156,l)
);
},
{
closed = 1;
nodes = (
(583,416,l),
(611,504,l),
(160,504,l),
(132,416,l)
);
},
{
closed = 1;
nodes = (
(112,0,l),
(157,0,l),
(373,656,l),
(328,656,l)
);
},
{
closed = 1;
nodes = (
(282,0,l),
(326,0,l),
(542,656,l),
(498,656,l)
);
}
);
width = 542;
}
);
note = numbersign;
unicode = 35;
},
{
glyphname = dollar;
lastChange = "2026-03-04 14:02:54 +0000";
layers = (
{
layerId = m01;
shapes = (
{
closed = 1;
nodes = (
(546,713,o),
(470,760,o),
(377,760,cs),
(275,760,o),
(194,687,o),
(174,576,cs),
(160,495,o),
(215,408,o),
(339,345,cs),
(443,292,o),
(490,225,o),
(479,165,cs),
(462,71,o),
(390,9,o),
(298,9,cs),
(203,9,o),
(123,68,o),
(97,156,c),
(79,148,l),
(106,53,o),
(192,-10,o),
(294,-10,cs),
(414,-10,o),
(508,67,o),
(528,182,cs),
(543,265,o),
(496,349,o),
(385,405,cs),
(267,465,o),
(213,537,o),
(224,599,cs),
(239,686,o),
(299,745,o),
(374,745,cs),
(459,745,o),
(529,701,o),
(548,634,c),
(567,642,l)
);
},
{
closed = 1;
nodes = (
(135,84,o),
(128,153,o),
(122,209,cs),
(121,220,o),
(120,227,o),
(120,226,c),
(120,226,o),
(115,226,o),
(107,226,cs),
(98,226,o),
(93,226,o),
(93,226,c),
(82,167,o),
(75,127,o),
(75,127,c),
(70,98,o),
(63,58,o),
(58,28,c),
(58,28,o),
(63,28,o),
(72,28,cs),
(80,28,o),
(85,28,o),
(85,28,cs,{
name = "💚";
}),
(85,28,o),
(89,40,o),
(96,58,cs),
(101,71,o),
(108,86,o),
(110,83,c),
(135,84,ls,{
name = "💚";
})
);
},
{
closed = 1;
nodes = (
(500,704,l),
(507,699,o),
(518,633,o),
(523,581,cs,{
name = "💚";
}),
(525,571,o),
(525,564,o),
(525,564,cs,{
name = "💚";
}),
(525,564,o),
(531,564,o),
(539,564,cs),
(547,564,o),
(553,564,o),
(553,564,c),
(557,590,o),
(563,624,o),
(568,650,c),
(568,650,o),
(574,685,o),
(583,737,c),
(583,737,o),
(578,737,o),
(570,737,cs),
(561,737,o),
(556,737,o),
(556,737,c),
(558,747,o),
(554,738,o),
(547,713,cs),
(544,704,o),
(540,692,o),
(540,692,c)
);
},
{
closed = 1;
nodes = (
(207,-75,l),
(225,-75,l),
(384,825,l),
(366,825,l)
);
},
{
closed = 1;
nodes = (
(287,-75,l),
(305,-75,l),
(464,825,l),
(446,825,l)
);
}
);
width = 536;
},
{
layerId = "138274BD-2AF4-44A3-9B34-6F786694E642";
shapes = (
{
closed = 1;
nodes = (
(558,714,o),
(483,760,o),
(390,760,cs),
(273,760,o),
(181,679,o),
(159,557,cs),
(141,452,o),
(188,359,o),
(302,314,cs),
(403,275,o),
(449,220,o),
(440,167,cs),
(425,83,o),
(364,27,o),
(287,27,cs),
(205,27,o),
(134,81,o),
(111,162,c),
(74,146,l),
(101,52,o),
(184,-10,o),
(280,-10,cs),
(413,-10,o),
(517,74,o),
(539,201,cs),
(557,301,o),
(509,391,o),
(394,436,cs),
(292,475,o),
(247,538,o),
(258,602,cs),
(272,679,o),
(323,731,o),
(385,731,cs),
(461,731,o),
(524,690,o),
(542,628,c),
(579,644,l)
);
},
{
closed = 1;
nodes = (
(138,103,o),
(124,168,o),
(119,215,cs),
(118,225,o),
(117,232,o),
(117,232,c),
(117,232,o),
(111,232,o),
(103,232,cs),
(95,232,o),
(90,232,o),
(89,232,c),
(79,170,o),
(72,129,o),
(71,129,c),
(66,98,o),
(59,57,o),
(53,26,c),
(53,26,o),
(59,26,o),
(67,26,cs),
(75,26,o),
(81,26,o),
(81,26,c),
(81,26,o),
(85,38,o),
(91,56,cs),
(96,69,o),
(103,84,o),
(106,80,c),
(150,89,l)
);
},
{
closed = 1;
nodes = (
(492,698,l),
(510,684,o),
(529,620,o),
(534,575,cs),
(535,565,o),
(536,558,o),
(536,558,c),
(536,558,o),
(541,558,o),
(550,558,cs),
(558,558,o),
(563,558,o),
(563,558,c),
(568,585,o),
(575,621,o),
(579,648,c),
(579,648,o),
(586,684,o),
(595,739,c),
(595,739,o),
(590,739,o),
(582,739,cs),
(573,739,o),
(567,739,o),
(568,739,c),
(570,751,o),
(566,742,o),
(559,715,cs),
(556,705,o),
(552,693,o),
(552,693,c)
);
},
{
closed = 1;
nodes = (
(198,-75,l),
(233,-75,l),
(392,825,l),
(357,825,l)
);
},
{
closed = 1;
nodes = (
(278,-75,l),
(313,-75,l),
(472,825,l),
(437,825,l)
);
}
);
width = 543;
},
{
layerId = "0E723D17-59BC-4C5E-BFCA-41CEB45896D2";
shapes = (
{
closed = 1;
nodes = (
(228,-75,l),
(240,-5,l),
(255,-8,o),
(272,-10,o),
(289,-10,cs),
(291,-10,o),
(294,-10,o),
(295,-10,c),
(284,-75,l),
(308,-75,l),
(320,-8,l),
(430,4,o),
(513,81,o),
(533,190,cs),
(549,279,o),
(503,364,o),
(394,415,c),
(450,728,l),
(467,722,o),
(484,713,o),
(498,702,c),
(497,702,l),
(509,694,o),
(522,628,o),
(527,579,cs),
(528,568,o),
(529,561,o),
(529,561,c),
(529,561,o,{
name = "💚";
}),
(535,561,o),
(543,561,cs),
(551,561,o),
(557,561,o),
(557,561,c),
(562,588,o),
(568,623,o),
(573,650,c),
(573,650,o),
(579,685,o),
(588,738,c),
(588,738,o),
(583,738,o),
(574,738,cs),
(566,738,o),
(560,738,o),
(561,738,c),
(545,692,l),
(523,719,o),
(491,739,o),
(454,750,c),
(467,825,l),
(442,825,l),
(430,756,l),
(414,759,o),
(399,760,o),
(382,760,cs),
(380,760,o),
(377,760,o),
(376,760,c),
(387,825,l),
(362,825,l),
(350,758,l),
(257,744,o),
(187,672,o),
(169,569,cs),
(154,488,o),
(192,411,o),
(280,357,c),
(222,29,l),
(190,41,o),
(162,61,o),
(141,86,c),
(141,86,l),
(137,91,o),
(127,159,o),
(121,211,cs),
(120,222,o),
(119,229,o),
(119,229,c),
(119,229,o,{
name = "💚";
}),
(114,229,o),
(105,229,cs),
(97,229,o),
(91,229,o),
(91,229,c),
(85,192,o),
(80,165,o),
(77,147,c),
(77,147,l),
(77,147,o),
(77,146,o),
(77,146,c),
(75,134,o),
(74,128,o),
(74,128,c),
(68,98,o),
(61,58,o),
(56,27,c),
(56,27,o),
(61,27,o),
(70,27,cs),
(78,27,o),
(84,27,o),
(84,27,c),
(84,27,o,{
name = "💚";
}),
(88,39,o),
(94,57,cs),
(99,71,o),
(106,85,o),
(108,82,c),
(108,82,l),
(134,45,o),
(172,16,o),
(217,1,c),
(204,-75,l)
);
},
{
closed = 1;
nodes = (
(277,16,o),
(261,18,o),
(245,22,c),
(302,344,l),
(310,340,o),
(316,337,o),
(325,333,cs),
(336,328,o),
(344,324,o),
(353,319,c),
(300,16,l),
(298,16,o),
(295,16,o),
(293,16,cs)
);
},
{
closed = 1;
nodes = (
(375,306,l),
(442,264,o),
(472,213,o),
(463,166,cs),
(449,87,o),
(396,32,o),
(325,19,c)
);
},
{
closed = 1;
nodes = (
(252,511,o),
(231,557,o),
(238,600,cs),
(251,672,o),
(293,722,o),
(346,736,c),
(300,471,l)
);
},
{
closed = 1;
nodes = (
(354,434,o),
(336,445,o),
(322,455,c),
(372,740,l),
(373,740,o),
(376,740,o),
(378,740,cs),
(395,740,o),
(412,738,o),
(426,735,c),
(372,425,l)
);
}
);
width = 539;
},
{
layerId = "14257FDA-2614-4218-93F6-F0A118F23CCC";
shapes = (
{
closed = 1;
nodes = (
(555,713,o),
(479,760,o),
(386,760,cs),
(273,760,o),
(184,681,o),
(164,563,cs),
(145,461,o),
(194,369,o),
(313,323,cs),
(415,283,o),
(461,224,o),
(451,167,cs),
(436,80,o),
(371,22,o),
(290,22,cs),
(204,22,o),
(131,77,o),
(107,160,c),
(76,147,l),
(103,53,o),
(186,-10,o),
(284,-10,cs),
(414,-10,o),
(515,72,o),
(536,196,cs),
(554,294,o),
(506,383,o),
(391,427,cs),
(284,469,o),
(237,534,o),
(249,601,cs),
(263,681,o),
(316,735,o),
(382,735,cs),
(461,735,o),
(526,693,o),
(544,630,c),
(575,643,l)
);
},
{
closed = 1;
nodes = (
(137,97,o),
(125,164,o),
(120,213,cs),
(119,224,o),
(118,231,o),
(118,231,c),
(118,231,o),
(112,231,o),
(104,231,cs),
(96,231,o),
(91,231,o),
(90,231,c),
(80,170,o),
(73,129,o),
(72,129,c),
(67,98,o),
(60,57,o),
(54,26,c),
(55,26,o),
(60,26,o),
(68,26,cs),
(76,26,o),
(82,26,o),
(82,26,c),
(82,26,o),
(86,38,o),
(92,57,cs),
(97,70,o),
(104,85,o),
(107,81,c),
(146,87,l)
);
},
{
closed = 1;
nodes = (
(494,700,l),
(510,689,o),
(526,624,o),
(531,577,cs),
(532,566,o),
(533,559,o),
(533,559,c),
(533,559,o),
(538,559,o),
(547,559,cs),
(555,559,o),
(561,559,o),
(560,559,c),
(565,586,o),
(572,622,o),
(576,649,c),
(576,649,o),
(583,685,o),
(592,739,c),
(592,739,o),
(587,739,o),
(578,739,cs),
(570,739,o),
(564,739,o),
(564,739,c),
(566,748,o),
(562,739,o),
(555,715,cs),
(552,705,o),
(548,693,o),
(549,693,cs)
);
},
{
closed = 1;
nodes = (
(201,-75,l),
(231,-75,l),
(390,825,l),
(359,825,l)
);
},
{
closed = 1;
nodes = (
(281,-75,l),
(311,-75,l),
(470,825,l),
(439,825,l)
);
}
);
width = 541;
},
{
layerId = "BBA8B076-D1F2-4268-BE72-89D7CC5EB943";
shapes = (
{
closed = 1;
nodes = (
(562,714,o),
(487,760,o),
(394,760,cs),
(273,760,o),
(177,677,o),
(155,551,cs),
(136,443,o),
(180,349,o),
(291,305,cs),
(391,267,o),
(437,215,o),
(428,168,cs),
(414,87,o),
(356,33,o),
(283,33,cs),
(205,33,o),
(138,85,o),
(115,164,c),
(73,145,l),
(100,52,o),
(181,-10,o),
(276,-10,cs),
(413,-10,o),
(519,77,o),
(542,207,cs),
(560,308,o),
(512,399,o),
(396,445,cs),
(301,482,o),
(258,542,o),
(269,603,cs),
(282,677,o),
(330,726,o),
(388,726,cs),
(462,726,o),
(523,686,o),
(540,626,c),
(582,645,l)
);
},
{
closed = 1;
nodes = (
(139,108,o),
(123,173,o),
(118,216,cs),
(117,227,o),
(116,234,o),
(116,234,c),
(116,234,o),
(111,234,o),
(102,234,cs),
(94,234,o),
(88,234,o),
(89,234,c),
(77,172,o),
(70,130,o),
(70,130,c),
(65,99,o),
(57,57,o),
(52,25,c),
(52,25,o),
(57,25,o),
(66,25,cs),
(74,25,o),
(79,25,o),
(79,25,c),
(79,25,o),
(84,37,o),
(90,55,cs),
(94,69,o),
(102,83,o),
(105,79,c),
(155,91,l)
);
},
{
closed = 1;
nodes = (
(489,696,l),
(512,680,o),
(533,617,o),
(537,574,cs),
(538,563,o),
(539,556,o),
(539,556,c),
(539,556,o),
(545,556,o),
(553,556,cs),
(561,556,o),
(567,556,o),
(567,556,c),
(572,584,o),
(578,620,o),
(583,648,c),
(583,648,o),
(590,685,o),
(599,740,c),
(599,740,o),
(594,740,o),
(585,740,cs),
(577,740,o),
(571,740,o),
(571,740,c),
(574,753,o),
(570,743,o),
(562,716,cs),
(559,706,o),
(556,694,o),
(556,694,c)
);
},
{
closed = 1;
nodes = (
(195,-75,l),
(236,-75,l),
(395,825,l),
(354,825,l)
);
},
{
closed = 1;
nodes = (
(275,-75,l),
(316,-75,l),
(475,825,l),
(434,825,l)
);
}
);
width = 545;
}
);
note = dollar;
unicode = 36;
},
{
glyphname = ampersand;
lastChange = "2026-03-04 14:02:54 +0000";
layers = (
{
layerId = m01;
shapes = (
{
closed = 1;
nodes = (
(800,500,l),
(650,222,o),
(442,36,o),
(280,36,cs),
(177,36,o),
(120,108,o),
(140,216,cs),
(158,321,o),
(235,410,o),
(333,438,c),
(324,441,l),
(199,404,o),
(103,308,o),
(84,201,cs),
(62,74,o),
(126,-10,o),
(243,-10,cs),
(419,-10,o),
(647,194,o),
(812,500,c)
);
},
{
closed = 1;
nodes = (
(398,466,l),
(494,493,o),
(565,552,o),
(576,613,cs),
(592,701,o),
(541,760,o),
(449,760,cs),
(352,760,o),
(276,697,o),
(259,603,cs),
(253,565,o),
(295,499,o),
(360,404,cs),
(567,99,ls),
(612,34,o),
(664,-10,o),
(698,-10,cs),
(765,-10,o),
(828,53,o),
(857,148,c),
(848,151,l),
(827,79,o),
(778,31,o),
(726,31,cs),
(699,31,o),
(655,69,o),
(616,125,cs),
(409,430,ls),
(344,525,o),
(301,591,o),
(308,630,cs),
(321,701,o),
(376,748,o),
(447,748,cs),
(514,748,o),
(549,695,o),
(535,616,cs),
(524,550,o),
(467,493,o),
(394,471,c)
);
}
);
width = 840;
},
{
layerId = "138274BD-2AF4-44A3-9B34-6F786694E642";
shapes = (
{
closed = 1;
nodes = (
(797,500,l),
(662,250,o),
(470,83,o),
(318,83,cs),
(220,83,o),
(166,141,o),
(181,228,cs),
(199,330,o),
(262,413,o),
(339,436,c),
(322,441,l),
(191,403,o),
(90,306,o),
(71,197,cs),
(49,73,o),
(118,-10,o),
(243,-10,cs),
(424,-10,o),
(655,194,o),
(821,500,c)
);
},
{
closed = 1;
nodes = (
(402,461,l),
(515,494,o),
(597,554,o),
(606,611,cs),
(622,700,o),
(559,760,o),
(449,760,cs),
(345,760,o),
(265,695,o),
(247,597,cs),
(237,539,o),
(276,478,o),
(336,391,cs),
(543,86,ls),
(582,28,o),
(644,-10,o),
(698,-10,cs),
(769,-10,o),
(835,52,o),
(863,146,c),
(846,151,l),
(832,104,o),
(795,72,o),
(754,72,cs),
(713,72,o),
(668,99,o),
(640,138,cs),
(433,443,ls),
(374,531,o),
(334,592,o),
(344,650,cs),
(354,701,o),
(394,736,o),
(445,736,cs),
(505,736,o),
(538,688,o),
(525,616,cs),
(513,550,o),
(460,493,o),
(392,473,c)
);
}
);
width = 847;
},
{
layerId = "0E723D17-59BC-4C5E-BFCA-41CEB45896D2";
shapes = (
{
closed = 1;
nodes = (
(332,-10,o),
(434,41,o),
(534,130,c),
(558,94,ls),
(600,31,o),
(656,-10,o),
(698,-10,cs),
(767,-10,o),
(831,53,o),
(859,147,c),
(847,151,l),
(829,89,o),
(785,47,o),
(737,47,cs),
(704,47,o),
(660,80,o),
(626,130,cs),
(589,184,l),
(670,268,o),
(748,375,o),
(816,500,c),
(799,500,l),
(734,379,o),
(656,276,o),
(578,201,c),
(418,435,ls),
(410,447,o),
(403,458,o),
(395,470,c),
(400,464,l),
(502,493,o),
(577,553,o),
(588,612,cs),
(604,701,o),
(548,760,o),
(449,760,cs),
(349,760,o),
(272,696,o),
(255,601,cs),
(248,561,o),
(277,510,o),
(323,441,c),
(196,404,o),
(98,307,o),
(79,200,cs),
(57,74,o),
(123,-10,o),
(243,-10,cs)
);
},
{
closed = 1;
nodes = (
(194,55,o),
(138,121,o),
(156,221,cs),
(173,321,o),
(241,405,o),
(327,434,c),
(335,422,o),
(342,412,o),
(351,399,cs),
(520,150,l),
(442,89,o),
(364,55,o),
(295,55,cs)
);
},
{
closed = 1;
nodes = (
(345,545,o),
(315,597,o),
(322,638,cs),
(334,701,o),
(383,744,o),
(446,744,cs),
(511,744,o),
(545,693,o),
(531,616,cs),
(520,550,o),
(464,492,o),
(393,472,c)
);
}
);
width = 843;
},
{
layerId = "14257FDA-2614-4218-93F6-F0A118F23CCC";
shapes = (
{
closed = 1;
nodes = (
(798,500,l),
(658,242,o),
(462,70,o),
(307,70,cs),
(208,70,o),
(153,132,o),
(169,224,cs),
(188,327,o),
(255,412,o),
(337,436,c),
(323,441,l),
(193,403,o),
(93,306,o),
(74,199,cs),
(52,73,o),
(120,-10,o),
(243,-10,cs),
(423,-10,o),
(653,194,o),
(818,500,c)
);
},
{
closed = 1;
nodes = (
(401,462,l),
(509,494,o),
(588,554,o),
(598,611,cs),
(613,701,o),
(554,760,o),
(449,760,cs),
(347,760,o),
(268,695,o),
(251,599,cs),
(241,546,o),
(282,484,o),
(343,394,cs),
(550,89,ls),
(590,30,o),
(650,-10,o),
(698,-10,cs),
(768,-10,o),
(833,53,o),
(861,146,c),
(847,151,l),
(830,96,o),
(790,60,o),
(746,60,cs),
(709,60,o),
(664,90,o),
(633,135,cs),
(426,440,ls),
(365,529,o),
(325,591,o),
(334,644,cs),
(345,702,o),
(389,740,o),
(445,740,cs),
(508,740,o),
(541,690,o),
(528,616,cs),
(516,550,o),
(462,493,o),
(393,473,c)
);
}
);
width = 845;
},
{
layerId = "BBA8B076-D1F2-4268-BE72-89D7CC5EB943";
shapes = (
{
closed = 1;
nodes = (
(796,500,l),
(665,258,o),
(478,97,o),
(329,97,cs),
(234,97,o),
(179,151,o),
(193,231,cs),
(212,333,o),
(271,415,o),
(341,435,c),
(322,442,l),
(188,403,o),
(86,305,o),
(66,196,cs),
(45,73,o),
(115,-10,o),
(243,-10,cs),
(426,-10,o),
(658,194,o),
(823,500,c)
);
},
{
closed = 1;
nodes = (
(403,460,l),
(521,494,o),
(606,554,o),
(615,610,cs),
(631,700,o),
(565,760,o),
(449,760,cs),
(343,760,o),
(261,694,o),
(244,595,cs),
(233,532,o),
(271,472,o),
(329,387,cs),
(536,82,ls),
(573,27,o),
(638,-10,o),
(698,-10,cs),
(770,-10,o),
(837,52,o),
(865,145,c),
(846,152,l),
(834,111,o),
(801,84,o),
(763,84,cs),
(717,84,o),
(671,107,o),
(648,142,cs),
(440,447,ls),
(383,533,o),
(344,593,o),
(355,655,cs),
(364,702,o),
(399,733,o),
(444,733,cs),
(503,733,o),
(534,686,o),
(522,617,cs),
(510,550,o),
(458,492,o),
(392,473,c)
);
}
);
width = 849;
}
);
note = ampersand;
unicode = 38;
},
{
glyphname = quotesingle;
lastChange = "2026-03-04 14:02:54 +0000";
layers = (
{
layerId = m01;
shapes = (
{
closed = 1;
nodes = (
(208,755,o),
(196,737,o),
(194,709,cs),
(185,549,l),
(192,549,l),
(240,709,ls),
(248,737,o),
(243,755,o),
(227,755,cs),
(224,755,ls)
);
}
);
width = 184;
},
{
layerId = "138274BD-2AF4-44A3-9B34-6F786694E642";
shapes = (
{
closed = 1;
nodes = (
(210,755,o),
(187,718,o),
(190,663,cs),
(201,503,l),
(215,503,l),
(282,663,ls),
(305,718,o),
(294,755,o),
(255,755,cs),
(249,755,ls)
);
}
);
width = 238;
},
{
layerId = "0E723D17-59BC-4C5E-BFCA-41CEB45896D2";
shapes = (
{
closed = 1;
nodes = (
(201,531,l),
(257,691,ls),
(270,729,o),
(263,755,o),
(238,755,cs),
(234,755,ls),
(209,755,o),
(193,729,o),
(193,691,cs),
(192,531,l)
);
}
);
width = 205;
},
{
layerId = "14257FDA-2614-4218-93F6-F0A118F23CCC";
shapes = (
{
closed = 1;
nodes = (
(210,755,o),
(190,723,o),
(191,676,cs),
(196,516,l),
(209,516,l),
(270,676,ls),
(288,723,o),
(279,755,o),
(247,755,cs),
(242,755,ls)
);
}
);
width = 222;
},
{
layerId = "BBA8B076-D1F2-4268-BE72-89D7CC5EB943";
shapes = (
{
closed = 1;
nodes = (
(210,755,o),
(182,713,o),
(189,649,cs),
(205,489,l),
(222,489,l),
(295,649,ls),
(323,713,o),
(311,755,o),
(264,755,cs),
(257,755,ls)
);
}
);
width = 254;
}
);
note = quotesingle;
unicode = 39;
},
{
glyphname = parenleft;
lastChange = "2026-03-04 14:02:54 +0000";
layers = (
{
layerId = m01;
shapes = (
{
closed = 1;
nodes = (
(299,644,o),
(169,449,o),
(138,273,cs),
(107,96,o),
(168,-99,o),
(291,-214,c),
(296,-209,l),
(189,-108,o),
(140,85,o),
(173,273,cs),
(206,461,o),
(323,654,o),
(466,755,c),
(462,760,l)
);
}
);
width = 312;
},
{
layerId = "138274BD-2AF4-44A3-9B34-6F786694E642";
shapes = (
{
closed = 1;
nodes = (
(299,644,o),
(169,449,o),
(138,273,cs),
(107,96,o),
(168,-99,o),
(291,-214,c),
(301,-203,l),
(211,-118,o),
(174,73,o),
(209,273,cs),
(244,473,o),
(348,663,o),
(469,749,c),
(462,760,l)
);
}
);
width = 317;
},
{
layerId = "0E723D17-59BC-4C5E-BFCA-41CEB45896D2";
shapes = (
{
closed = 1;
nodes = (
(298,-207,l),
(197,-112,o),
(153,80,o),
(188,273,cs),
(221,466,o),
(333,658,o),
(467,752,c),
(462,760,l),
(299,644,o),
(169,449,o),
(138,273,cs),
(107,96,o),
(168,-99,o),
(291,-214,c)
);
}
);
width = 314;
},
{
layerId = "14257FDA-2614-4218-93F6-F0A118F23CCC";
shapes = (
{
closed = 1;
nodes = (
(299,644,o),
(169,449,o),
(138,273,cs),
(107,96,o),
(168,-99,o),
(291,-214,c),
(300,-205,l),
(205,-115,o),
(164,76,o),
(199,273,cs),
(234,470,o),
(342,661,o),
(468,751,c),
(462,760,l)
);
}
);
width = 316;
},
{
layerId = "BBA8B076-D1F2-4268-BE72-89D7CC5EB943";
shapes = (
{
closed = 1;
nodes = (
(299,644,o),
(169,449,o),
(138,273,cs),
(107,96,o),
(168,-99,o),
(291,-214,c),
(303,-202,l),
(217,-120,o),
(183,70,o),
(219,273,cs),
(255,476,o),
(356,666,o),
(470,747,c),
(462,760,l)
);
}
);
width = 318;
}
);
note = parenleft;
unicode = 40;
},
{
glyphname = parenright;
lastChange = "2026-03-04 14:02:54 +0000";
layers = (
{
layerId = m01;
shapes = (
{
closed = 1;
nodes = (
(211,652,o),
(258,459,o),
(225,273,cs),
(191,82,o),
(76,-113,o),
(-62,-214,c),
(-59,-220,l),
(101,-103,o),
(229,94,o),
(260,273,cs),
(291,447,o),
(232,642,o),
(114,760,c),
(108,755,l)
);
}
);
width = 302;
},
{
layerId = "138274BD-2AF4-44A3-9B34-6F786694E642";
shapes = (
{
closed = 1;
nodes = (
(194,658,o),
(233,467,o),
(199,273,cs),
(162,70,o),
(56,-125,o),
(-67,-214,c),
(-60,-225,l),
(106,-106,o),
(238,94,o),
(269,273,cs),
(299,442,o),
(237,637,o),
(114,760,c),
(103,749,l)
);
}
);
width = 311;
},
{
layerId = "0E723D17-59BC-4C5E-BFCA-41CEB45896D2";
shapes = (
{
closed = 1;
nodes = (
(103,-104,o),
(232,94,o),
(264,273,cs),
(294,445,o),
(234,640,o),
(114,760,c),
(106,752,l),
(204,654,o),
(248,463,o),
(214,273,cs),
(180,77,o),
(68,-118,o),
(-64,-214,c),
(-59,-222,l)
);
}
);
width = 305;
},
{
layerId = "14257FDA-2614-4218-93F6-F0A118F23CCC";
shapes = (
{
closed = 1;
nodes = (
(199,656,o),
(240,465,o),
(206,273,cs),
(171,73,o),
(62,-122,o),
(-66,-214,c),
(-60,-224,l),
(105,-105,o),
(235,94,o),
(267,273,cs),
(297,443,o),
(236,638,o),
(114,760,c),
(105,751,l)
);
}
);
width = 308;
},
{
layerId = "BBA8B076-D1F2-4268-BE72-89D7CC5EB943";
shapes = (
{
closed = 1;
nodes = (
(190,660,o),
(226,470,o),
(191,273,cs),
(154,66,o),
(51,-129,o),
(-68,-214,c),
(-60,-227,l),
(107,-107,o),
(240,93,o),
(272,273,cs),
(302,441,o),
(239,636,o),
(114,760,c),
(101,748,l)
);
}
);
width = 313;
}
);
note = parenright;
unicode = 41;
},
{
glyphname = asterisk;
lastChange = "2026-03-04 14:02:54 +0000";
layers = (
{
layerId = m01;
shapes = (
{
closed = 1;
nodes = (
(165,750,l),
(167,761,o),
(161,769,o),
(150,769,cs),
(139,769,o),
(133,761,o),
(135,750,c)
);
},
{
closed = 1;
nodes = (
(133,499,o),
(139,491,o),
(150,491,cs),
(161,491,o),
(167,499,o),
(165,510,c),
(135,510,l)
);
},
{
closed = 1;
nodes = (
(54,703,l),
(45,710,o),
(35,709,o),
(29,700,cs),
(24,690,o),
(28,681,o),
(38,677,c)
);
},
{
closed = 1;
nodes = (
(255,550,o),
(265,551,o),
(271,560,cs),
(276,570,o),
(272,579,o),
(262,583,c),
(246,557,l)
);
},
{
closed = 1;
nodes = (
(38,583,l),
(28,579,o),
(24,570,o),
(29,560,cs),
(35,551,o),
(45,550,o),
(54,557,c)
);
},
{
closed = 1;
nodes = (
(272,681,o),
(276,690,o),
(271,700,cs),
(265,709,o),
(255,710,o),
(246,703,c),
(262,677,l)
);
},
{
closed = 1;
nodes = (
(149,630,l),
(135,510,l),
(165,510,l),
(151,630,l),
(165,750,l),
(135,750,l)
);
},
{
closed = 1;
nodes = (
(149,629,l),
(246,557,l),
(262,583,l),
(151,631,l),
(54,703,l),
(38,677,l)
);
},
{
closed = 1;
nodes = (
(151,629,l),
(262,677,l),
(246,703,l),
(149,631,l),
(38,583,l),
(54,557,l)
);
}
);
width = 268;
},
{
layerId = "138274BD-2AF4-44A3-9B34-6F786694E642";
shapes = (
{
closed = 1;
nodes = (
(181,750,l),
(186,771,o),
(173,785,o),
(150,785,cs),
(127,785,o),
(114,771,o),
(119,750,c)
);
},
{
closed = 1;
nodes = (
(114,489,o),
(127,475,o),
(150,475,cs),
(173,475,o),
(186,489,o),
(181,510,c),
(119,510,l)
);
},
{
closed = 1;
nodes = (
(61,716,l),
(46,731,o),
(27,728,o),
(16,707,cs),
(4,687,o),
(10,670,o),
(31,664,c)
);
},
{
closed = 1;
nodes = (
(254,529,o),
(273,532,o),
(284,552,cs),
(296,573,o),
(290,590,o),
(269,596,c),
(239,544,l)
);
},
{
closed = 1;
nodes = (
(31,596,l),
(10,590,o),
(4,573,o),
(16,552,cs),
(27,532,o),
(46,529,o),
(61,544,c)
);
},
{
closed = 1;
nodes = (
(290,670,o),
(296,687,o),
(284,707,cs),
(273,728,o),
(254,731,o),
(239,716,c),
(269,664,l)
);
},
{
closed = 1;
nodes = (
(147,630,l),
(119,510,l),
(181,510,l),
(153,630,l),
(181,750,l),
(119,750,l)
);
},
{
closed = 1;
nodes = (
(149,628,l),
(239,544,l),
(269,596,l),
(151,632,l),
(61,716,l),
(31,664,l)
);
},
{
closed = 1;
nodes = (
(151,628,l),
(269,664,l),
(239,716,l),
(149,632,l),
(31,596,l),
(61,544,l)
);
}
);
width = 300;
},
{
layerId = "0E723D17-59BC-4C5E-BFCA-41CEB45896D2";
shapes = (
{
closed = 1;
nodes = (
(166,483,o),
(174,494,o),
(171,510,cs),
(153,625,l),
(243,551,ls),
(256,541,o),
(270,543,o),
(277,556,cs),
(285,570,o),
(280,583,o),
(265,589,cs),
(156,630,l),
(265,671,ls),
(280,677,o),
(285,690,o),
(277,704,cs),
(270,717,o),
(256,719,o),
(243,709,cs),
(153,635,l),
(171,750,ls),
(174,766,o),
(166,777,o),
(150,777,cs),
(134,777,o),
(126,766,o),
(129,750,cs),
(147,635,l),
(57,709,ls),
(44,719,o),
(30,717,o),
(23,704,cs),
(15,690,o),
(20,677,o),
(35,671,cs),
(144,630,l),
(35,589,ls),
(20,583,o),
(15,570,o),
(23,556,cs),
(30,543,o),
(44,541,o),
(57,551,cs),
(147,625,l),
(129,510,ls),
(126,494,o),
(134,483,o),
(150,483,cs)
);
}
);
width = 284;
},
{
layerId = "14257FDA-2614-4218-93F6-F0A118F23CCC";
shapes = (
{
closed = 1;
nodes = (
(176,750,l),
(180,770,o),
(170,783,o),
(150,783,cs),
(130,783,o),
(120,770,o),
(124,750,c)
);
},
{
closed = 1;
nodes = (
(120,490,o),
(130,477,o),
(150,477,cs),
(170,477,o),
(180,490,o),
(176,510,c),
(124,510,l)
);
},
{
closed = 1;
nodes = (
(59,713,l),
(44,726,o),
(27,724,o),
(17,707,cs),
(7,689,o),
(14,674,o),
(33,667,c)
);
},
{
closed = 1;
nodes = (
(256,534,o),
(273,536,o),
(283,553,cs),
(293,571,o),
(286,586,o),
(267,593,c),
(241,547,l)
);
},
{
closed = 1;
nodes = (
(33,593,l),
(14,586,o),
(7,571,o),
(17,553,cs),
(27,536,o),
(44,534,o),
(59,547,c)
);
},
{
closed = 1;
nodes = (
(286,674,o),
(293,689,o),
(283,707,cs),
(273,724,o),
(256,726,o),
(241,713,c),
(267,667,l)
);
},
{
closed = 1;
nodes = (
(148,630,l),
(124,510,l),
(176,510,l),
(152,630,l),
(176,750,l),
(124,750,l)
);
},
{
closed = 1;
nodes = (
(149,628,l),
(241,547,l),
(267,593,l),
(151,632,l),
(59,713,l),
(33,667,l)
);
},
{
closed = 1;
nodes = (
(151,628,l),
(267,667,l),
(241,713,l),
(149,632,l),
(33,593,l),
(59,547,l)
);
}
);
width = 296;
},
{
layerId = "BBA8B076-D1F2-4268-BE72-89D7CC5EB943";
shapes = (
{
closed = 1;
nodes = (
(185,750,l),
(190,771,o),
(176,785,o),
(150,785,cs),
(124,785,o),
(110,771,o),
(115,750,c)
);
},
{
closed = 1;
nodes = (
(110,489,o),
(124,475,o),
(150,475,cs),
(176,475,o),
(190,489,o),
(185,510,c),
(115,510,l)
);
},
{
closed = 1;
nodes = (
(64,720,l),
(48,736,o),
(29,730,o),
(16,707,cs),
(3,685,o),
(8,665,o),
(29,660,c)
);
},
{
closed = 1;
nodes = (
(252,524,o),
(271,530,o),
(284,552,cs),
(297,575,o),
(292,595,o),
(271,600,c),
(236,540,l)
);
},
{
closed = 1;
nodes = (
(29,600,l),
(8,595,o),
(3,575,o),
(16,552,cs),
(29,530,o),
(48,524,o),
(64,540,c)
);
},
{
closed = 1;
nodes = (
(292,665,o),
(297,685,o),
(284,707,cs),
(271,730,o),
(252,736,o),
(236,720,c),
(271,660,l)
);
},
{
closed = 1;
nodes = (
(147,630,l),
(115,510,l),
(185,510,l),
(153,630,l),
(185,750,l),
(115,750,l)
);
},
{
closed = 1;
nodes = (
(148,627,l),
(236,540,l),
(271,600,l),
(152,633,l),
(64,720,l),
(29,660,l)
);
},
{
closed = 1;
nodes = (
(152,627,l),
(271,660,l),
(236,720,l),
(148,633,l),
(29,600,l),
(64,540,l)
);
}
);
width = 300;
}
);
note = asterisk;
unicode = 42;
},
{
glyphname = plus;
lastChange = "2026-03-04 14:02:54 +0000";
layers = (
{
layerId = m01;
shapes = (
{
closed = 1;
nodes = (
(552,232,l),
(558,268,l),
(147,268,l),
(141,232,l)
);
},
{
closed = 1;
nodes = (
(294,45,l),
(333,45,l),
(405,455,l),
(366,455,l)
);
}
);
width = 610;
},
{
layerId = "138274BD-2AF4-44A3-9B34-6F786694E642";
shapes = (
{
closed = 1;
nodes = (
(549,215,l),
(561,285,l),
(150,285,l),
(138,215,l)
);
},
{
closed = 1;
nodes = (
(274,45,l),
(352,45,l),
(425,455,l),
(347,455,l)
);
}
);
width = 610;
},
{
layerId = "0E723D17-59BC-4C5E-BFCA-41CEB45896D2";
shapes = (
{
closed = 1;
nodes = (
(340,45,l),
(372,225,l),
(551,225,l),
(559,275,l),
(381,275,l),
(413,455,l),
(359,455,l),
(327,275,l),
(148,275,l),
(140,225,l),
(318,225,l),
(286,45,l)
);
}
);
width = 610;
},
{
layerId = "14257FDA-2614-4218-93F6-F0A118F23CCC";
shapes = (
{
closed = 1;
nodes = (
(550,220,l),
(560,280,l),
(149,280,l),
(139,220,l)
);
},
{
closed = 1;
nodes = (
(280,45,l),
(347,45,l),
(419,455,l),
(352,455,l)
);
}
);
width = 610;
},
{
layerId = "BBA8B076-D1F2-4268-BE72-89D7CC5EB943";
shapes = (
{
closed = 1;
nodes = (
(548,209,l),
(562,291,l),
(151,291,l),
(137,209,l)
);
},
{
closed = 1;
nodes = (
(269,45,l),
(358,45,l),
(430,455,l),
(341,455,l)
);
}
);
width = 610;
}
);
note = plus;
unicode = 43;
},
{
glyphname = comma;
lastChange = "2026-03-04 14:02:54 +0000";
layers = (
{
layerId = m01;
shapes = (
{
closed = 1;
nodes = (
(145,-5,o),
(162,9,o),
(166,30,cs),
(169,52,o),
(158,66,o),
(137,66,cs),
(116,66,o),
(99,52,o),
(95,30,cs),
(91,9,o),
(103,-5,o),
(124,-5,cs)
);
},
{
closed = 1;
nodes = (
(132,40,l),
(146,40,o),
(153,29,o),
(150,13,cs),
(142,-35,o),
(110,-74,o),
(72,-85,c),
(73,-95,l),
(125,-81,o),
(167,-36,o),
(176,17,cs),
(181,46,o),
(165,66,o),
(137,66,c)
);
}
);
width = 225;
},
{
layerId = "138274BD-2AF4-44A3-9B34-6F786694E642";
shapes = (
{
closed = 1;
nodes = (
(167,-5,o),
(200,23,o),
(207,66,cs),
(215,108,o),
(192,136,o),
(149,136,cs),
(106,136,o),
(73,108,o),
(66,66,cs),
(58,23,o),
(82,-5,o),
(124,-5,cs)
);
},
{
closed = 1;
nodes = (
(140,86,l),
(169,86,o),
(183,56,o),
(175,11,cs),
(164,-51,o),
(105,-106,o),
(27,-128,c),
(29,-145,l),
(132,-117,o),
(209,-51,o),
(222,19,cs),
(234,89,o),
(205,136,o),
(149,136,c)
);
}
);
width = 260;
},
{
layerId = "0E723D17-59BC-4C5E-BFCA-41CEB45896D2";
shapes = (
{
closed = 1;
nodes = (
(129,-95,o),
(185,-42,o),
(195,18,cs),
(203,64,o),
(181,94,o),
(142,94,c),
(142,94,o),
(142,94,o),
(142,94,c),
(112,94,o),
(89,74,o),
(83,44,cs),
(78,15,o),
(95,-5,o),
(124,-5,cs),
(137,-5,o),
(149,-1,o),
(158,5,c),
(146,-46,o),
(105,-87,o),
(54,-101,c),
(55,-115,l)
);
}
);
width = 239;
},
{
layerId = "14257FDA-2614-4218-93F6-F0A118F23CCC";
shapes = (
{
closed = 1;
nodes = (
(161,-5,o),
(189,19,o),
(195,56,cs),
(202,92,o),
(182,116,o),
(146,116,cs),
(109,116,o),
(80,92,o),
(74,56,cs),
(68,19,o),
(88,-5,o),
(124,-5,cs)
);
},
{
closed = 1;
nodes = (
(138,73,l),
(161,73,o),
(173,48,o),
(166,11,cs),
(156,-46,o),
(105,-96,o),
(39,-114,c),
(41,-131,l),
(131,-106,o),
(199,-46,o),
(210,19,cs),
(221,77,o),
(195,116,o),
(146,116,c)
);
}
);
width = 250;
},
{
layerId = "BBA8B076-D1F2-4268-BE72-89D7CC5EB943";
shapes = (
{
closed = 1;
nodes = (
(172,-5,o),
(210,27,o),
(218,75,cs),
(227,123,o),
(200,155,o),
(152,155,cs),
(104,155,o),
(67,123,o),
(58,75,cs),
(50,27,o),
(76,-5,o),
(124,-5,cs)
);
},
{
closed = 1;
nodes = (
(142,97,l),
(175,97,o),
(191,62,o),
(182,11,cs),
(170,-57,o),
(103,-118,o),
(15,-143,c),
(17,-160,l),
(133,-128,o),
(220,-56,o),
(233,19,cs),
(248,101,o),
(215,155,o),
(152,155,c)
);
}
);
width = 270;
}
);
note = comma;
unicode = 44;
},
{
glyphname = hyphen;
lastChange = "2026-03-04 14:02:54 +0000";
layers = (
{
layerId = m01;
shapes = (
{
closed = 1;
nodes = (
(383,237,l),
(390,277,l),
(129,277,l),
(122,237,l)
);
}
);
width = 420;
},
{
layerId = "138274BD-2AF4-44A3-9B34-6F786694E642";
shapes = (
{
closed = 1;
nodes = (
(379,216,l),
(393,298,l),
(133,298,l),
(118,216,l)
);
}
);
width = 420;
},
{
layerId = "0E723D17-59BC-4C5E-BFCA-41CEB45896D2";
shapes = (
{
closed = 1;
nodes = (
(381,228,l),
(391,286,l),
(130,286,l),
(120,228,l)
);
}
);
width = 420;
},
{
layerId = "14257FDA-2614-4218-93F6-F0A118F23CCC";
shapes = (
{
closed = 1;
nodes = (
(380,222,l),
(392,292,l),
(131,292,l),
(119,222,l)
);
}
);
width = 420;
},
{
layerId = "BBA8B076-D1F2-4268-BE72-89D7CC5EB943";
shapes = (
{
closed = 1;
nodes = (
(378,210,l),
(394,304,l),
(134,304,l),
(117,210,l)
);
}
);
width = 420;
}
);
note = hyphen;
unicode = 45;
},
{
glyphname = period;
lastChange = "2026-03-04 14:02:54 +0000";
layers = (
{
layerId = m01;
shapes = (
{
closed = 1;
nodes = (
(145,-5,o),
(162,9,o),
(166,30,cs),
(169,52,o),
(158,66,o),
(137,66,cs),
(116,66,o),
(99,52,o),
(95,30,cs),
(91,9,o),
(103,-5,o),
(124,-5,cs)
);
}
);
width = 225;
},
{
layerId = "138274BD-2AF4-44A3-9B34-6F786694E642";
shapes = (
{
closed = 1;
nodes = (
(167,-5,o),
(200,23,o),
(207,66,cs),
(215,108,o),
(192,136,o),
(149,136,cs),
(106,136,o),
(73,108,o),
(66,66,cs),
(58,23,o),
(82,-5,o),
(124,-5,cs)
);
}
);
width = 260;
},
{
layerId = "0E723D17-59BC-4C5E-BFCA-41CEB45896D2";
shapes = (
{
closed = 1;
nodes = (
(154,-5,o),
(177,15,o),
(182,44,cs),
(187,74,o),
(171,94,o),
(142,94,cs),
(112,94,o),
(89,74,o),
(83,44,cs),
(78,15,o),
(95,-5,o),
(124,-5,cs)
);
}
);
width = 239;
},
{
layerId = "14257FDA-2614-4218-93F6-F0A118F23CCC";
shapes = (
{
closed = 1;
nodes = (
(161,-5,o),
(189,19,o),
(195,56,cs),
(202,92,o),
(182,116,o),
(146,116,cs),
(109,116,o),
(80,92,o),
(74,56,cs),
(68,19,o),
(88,-5,o),
(124,-5,cs)
);
}
);
width = 250;
},
{
layerId = "BBA8B076-D1F2-4268-BE72-89D7CC5EB943";
shapes = (
{
closed = 1;
nodes = (
(172,-5,o),
(210,27,o),
(218,75,cs),
(227,123,o),
(200,155,o),
(152,155,cs),
(104,155,o),
(67,123,o),
(58,75,cs),
(50,27,o),
(76,-5,o),
(124,-5,cs)
);
}
);
width = 270;
}
);
note = period;
unicode = 46;
},
{
glyphname = slash;
lastChange = "2026-03-04 14:02:54 +0000";
layers = (
{
layerId = m01;
shapes = (
{
closed = 1;
nodes = (
(23,-80,l),
(53,-80,l),
(484,770,l),
(455,770,l)
);
}
);
width = 378;
},
{
layerId = "138274BD-2AF4-44A3-9B34-6F786694E642";
shapes = (
{
closed = 1;
nodes = (
(8,-80,l),
(67,-80,l),
(499,770,l),
(440,770,l)
);
}
);
width = 393;
},
{
layerId = "0E723D17-59BC-4C5E-BFCA-41CEB45896D2";
shapes = (
{
closed = 1;
nodes = (
(58,-80,l),
(490,770,l),
(449,770,l),
(17,-80,l)
);
}
);
width = 384;
},
{
layerId = "14257FDA-2614-4218-93F6-F0A118F23CCC";
shapes = (
{
closed = 1;
nodes = (
(13,-80,l),
(63,-80,l),
(495,770,l),
(445,770,l)
);
}
);
width = 389;
},
{
layerId = "BBA8B076-D1F2-4268-BE72-89D7CC5EB943";
shapes = (
{
closed = 1;
nodes = (
(4,-80,l),
(72,-80,l),
(504,770,l),
(436,770,l)
);
}
);
width = 397;
}
);
note = slash;
unicode = 47;
},
{
glyphname = zero;
lastChange = "2026-03-04 14:02:54 +0000";
layers = (
{
layerId = m01;
shapes = (
{
closed = 1;
nodes = (
(66,94,o),
(165,-10,o),
(303,-10,cs),
(457,-10,o),
(580,110,o),
(605,250,cs),
(633,406,o),
(533,510,o),
(395,510,cs),
(241,510,o),
(118,390,o),
(93,250,cs)
);
},
{
closed = 1;
nodes = (
(182,11,o),
(92,107,o),
(117,250,cs),
(140,379,o),
(252,489,o),
(391,489,cs),
(517,489,o),
(607,393,o),
(581,250,cs),
(558,121,o),
(446,11,o),
(307,11,cs)
);
}
);
width = 605;
},
{
layerId = "138274BD-2AF4-44A3-9B34-6F786694E642";
shapes = (
{
closed = 1;
nodes = (
(60,94,o),
(162,-10,o),
(303,-10,cs),
(460,-10,o),
(586,110,o),
(611,250,cs),
(638,406,o),
(536,510,o),
(395,510,cs),
(238,510,o),
(112,390,o),
(87,250,cs)
);
},
{
closed = 1;
nodes = (
(194,31,o),
(111,119,o),
(134,250,cs),
(155,368,o),
(259,469,o),
(388,469,cs),
(504,469,o),
(587,381,o),
(564,250,cs),
(543,132,o),
(439,31,o),
(310,31,cs)
);
}
);
width = 611;
},
{
layerId = "0E723D17-59BC-4C5E-BFCA-41CEB45896D2";
shapes = (
{
closed = 1;
nodes = (
(458,-10,o),
(582,110,o),
(607,250,cs),
(635,406,o),
(534,510,o),
(395,510,cs),
(240,510,o),
(116,390,o),
(91,250,cs),
(63,94,o),
(164,-10,o),
(303,-10,cs)
);
},
{
closed = 1;
nodes = (
(187,19,o),
(100,111,o),
(124,250,cs),
(146,375,o),
(255,481,o),
(390,481,cs),
(511,481,o),
(599,389,o),
(574,250,cs),
(552,125,o),
(443,19,o),
(308,19,cs)
);
}
);
width = 608;
},
{
layerId = "14257FDA-2614-4218-93F6-F0A118F23CCC";
shapes = (
{
closed = 1;
nodes = (
(62,94,o),
(163,-10,o),
(303,-10,cs),
(459,-10,o),
(584,110,o),
(609,250,cs),
(637,406,o),
(535,510,o),
(395,510,cs),
(239,510,o),
(114,390,o),
(89,250,cs)
);
},
{
closed = 1;
nodes = (
(191,25,o),
(105,115,o),
(129,250,cs),
(151,372,o),
(257,475,o),
(389,475,cs),
(508,475,o),
(593,385,o),
(569,250,cs),
(548,129,o),
(441,25,o),
(309,25,cs)
);
}
);
width = 610;
},
{
layerId = "BBA8B076-D1F2-4268-BE72-89D7CC5EB943";
shapes = (
{
closed = 1;
nodes = (
(58,94,o),
(161,-10,o),
(303,-10,cs),
(462,-10,o),
(588,110,o),
(613,250,cs),
(640,406,o),
(537,510,o),
(395,510,cs),
(237,510,o),
(110,390,o),
(86,250,cs)
);
},
{
closed = 1;
nodes = (
(199,37,o),
(117,122,o),
(140,250,cs),
(160,365,o),
(261,463,o),
(387,463,cs),
(499,463,o),
(581,378,o),
(558,250,cs),
(538,135,o),
(437,37,o),
(312,37,cs)
);
}
);
width = 613;
}
);
note = zero;
unicode = 48;
},
{
glyphname = one;
lastChange = "2026-03-04 14:02:54 +0000";
layers = (
{
layerId = m01;
shapes = (
{
closed = 1;
nodes = (
(180,38,l),
(254,462,l),
(204,462,l),
(130,38,l)
);
},
{
closed = 1;
nodes = (
(130,38,l),
(129,34,o),
(102,33,o),
(62,33,cs),
(46,33,l),
(46,33,o),
(45,26,o),
(43,16,cs),
(41,7,o),
(40,0,o),
(40,0,c),
(148,0,l),
(256,0,l),
(256,0,o),
(257,7,o),
(259,16,cs),
(261,26,o),
(262,33,o),
(261,33,cs),
(246,33,ls),
(206,33,o),
(179,34,o),
(180,38,c)
);
},
{
closed = 1;
nodes = (
(255,466,o),
(282,467,o),
(322,467,cs),
(338,467,l),
(338,467,o),
(339,474,o),
(341,484,cs),
(343,493,o),
(344,500,o),
(344,500,c),
(236,500,l),
(128,500,l),
(128,500,o),
(127,493,o),
(125,484,cs),
(124,474,o),
(122,467,o),
(122,467,c),
(138,467,ls),
(178,467,o),
(205,466,o),
(204,462,c),
(254,462,l)
);
}
);
width = 295;
},
{
layerId = "138274BD-2AF4-44A3-9B34-6F786694E642";
shapes = (
{
closed = 1;
nodes = (
(230,38,l),
(304,462,l),
(204,462,l),
(130,38,l)
);
},
{
closed = 1;
nodes = (
(130,38,l),
(129,34,o),
(102,33,o),
(62,33,cs),
(46,33,l),
(46,33,o),
(45,26,o),
(43,16,cs),
(41,7,o),
(40,0,o),
(40,0,c),
(173,0,l),
(306,0,l),
(306,0,o),
(307,7,o),
(309,16,cs),
(311,26,o),
(312,33,o),
(311,33,cs),
(296,33,ls),
(256,33,o),
(229,34,o),
(230,38,c)
);
},
{
closed = 1;
nodes = (
(305,466,o),
(332,467,o),
(372,467,cs),
(388,467,l),
(388,467,o),
(389,474,o),
(391,484,cs),
(393,493,o),
(394,500,o),
(394,500,c),
(261,500,l),
(128,500,l),
(128,500,o),
(127,493,o),
(125,484,cs),
(124,474,o),
(122,467,o),
(122,467,c),
(138,467,ls),
(178,467,o),
(205,466,o),
(204,462,c),
(304,462,l)
);
}
);
width = 345;
},
{
layerId = "0E723D17-59BC-4C5E-BFCA-41CEB45896D2";
shapes = (
{
closed = 1;
nodes = (
(158,0,l),
(276,0,l),
(276,0,o),
(277,7,o),
(279,16,cs),
(281,26,o),
(282,33,o),
(281,33,cs),
(266,33,ls),
(226,33,o),
(199,34,o),
(200,38,cs),
(274,462,ls),
(275,466,o),
(302,467,o),
(342,467,cs),
(358,467,l),
(358,467,o),
(359,474,o),
(361,484,cs),
(363,493,o),
(364,500,o),
(364,500,c),
(246,500,l),
(128,500,l),
(128,500,o),
(127,493,o),
(125,484,cs),
(124,474,o),
(122,467,o),
(122,467,c),
(138,467,ls),
(178,467,o),
(205,466,o),
(204,462,cs),
(130,38,ls),
(129,34,o),
(102,33,o),
(62,33,cs),
(46,33,l),
(46,33,o),
(45,26,o),
(43,16,cs),
(41,7,o),
(40,0,o),
(40,0,c)
);
}
);
width = 315;
},
{
layerId = "14257FDA-2614-4218-93F6-F0A118F23CCC";
shapes = (
{
closed = 1;
nodes = (
(215,38,l),
(290,462,l),
(204,462,l),
(130,38,l)
);
},
{
closed = 1;
nodes = (
(130,38,l),
(129,34,o),
(102,33,o),
(62,33,cs),
(46,33,l),
(46,33,o),
(45,26,o),
(43,16,cs),
(41,7,o),
(40,0,o),
(40,0,c),
(166,0,l),
(292,0,l),
(292,0,o),
(293,7,o),
(294,16,cs),
(296,26,o),
(298,33,o),
(297,33,cs),
(282,33,ls),
(242,33,o),
(215,34,o),
(215,38,c)
);
},
{
closed = 1;
nodes = (
(291,466,o),
(318,467,o),
(358,467,cs),
(374,467,l),
(374,467,o),
(375,474,o),
(377,484,cs),
(379,493,o),
(380,500,o),
(380,500,c),
(254,500,l),
(128,500,l),
(128,500,o),
(127,493,o),
(125,484,cs),
(124,474,o),
(122,467,o),
(122,467,c),
(138,467,ls),
(178,467,o),
(205,466,o),
(204,462,c),
(290,462,l)
);
}
);
width = 331;
},
{
layerId = "BBA8B076-D1F2-4268-BE72-89D7CC5EB943";
shapes = (
{
closed = 1;
nodes = (
(245,38,l),
(319,462,l),
(204,462,l),
(130,38,l)
);
},
{
closed = 1;
nodes = (
(130,38,l),
(129,34,o),
(102,33,o),
(62,33,cs),
(46,33,l),
(46,33,o),
(45,26,o),
(43,16,cs),
(41,7,o),
(40,0,o),
(40,0,c),
(180,0,l),
(321,0,l),
(321,0,o),
(322,7,o),
(324,16,cs),
(326,26,o),
(327,33,o),
(326,33,cs),
(311,33,ls),
(271,33,o),
(244,34,o),
(245,38,c)
);
},
{
closed = 1;
nodes = (
(320,466,o),
(347,467,o),
(387,467,cs),
(403,467,l),
(403,467,o),
(404,474,o),
(406,484,cs),
(408,493,o),
(409,500,o),
(409,500,c),
(269,500,l),
(128,500,l),
(128,500,o),
(127,493,o),
(125,484,cs),
(124,474,o),
(122,467,o),
(122,467,c),
(138,467,ls),
(178,467,o),
(205,466,o),
(204,462,c),
(319,462,l)
);
}
);
width = 360;
}
);
note = one;
unicode = 49;
},
{
glyphname = two;
lastChange = "2026-03-04 14:02:54 +0000";
layers = (
{
layerId = m01;
shapes = (
{
closed = 1;
nodes = (
(147,400,o),
(230,472,o),
(313,472,cs),
(396,472,o),
(441,416,o),
(427,331,cs),
(407,220,o),
(231,106,o),
(32,9,c),
(30,0,l),
(259,111,o),
(460,236,o),
(479,343,cs),
(496,443,o),
(443,510,o),
(345,510,cs),
(244,510,o),
(145,423,o),
(97,294,c),
(107,291,l)
);
},
{
closed = 1;
nodes = (
(416,0,l),
(451,44,l),
(110,44,l),
(30,0,l)
);
},
{
closed = 1;
nodes = (
(334,0,l),
(388,0,l),
(416,0,l),
(426,14,o),
(441,32,o),
(453,46,cs),
(464,61,o),
(479,79,o),
(490,93,c),
(484,94,o),
(476,96,cs),
(467,97,o),
(462,98,o),
(449,82,ls),
(431,59,o),
(412,44,o),
(379,44,c)
);
}
);
width = 518;
},
{
layerId = "138274BD-2AF4-44A3-9B34-6F786694E642";
shapes = (
{
closed = 1;
nodes = (
(147,376,o),
(219,434,o),
(295,434,cs),
(367,434,o),
(407,389,o),
(395,323,cs),
(376,212,o),
(216,106,o),
(33,18,c),
(30,0,l),
(271,117,o),
(481,245,o),
(499,346,cs),
(516,444,o),
(461,510,o),
(360,510,cs),
(249,510,o),
(143,424,o),
(95,294,c),
(115,290,l)
);
},
{
closed = 1;
nodes = (
(423,0,l),
(494,89,l),
(189,89,l),
(30,0,l)
);
},
{
closed = 1;
nodes = (
(314,0,l),
(368,0,l),
(368,0,l),
(368,0,o),
(368,0,o),
(368,0,c),
(401,0,o),
(423,0,o),
(423,0,c),
(440,20,o),
(462,48,o),
(478,69,cs),
(495,89,o),
(517,117,o),
(533,137,c),
(533,137,o),
(528,138,o),
(519,140,cs),
(511,142,o),
(505,143,o),
(505,143,c),
(492,127,ls),
(474,104,o),
(455,89,o),
(422,89,c)
);
}
);
width = 538;
},
{
layerId = "0E723D17-59BC-4C5E-BFCA-41CEB45896D2";
shapes = (
{
closed = 1;
nodes = (
(326,0,l),
(380,0,l),
(380,0,l),
(380,0,o),
(380,0,o),
(380,0,c),
(403,0,o),
(419,0,o),
(419,0,c),
(443,30,ls),
(450,39,o),
(457,48,o),
(463,55,cs),
(477,72,o),
(494,94,o),
(507,111,c),
(508,111,o),
(502,112,o),
(493,113,cs),
(485,115,o),
(479,116,o),
(479,116,c),
(466,100,ls),
(448,77,o),
(430,62,o),
(396,62,cs),
(152,62,l),
(332,158,o),
(471,257,o),
(487,344,cs),
(504,444,o),
(450,510,o),
(351,510,cs),
(246,510,o),
(144,424,o),
(96,294,c),
(110,291,l),
(147,390,o),
(225,457,o),
(305,457,cs),
(384,457,o),
(428,405,o),
(414,328,cs),
(394,216,o),
(225,106,o),
(32,12,c),
(30,0,l)
);
}
);
width = 526;
},
{
layerId = "14257FDA-2614-4218-93F6-F0A118F23CCC";
shapes = (
{
closed = 1;
nodes = (
(147,383,o),
(222,445,o),
(300,445,cs),
(375,445,o),
(417,397,o),
(404,325,cs),
(385,214,o),
(220,106,o),
(33,15,c),
(30,0,l),
(268,115,o),
(476,242,o),
(493,345,cs),
(511,444,o),
(456,510,o),
(355,510,cs),
(248,510,o),
(144,424,o),
(95,294,c),
(113,290,l)
);
},
{
closed = 1;
nodes = (
(421,0,l),
(482,76,l),
(167,76,l),
(30,0,l)
);
},
{
closed = 1;
nodes = (
(319,0,l),
(373,0,l),
(373,0,l),
(373,0,o),
(373,0,o),
(373,0,c),
(402,0,o),
(421,0,o),
(421,0,c),
(436,19,o),
(456,44,o),
(471,62,cs),
(486,81,o),
(506,106,o),
(521,125,c),
(521,125,o),
(516,126,o),
(507,127,cs),
(498,129,o),
(493,130,o),
(493,130,c),
(480,114,ls),
(462,91,o),
(443,76,o),
(410,76,c)
);
}
);
width = 532;
},
{
layerId = "BBA8B076-D1F2-4268-BE72-89D7CC5EB943";
shapes = (
{
closed = 1;
nodes = (
(147,369,o),
(216,423,o),
(290,423,cs),
(359,423,o),
(397,382,o),
(386,320,cs),
(367,210,o),
(211,106,o),
(34,20,c),
(30,0,l),
(275,119,o),
(488,248,o),
(505,347,cs),
(523,445,o),
(466,510,o),
(364,510,cs),
(250,510,o),
(142,424,o),
(94,294,c),
(117,289,l)
);
},
{
closed = 1;
nodes = (
(426,0,l),
(507,102,l),
(213,102,l),
(30,0,l)
);
},
{
closed = 1;
nodes = (
(308,0,l),
(362,0,l),
(362,0,l),
(362,0,o),
(362,0,o),
(362,0,c),
(426,0,l),
(444,23,o),
(468,53,o),
(486,75,cs),
(504,98,o),
(528,128,o),
(546,151,c),
(546,151,o),
(541,152,o),
(532,153,cs),
(524,155,o),
(518,156,o),
(518,156,c),
(505,140,ls),
(487,117,o),
(469,102,o),
(435,102,c)
);
}
);
width = 544;
}
);
note = two;
unicode = 50;
},
{
glyphname = three;
lastChange = "2026-03-04 14:02:54 +0000";
layers = (
{
layerId = m01;
shapes = (
{
closed = 1;
nodes = (
(94,348,l),
(125,424,o),
(197,475,o),
(273,475,cs),
(345,475,o),
(386,432,o),
(375,367,cs),
(361,288,o),
(262,221,o),
(122,166,c),
(121,156,l),
(295,225,o),
(416,303,o),
(431,384,cs),
(444,460,o),
(391,510,o),
(299,510,cs),
(209,510,o),
(123,446,o),
(84,351,c)
);
},
{
closed = 1;
nodes = (
(-21,-232,l),
(187,-210,o),
(339,-119,o),
(359,-2,cs),
(376,93,o),
(308,167,o),
(188,184,c),
(121,156,l),
(246,138,o),
(319,69,o),
(304,-17,cs),
(285,-122,o),
(156,-204,o),
(-21,-222,c)
);
}
);
width = 399;
},
{
layerId = "138274BD-2AF4-44A3-9B34-6F786694E642";
shapes = (
{
closed = 1;
nodes = (
(102,345,l),
(125,402,o),
(185,440,o),
(251,440,cs),
(308,440,o),
(339,405,o),
(330,352,cs),
(316,273,o),
(239,214,o),
(131,171,c),
(128,151,l),
(304,221,o),
(427,300,o),
(442,386,cs),
(455,461,o),
(400,510,o),
(304,510,cs),
(209,510,o),
(120,447,o),
(82,352,c)
);
},
{
closed = 1;
nodes = (
(-21,-232,l),
(210,-208,o),
(377,-111,o),
(399,11,cs),
(417,114,o),
(360,193,o),
(256,208,c),
(128,151,l),
(239,135,o),
(303,67,o),
(288,-17,cs),
(270,-117,o),
(147,-195,o),
(-21,-212,c)
);
}
);
width = 436;
},
{
layerId = "0E723D17-59BC-4C5E-BFCA-41CEB45896D2";
shapes = (
{
closed = 1;
nodes = (
(196,-210,o),
(354,-116,o),
(375,3,cs),
(393,101,o),
(328,178,o),
(216,194,c),
(342,253,o),
(424,318,o),
(436,385,cs),
(449,460,o),
(395,510,o),
(301,510,cs),
(209,510,o),
(122,446,o),
(83,351,c),
(97,347,l),
(126,415,o),
(192,461,o),
(264,461,cs),
(330,461,o),
(367,421,o),
(357,361,cs),
(343,282,o),
(253,218,o),
(126,168,c),
(123,154,l),
(243,137,o),
(313,68,o),
(298,-17,cs),
(280,-120,o),
(152,-200,o),
(-21,-218,c),
(-21,-232,l)
);
}
);
width = 414;
},
{
layerId = "14257FDA-2614-4218-93F6-F0A118F23CCC";
shapes = (
{
closed = 1;
nodes = (
(100,346,l),
(125,408,o),
(188,450,o),
(257,450,cs),
(318,450,o),
(353,412,o),
(342,356,cs),
(329,277,o),
(246,215,o),
(129,170,c),
(126,152,l),
(301,222,o),
(424,301,o),
(439,386,cs),
(452,460,o),
(398,510,o),
(302,510,cs),
(209,510,o),
(121,447,o),
(82,351,c)
);
},
{
closed = 1;
nodes = (
(-21,-232,l),
(203,-209,o),
(366,-114,o),
(388,7,cs),
(405,108,o),
(345,186,o),
(237,202,c),
(126,152,l),
(241,136,o),
(307,68,o),
(292,-17,cs),
(274,-118,o),
(149,-198,o),
(-21,-215,c)
);
}
);
width = 426;
},
{
layerId = "BBA8B076-D1F2-4268-BE72-89D7CC5EB943";
shapes = (
{
closed = 1;
nodes = (
(104,345,l),
(125,395,o),
(181,429,o),
(244,429,cs),
(296,429,o),
(325,396,o),
(316,348,cs),
(302,268,o),
(232,211,o),
(134,173,c),
(130,150,l),
(306,219,o),
(430,300,o),
(445,387,cs),
(458,461,o),
(402,510,o),
(305,510,cs),
(209,510,o),
(119,447,o),
(81,352,c)
);
},
{
closed = 1;
nodes = (
(-21,-232,l),
(216,-207,o),
(389,-109,o),
(410,15,cs),
(429,121,o),
(375,202,o),
(274,216,c),
(130,150,l),
(237,134,o),
(298,67,o),
(283,-18,cs),
(266,-116,o),
(144,-192,o),
(-21,-209,c)
);
}
);
width = 447;
}
);
note = three;
unicode = 51;
},
{
glyphname = four;
lastChange = "2026-03-04 14:02:54 +0000";
layers = (
{
layerId = m01;
shapes = (
{
closed = 1;
nodes = (
(367,-220,l),
(484,441,l),
(499,530,l),
(493,530,l),
(434,441,l),
(317,-220,l)
);
},
{
closed = 1;
nodes = (
(584,38,l),
(67,38,l),
(17,9,l),
(15,0,l),
(32,0,l),
(578,0,l)
);
},
{
closed = 1;
nodes = (
(40,9,l),
(488,501,l),
(493,530,l),
(17,9,l)
);
},
{
closed = 1;
nodes = (
(523,0,l),
(542,0,o),
(541,-12,o),
(535,-30,cs),
(530,-46,l),
(530,-46,o),
(537,-46,o),
(547,-46,cs),
(557,-46,o),
(563,-46,o),
(563,-46,c),
(570,-25,o),
(579,3,o),
(585,23,cs),
(592,44,o),
(601,72,o),
(607,92,c),
(607,92,o),
(600,92,o),
(590,92,cs),
(581,92,o),
(574,92,o),
(574,92,c),
(569,76,ls),
(562,53,o),
(551,38,o),
(517,38,c)
);
}
);
width = 602;
},
{
layerId = "138274BD-2AF4-44A3-9B34-6F786694E642";
shapes = (
{
closed = 1;
nodes = (
(367,-220,l),
(468,352,l),
(499,530,l),
(486,530,l),
(368,352,l),
(267,-220,l)
);
},
{
closed = 1;
nodes = (
(591,76,l),
(118,76,l),
(18,18,l),
(15,0,l),
(49,0,l),
(578,0,l)
);
},
{
closed = 1;
nodes = (
(65,18,l),
(476,471,l),
(486,530,l),
(18,18,l)
);
},
{
closed = 1;
nodes = (
(523,0,l),
(542,0,o),
(541,-12,o),
(535,-30,cs),
(530,-46,l),
(530,-46,o),
(537,-46,o),
(547,-46,cs),
(557,-46,o),
(563,-46,o),
(563,-46,c),
(572,-19,o),
(583,16,o),
(591,42,cs),
(600,69,o),
(611,104,o),
(619,130,c),
(619,130,o),
(613,130,o),
(602,130,cs),
(593,130,o),
(586,130,o),
(586,130,c),
(581,115,ls),
(574,91,o),
(563,76,o),
(530,76,c)
);
}
);
width = 602;
},
{
layerId = "0E723D17-59BC-4C5E-BFCA-41CEB45896D2";
shapes = (
{
closed = 1;
nodes = (
(367,-220,l),
(406,0,l),
(523,0,ls),
(542,0,o),
(541,-12,o),
(535,-30,cs),
(530,-46,l),
(530,-46,o),
(537,-46,o),
(547,-46,cs),
(557,-46,o),
(563,-46,o),
(563,-46,c),
(568,-31,o),
(573,-16,o),
(578,0,c),
(578,0,l),
(579,3,ls),
(582,13,o),
(584,22,o),
(587,31,cs),
(595,54,o),
(605,84,o),
(612,107,c),
(612,107,o),
(605,107,o),
(595,107,cs),
(585,107,o),
(579,107,o),
(579,107,c),
(574,92,ls),
(567,69,o),
(556,54,o),
(522,54,cs),
(415,54,l),
(477,406,l),
(499,530,l),
(490,530,l),
(17,12,l),
(15,0,l),
(39,0,l),
(336,0,l),
(297,-220,l)
);
},
{
closed = 1;
nodes = (
(407,405,l),
(345,54,l),
(88,54,l)
);
}
);
width = 602;
},
{
layerId = "14257FDA-2614-4218-93F6-F0A118F23CCC";
shapes = (
{
closed = 1;
nodes = (
(367,-220,l),
(472,377,l),
(499,530,l),
(488,530,l),
(386,377,l),
(281,-220,l)
);
},
{
closed = 1;
nodes = (
(589,66,l),
(104,66,l),
(18,15,l),
(15,0,l),
(44,0,l),
(578,0,l)
);
},
{
closed = 1;
nodes = (
(58,15,l),
(479,479,l),
(488,530,l),
(18,15,l)
);
},
{
closed = 1;
nodes = (
(523,0,l),
(542,0,o),
(541,-12,o),
(535,-30,cs),
(530,-46,l),
(530,-46,o),
(537,-46,o),
(547,-46,cs),
(557,-46,o),
(563,-46,o),
(563,-46,c),
(571,-21,o),
(582,12,o),
(589,37,cs),
(597,62,o),
(608,95,o),
(615,120,c),
(616,120,o),
(609,120,o),
(599,120,cs),
(589,120,o),
(583,120,o),
(583,120,c),
(578,104,ls),
(571,81,o),
(560,66,o),
(526,66,c)
);
}
);
width = 602;
},
{
layerId = "BBA8B076-D1F2-4268-BE72-89D7CC5EB943";
shapes = (
{
closed = 1;
nodes = (
(367,-220,l),
(463,325,l),
(499,530,l),
(484,530,l),
(348,325,l),
(252,-220,l)
);
},
{
closed = 1;
nodes = (
(593,88,l),
(134,88,l),
(19,20,l),
(15,0,l),
(54,0,l),
(578,0,l)
);
},
{
closed = 1;
nodes = (
(73,20,l),
(472,462,l),
(484,530,l),
(19,20,l)
);
},
{
closed = 1;
nodes = (
(523,0,l),
(542,0,o),
(541,-12,o),
(535,-30,cs),
(530,-46,l),
(530,-46,o),
(537,-46,o),
(547,-46,cs),
(557,-46,o),
(563,-46,o),
(563,-46,c),
(572,-18,o),
(584,20,o),
(593,48,cs),
(602,76,o),
(614,114,o),
(622,142,c),
(623,142,o),
(616,142,o),
(606,142,cs),
(596,142,o),
(590,142,o),
(590,142,c),
(585,126,ls),
(578,103,o),
(567,88,o),
(533,88,c)
);
}
);
width = 602;
}
);
note = four;
unicode = 52;
},
{
glyphname = five;
lastChange = "2026-03-04 14:02:54 +0000";
layers = (
{
layerId = m01;
shapes = (
{
closed = 1;
nodes = (
(221,-208,o),
(372,-96,o),
(397,47,cs),
(421,180,o),
(318,268,o),
(141,268,cs),
(118,268,l),
(96,223,l),
(104,215,l),
(126,215,ls),
(280,215,o),
(370,141,o),
(350,30,cs),
(327,-101,o),
(195,-202,o),
(20,-223,c),
(19,-232,l)
);
},
{
closed = 1;
nodes = (
(197,500,l),
(96,223,l),
(114,223,l),
(199,455,l),
(412,457,l),
(427,500,l)
);
},
{
closed = 1;
nodes = (
(335,457,l),
(364,457,o),
(384,457,o),
(404,457,c),
(409,457,o),
(412,457,o),
(416,469,o),
(422,486,o),
(426,498,cs),
(431,511,o),
(437,527,o),
(441,540,c),
(435,540,o),
(425,540,cs),
(415,540,o),
(408,540,o),
(405,529,l),
(398,512,o),
(388,500,o),
(358,500,c)
);
}
);
width = 418;
},
{
layerId = "138274BD-2AF4-44A3-9B34-6F786694E642";
shapes = (
{
closed = 1;
nodes = (
(227,-210,o),
(383,-95,o),
(409,51,cs),
(433,189,o),
(327,281,o),
(144,281,cs),
(102,281,l),
(102,281,l),
(57,191,l),
(73,175,l),
(115,176,ls),
(252,176,o),
(332,113,o),
(315,18,cs),
(294,-104,o),
(176,-197,o),
(20,-216,c),
(19,-235,l)
);
},
{
closed = 1;
nodes = (
(164,500,l),
(57,191,l),
(93,191,l),
(168,410,l),
(407,413,l),
(438,500,l)
);
},
{
closed = 1;
nodes = (
(323,413,l),
(352,413,o),
(371,413,o),
(392,413,c),
(392,413,l),
(392,413,o),
(392,413,o),
(392,413,c),
(401,413,o),
(407,413,o),
(407,413,c),
(414,432,o),
(423,458,o),
(430,477,cs),
(436,495,o),
(445,521,o),
(452,540,c),
(452,540,o),
(446,540,o),
(436,540,cs),
(426,540,o),
(419,540,o),
(419,540,c),
(416,529,l),
(409,512,o),
(399,500,o),
(369,500,c)
);
}
);
width = 429;
},
{
layerId = "0E723D17-59BC-4C5E-BFCA-41CEB45896D2";
shapes = (
{
closed = 1;
nodes = (
(223,-209,o),
(376,-96,o),
(402,49,cs),
(425,183,o),
(322,273,o),
(142,273,cs),
(126,273,l),
(185,437,l),
(410,439,l),
(420,467,ls),
(423,476,o),
(425,482,o),
(428,490,cs),
(433,505,o),
(440,525,o),
(445,540,c),
(429,540,ls),
(419,540,o),
(412,540,o),
(413,540,c),
(409,529,ls),
(402,512,o),
(392,500,o),
(363,500,cs),
(183,500,l),
(80,210,l),
(90,199,l),
(121,199,ls),
(269,199,o),
(355,130,o),
(336,25,cs),
(314,-102,o),
(187,-200,o),
(20,-220,c),
(19,-233,l)
);
},
{
closed = 1;
nodes = (
(399,439,l),
(399,439,o),
(399,439,o),
(399,439,c)
);
}
);
width = 423;
},
{
layerId = "14257FDA-2614-4218-93F6-F0A118F23CCC";
shapes = (
{
closed = 1;
nodes = (
(225,-209,o),
(380,-96,o),
(406,50,cs),
(430,186,o),
(325,277,o),
(143,277,cs),
(105,277,l),
(105,277,l),
(67,200,l),
(80,187,l),
(118,187,ls),
(259,187,o),
(342,121,o),
(325,21,cs),
(303,-103,o),
(181,-199,o),
(20,-218,c),
(19,-234,l)
);
},
{
closed = 1;
nodes = (
(172,500,l),
(67,200,l),
(97,200,l),
(175,423,l),
(409,425,l),
(435,500,l)
);
},
{
closed = 1;
nodes = (
(327,425,l),
(355,425,o),
(375,425,o),
(395,425,c),
(395,425,l),
(396,425,o),
(396,425,o),
(395,425,cs),
(403,425,o),
(409,425,o),
(409,425,c),
(415,443,o),
(423,465,o),
(429,483,cs),
(435,500,o),
(443,523,o),
(449,540,c),
(449,540,o),
(443,540,o),
(433,540,cs),
(416,540,l),
(412,529,ls),
(406,512,o),
(396,500,o),
(366,500,c)
);
}
);
width = 426;
},
{
layerId = "BBA8B076-D1F2-4268-BE72-89D7CC5EB943";
shapes = (
{
closed = 1;
nodes = (
(229,-210,o),
(386,-95,o),
(412,53,cs),
(437,192,o),
(330,285,o),
(145,285,cs),
(103,285,l),
(103,285,l),
(52,182,l),
(69,164,l),
(111,164,ls),
(243,164,o),
(320,104,o),
(304,14,cs),
(284,-105,o),
(170,-196,o),
(20,-214,c),
(19,-235,l)
);
},
{
closed = 1;
nodes = (
(160,500,l),
(52,182,l),
(92,182,l),
(164,397,l),
(406,400,l),
(441,500,l)
);
},
{
closed = 1;
nodes = (
(320,400,l),
(348,400,o),
(368,400,o),
(388,400,c),
(388,400,l),
(388,400,o),
(388,400,o),
(388,400,c),
(399,400,o),
(406,400,o),
(406,400,c),
(413,421,o),
(423,449,o),
(431,470,cs),
(438,491,o),
(448,519,o),
(455,540,c),
(439,540,ls),
(429,540,o),
(422,540,o),
(423,540,c),
(419,529,ls),
(412,512,o),
(402,500,o),
(373,500,c)
);
}
);
width = 433;
}
);
note = five;
unicode = 53;
},
{
glyphname = six;
lastChange = "2026-03-04 14:02:54 +0000";
layers = (
{
layerId = m01;
shapes = (
{
closed = 1;
nodes = (
(364,688,o),
(139,503,o),
(100,287,cs),
(69,109,o),
(141,-10,o),
(279,-10,cs),
(409,-10,o),
(513,90,o),
(539,239,cs),
(563,374,o),
(488,464,o),
(352,464,cs),
(244,464,o),
(159,388,o),
(139,275,c),
(146,260,l),
(166,373,o),
(245,449,o),
(344,449,cs),
(453,449,o),
(512,366,o),
(490,242,cs),
(465,99,o),
(380,4,o),
(279,4,cs),
(172,4,o),
(119,106,o),
(146,260,cs),
(187,494,o),
(395,687,o),
(665,743,c),
(664,750,l)
);
}
);
width = 549;
},
{
layerId = "138274BD-2AF4-44A3-9B34-6F786694E642";
shapes = (
{
closed = 1;
nodes = (
(369,687,o),
(139,504,o),
(101,293,cs),
(70,111,o),
(143,-10,o),
(285,-10,cs),
(419,-10,o),
(526,89,o),
(552,239,cs),
(576,376,o),
(508,467,o),
(382,467,cs),
(282,467,o),
(200,388,o),
(179,269,c),
(192,240,l),
(212,359,o),
(282,438,o),
(366,438,cs),
(439,438,o),
(473,360,o),
(453,244,cs),
(429,109,o),
(362,19,o),
(285,19,cs),
(205,19,o),
(168,107,o),
(192,240,cs),
(235,486,o),
(429,684,o),
(678,735,c),
(677,750,l)
);
}
);
width = 563;
},
{
layerId = "0E723D17-59BC-4C5E-BFCA-41CEB45896D2";
shapes = (
{
closed = 1;
nodes = (
(413,-10,o),
(518,90,o),
(544,239,cs),
(568,375,o),
(496,465,o),
(364,465,cs),
(302,465,o),
(247,437,o),
(209,392,c),
(292,566,o),
(462,697,o),
(670,740,c),
(669,750,l),
(366,688,o),
(139,503,o),
(101,289,cs),
(69,110,o),
(142,-10,o),
(282,-10,cs)
);
},
{
closed = 1;
nodes = (
(186,10,o),
(139,107,o),
(164,252,cs),
(185,367,o),
(260,444,o),
(352,444,cs),
(447,444,o),
(496,363,o),
(475,243,cs),
(450,103,o),
(373,10,o),
(281,10,cs)
);
}
);
width = 554;
},
{
layerId = "14257FDA-2614-4218-93F6-F0A118F23CCC";
shapes = (
{
closed = 1;
nodes = (
(368,688,o),
(139,504,o),
(101,291,cs),
(69,111,o),
(142,-10,o),
(284,-10,cs),
(416,-10,o),
(522,90,o),
(548,239,cs),
(572,375,o),
(502,466,o),
(374,466,cs),
(271,466,o),
(189,388,o),
(168,271,c),
(179,246,l),
(199,363,o),
(271,441,o),
(360,441,cs),
(442,441,o),
(484,362,o),
(463,243,cs),
(439,106,o),
(367,15,o),
(283,15,cs),
(196,15,o),
(154,107,o),
(179,246,cs),
(221,488,o),
(419,685,o),
(674,737,c),
(673,750,l)
);
}
);
width = 559;
},
{
layerId = "BBA8B076-D1F2-4268-BE72-89D7CC5EB943";
shapes = (
{
closed = 1;
nodes = (
(370,686,o),
(139,504,o),
(102,295,cs),
(70,112,o),
(144,-10,o),
(287,-10,cs),
(422,-10,o),
(529,89,o),
(555,238,cs),
(580,377,o),
(514,469,o),
(392,469,cs),
(293,469,o),
(213,389,o),
(191,268,c),
(206,234,l),
(227,354,o),
(293,434,o),
(372,434,cs),
(434,434,o),
(461,358,o),
(442,245,cs),
(418,112,o),
(356,23,o),
(287,23,cs),
(215,23,o),
(183,108,o),
(206,234,cs),
(249,484,o),
(440,683,o),
(682,733,c),
(681,750,l)
);
}
);
width = 567;
}
);
note = six;
unicode = 54;
},
{
glyphname = seven;
lastChange = "2026-03-04 14:02:54 +0000";
layers = (
{
layerId = m01;
shapes = (
{
closed = 1;
nodes = (
(114,-220,l),
(518,485,l),
(521,500,l),
(514,500,l),
(168,500,l),
(144,459,l),
(489,459,l),
(518,485,l),
(504,485,l),
(76,-220,l)
);
},
{
closed = 1;
nodes = (
(198,500,o),
(200,510,o),
(209,525,cs),
(217,537,l),
(217,537,o),
(211,537,o),
(201,537,cs),
(191,537,o),
(184,537,o),
(184,537,c),
(172,517,o),
(155,491,o),
(143,471,cs),
(131,451,o),
(114,425,o),
(102,406,c),
(103,406,o),
(109,406,o),
(119,406,cs),
(129,406,o),
(135,406,o),
(135,406,c),
(143,418,ls),
(158,442,o),
(170,459,o),
(180,459,c),
(217,500,l)
);
}
);
width = 437;
},
{
layerId = "138274BD-2AF4-44A3-9B34-6F786694E642";
shapes = (
{
closed = 1;
nodes = (
(144,-220,l),
(529,485,l),
(532,500,l),
(517,500,l),
(168,500,l),
(120,419,l),
(469,419,l),
(529,485,l),
(500,485,l),
(68,-220,l)
);
},
{
closed = 1;
nodes = (
(184,500,o),
(183,510,o),
(192,525,cs),
(200,537,l),
(200,537,o),
(193,537,o),
(183,537,cs),
(174,537,o),
(167,537,o),
(167,537,c),
(151,511,o),
(130,477,o),
(114,451,cs),
(98,425,o),
(76,391,o),
(60,365,c),
(60,365,o),
(67,365,o),
(76,365,cs),
(86,365,o),
(93,365,o),
(93,365,c),
(100,377,ls),
(116,402,o),
(129,419,o),
(138,419,c),
(217,500,l)
);
}
);
width = 448;
},
{
layerId = "0E723D17-59BC-4C5E-BFCA-41CEB45896D2";
shapes = (
{
closed = 1;
nodes = (
(126,-220,l),
(523,485,l),
(525,500,l),
(515,500,l),
(217,500,ls),
(192,500,o),
(193,510,o),
(202,525,cs),
(210,537,l),
(210,537,o),
(204,537,o),
(194,537,cs),
(184,537,o),
(177,537,o),
(177,537,c),
(163,515,o),
(145,485,o),
(131,463,cs),
(117,441,o),
(99,411,o),
(85,389,c),
(85,389,o),
(92,389,o),
(102,389,cs),
(112,389,o),
(118,389,o),
(118,389,c),
(126,401,ls),
(141,426,o),
(154,443,o),
(163,443,cs),
(476,443,l),
(73,-220,l)
);
}
);
width = 442;
},
{
layerId = "14257FDA-2614-4218-93F6-F0A118F23CCC";
shapes = (
{
closed = 1;
nodes = (
(136,-220,l),
(526,485,l),
(529,500,l),
(516,500,l),
(168,500,l),
(126,430,l),
(475,430,l),
(526,485,l),
(501,485,l),
(70,-220,l)
);
},
{
closed = 1;
nodes = (
(187,500,o),
(188,510,o),
(197,525,cs),
(205,537,l),
(204,537,o),
(198,537,o),
(188,537,cs),
(179,537,o),
(172,537,o),
(172,537,c),
(157,513,o),
(137,481,o),
(122,457,cs),
(107,433,o),
(87,401,o),
(72,376,c),
(72,376,o),
(79,376,o),
(88,376,cs),
(98,376,o),
(104,376,o),
(105,376,c),
(112,388,ls),
(127,413,o),
(140,430,o),
(150,430,c),
(217,500,l)
);
}
);
width = 445;
},
{
layerId = "BBA8B076-D1F2-4268-BE72-89D7CC5EB943";
shapes = (
{
closed = 1;
nodes = (
(153,-220,l),
(533,485,l),
(535,500,l),
(518,500,l),
(168,500,l),
(112,406,l),
(463,406,l),
(533,485,l),
(499,485,l),
(65,-220,l)
);
},
{
closed = 1;
nodes = (
(178,500,o),
(178,510,o),
(187,525,cs),
(195,537,l),
(194,537,o),
(188,537,o),
(178,537,cs),
(169,537,o),
(162,537,o),
(162,537,c),
(145,510,o),
(122,473,o),
(105,445,cs),
(88,417,o),
(65,380,o),
(47,353,c),
(48,353,o),
(54,353,o),
(64,353,cs),
(73,353,o),
(80,353,o),
(80,353,c),
(88,365,ls),
(103,390,o),
(115,406,o),
(125,406,c),
(217,500,l)
);
}
);
width = 452;
}
);
note = seven;
unicode = 55;
},
{
glyphname = eight;
lastChange = "2026-03-04 14:02:54 +0000";
layers = (
{
layerId = m01;
shapes = (
{
closed = 1;
nodes = (
(346,396,l),
(467,437,o),
(558,518,o),
(572,597,cs),
(589,695,o),
(521,760,o),
(402,760,cs),
(284,760,o),
(194,689,o),
(175,583,cs),
(159,495,o),
(218,420,o),
(318,375,cs),
(431,325,o),
(503,271,o),
(484,165,cs),
(467,67,o),
(381,2,o),
(270,2,cs),
(163,2,o),
(103,71,o),
(121,174,cs),
(138,269,o),
(216,356,o),
(317,390,c),
(319,402,l),
(191,358,o),
(94,267,o),
(78,174,cs),
(58,64,o),
(134,-10,o),
(268,-10,cs),
(402,-10,o),
(505,69,o),
(527,188,cs),
(547,307,o),
(469,367,o),
(346,421,cs),
(257,461,o),
(205,526,o),
(218,602,cs),
(234,690,o),
(306,748,o),
(400,748,cs),
(493,748,o),
(545,686,o),
(528,593,cs),
(514,513,o),
(442,439,o),
(348,406,c)
);
}
);
width = 533;
},
{
layerId = "138274BD-2AF4-44A3-9B34-6F786694E642";
shapes = (
{
closed = 1;
nodes = (
(339,390,l),
(465,433,o),
(558,516,o),
(573,598,cs),
(590,695,o),
(519,760,o),
(396,760,cs),
(276,760,o),
(183,687,o),
(164,579,cs),
(146,477,o),
(202,395,o),
(299,352,cs),
(399,307,o),
(461,257,o),
(442,149,cs),
(428,68,o),
(358,14,o),
(266,14,cs),
(182,14,o),
(137,78,o),
(154,174,cs),
(171,274,o),
(234,358,o),
(310,384,c),
(314,408,l),
(182,363,o),
(84,269,o),
(67,174,cs),
(47,64,o),
(125,-10,o),
(262,-10,cs),
(399,-10,o),
(505,71,o),
(526,193,cs),
(550,328,o),
(474,390,o),
(353,444,cs),
(279,477,o),
(237,539,o),
(251,616,cs),
(263,688,o),
(320,736,o),
(392,736,cs),
(464,736,o),
(501,677,o),
(486,589,cs),
(471,507,o),
(414,436,o),
(342,412,c)
);
}
);
width = 532;
},
{
layerId = "0E723D17-59BC-4C5E-BFCA-41CEB45896D2";
shapes = (
{
closed = 1;
nodes = (
(401,-10,o),
(505,70,o),
(526,190,cs),
(546,300,o),
(487,362,o),
(388,412,c),
(489,457,o),
(560,528,o),
(572,598,cs),
(589,695,o),
(520,760,o),
(399,760,cs),
(281,760,o),
(189,689,o),
(171,581,cs),
(156,499,o),
(196,432,o),
(272,386,c),
(166,338,o),
(88,257,o),
(73,174,cs),
(54,64,o),
(131,-10,o),
(266,-10,cs)
);
},
{
closed = 1;
nodes = (
(170,6,o),
(117,73,o),
(134,174,cs),
(150,261,o),
(210,340,o),
(288,377,c),
(294,374,o),
(302,370,o),
(311,366,cs),
(418,318,o),
(486,266,o),
(467,159,cs),
(451,67,o),
(371,6,o),
(269,6,cs)
);
},
{
closed = 1;
nodes = (
(364,423,o),
(358,426,o),
(349,430,cs),
(266,467,o),
(218,531,o),
(231,608,cs),
(246,689,o),
(312,744,o),
(397,744,cs),
(482,744,o),
(527,683,o),
(511,591,cs),
(499,521,o),
(445,454,o),
(372,419,c)
);
}
);
width = 532;
},
{
layerId = "14257FDA-2614-4218-93F6-F0A118F23CCC";
shapes = (
{
closed = 1;
nodes = (
(341,392,l),
(465,435,o),
(558,517,o),
(572,598,cs),
(590,695,o),
(520,760,o),
(398,760,cs),
(278,760,o),
(186,688,o),
(167,580,cs),
(150,482,o),
(206,402,o),
(304,358,cs),
(408,313,o),
(473,261,o),
(454,154,cs),
(439,67,o),
(364,10,o),
(267,10,cs),
(176,10,o),
(127,76,o),
(145,174,cs),
(162,273,o),
(229,358,o),
(312,386,c),
(315,406,l),
(185,362,o),
(87,269,o),
(70,174,cs),
(50,64,o),
(128,-10,o),
(264,-10,cs),
(400,-10,o),
(505,71,o),
(526,191,cs),
(550,322,o),
(473,383,o),
(351,438,cs),
(273,473,o),
(228,535,o),
(241,612,cs),
(255,689,o),
(316,740,o),
(394,740,cs),
(472,740,o),
(514,680,o),
(498,590,cs),
(484,509,o),
(422,437,o),
(344,410,c)
);
}
);
width = 532;
},
{
layerId = "BBA8B076-D1F2-4268-BE72-89D7CC5EB943";
shapes = (
{
closed = 1;
nodes = (
(337,389,l),
(464,432,o),
(558,516,o),
(573,599,cs),
(590,695,o),
(518,760,o),
(394,760,cs),
(273,760,o),
(180,687,o),
(161,577,cs),
(142,471,o),
(197,387,o),
(293,345,cs),
(389,302,o),
(449,253,o),
(429,144,cs),
(416,68,o),
(350,17,o),
(265,17,cs),
(188,17,o),
(147,80,o),
(164,174,cs),
(182,276,o),
(239,359,o),
(308,382,c),
(312,410,l),
(180,364,o),
(81,270,o),
(64,174,cs),
(44,64,o),
(123,-10,o),
(260,-10,cs),
(398,-10,o),
(505,72,o),
(526,195,cs),
(551,335,o),
(476,398,o),
(356,451,cs),
(286,482,o),
(247,543,o),
(260,620,cs),
(272,688,o),
(324,733,o),
(389,733,cs),
(455,733,o),
(488,675,o),
(473,588,cs),
(458,505,o),
(405,435,o),
(341,413,c)
);
}
);
width = 531;
}
);
note = eight;
unicode = 56;
},
{
glyphname = nine;
lastChange = "2026-03-04 14:02:54 +0000";
layers = (
{
layerId = m01;
shapes = (
{
closed = 1;
nodes = (
(273,-188,o),
(499,-3,o),
(537,213,cs),
(568,391,o),
(497,510,o),
(358,510,cs),
(228,510,o),
(124,410,o),
(98,261,cs),
(74,126,o),
(149,36,o),
(285,36,cs),
(393,36,o),
(478,112,o),
(498,225,c),
(492,240,l),
(471,127,o),
(392,51,o),
(294,51,cs),
(184,51,o),
(126,134,o),
(147,258,cs),
(173,401,o),
(257,496,o),
(358,496,cs),
(465,496,o),
(519,394,o),
(492,240,cs),
(450,6,o),
(242,-187,o),
(-28,-243,c),
(-27,-250,l)
);
}
);
width = 549;
},
{
layerId = "138274BD-2AF4-44A3-9B34-6F786694E642";
shapes = (
{
closed = 1;
nodes = (
(282,-187,o),
(513,-4,o),
(550,207,cs),
(582,389,o),
(508,510,o),
(366,510,cs),
(232,510,o),
(126,411,o),
(100,261,cs),
(75,124,o),
(143,33,o),
(269,33,cs),
(370,33,o),
(451,112,o),
(472,231,c),
(460,260,l),
(439,141,o),
(369,62,o),
(286,62,cs),
(213,62,o),
(178,140,o),
(199,256,cs),
(222,391,o),
(289,481,o),
(367,481,cs),
(446,481,o),
(483,393,o),
(460,260,cs),
(417,14,o),
(222,-184,o),
(-26,-235,c),
(-25,-250,l)
);
}
);
width = 563;
},
{
layerId = "0E723D17-59BC-4C5E-BFCA-41CEB45896D2";
shapes = (
{
closed = 1;
nodes = (
(277,-188,o),
(504,-3,o),
(542,211,cs),
(574,390,o),
(501,510,o),
(361,510,cs),
(230,510,o),
(125,410,o),
(99,261,cs),
(75,125,o),
(147,35,o),
(279,35,cs),
(341,35,o),
(395,62,o),
(433,107,c),
(350,-66,o),
(181,-197,o),
(-27,-240,c),
(-26,-250,l)
);
},
{
closed = 1;
nodes = (
(196,56,o),
(147,137,o),
(168,257,cs),
(193,397,o),
(270,490,o),
(362,490,cs),
(457,490,o),
(504,393,o),
(479,248,cs),
(458,133,o),
(383,56,o),
(290,56,cs)
);
}
);
width = 554;
},
{
layerId = "14257FDA-2614-4218-93F6-F0A118F23CCC";
shapes = (
{
closed = 1;
nodes = (
(280,-188,o),
(509,-4,o),
(546,209,cs),
(578,389,o),
(505,510,o),
(364,510,cs),
(231,510,o),
(126,410,o),
(99,261,cs),
(75,125,o),
(145,34,o),
(274,34,cs),
(377,34,o),
(459,112,o),
(479,229,c),
(469,254,l),
(448,137,o),
(376,59,o),
(288,59,cs),
(205,59,o),
(163,138,o),
(184,257,cs),
(209,394,o),
(281,485,o),
(364,485,cs),
(452,485,o),
(493,393,o),
(469,254,cs),
(426,12,o),
(228,-185,o),
(-27,-237,c),
(-26,-250,l)
);
}
);
width = 559;
},
{
layerId = "BBA8B076-D1F2-4268-BE72-89D7CC5EB943";
shapes = (
{
closed = 1;
nodes = (
(285,-186,o),
(517,-4,o),
(554,205,cs),
(586,388,o),
(512,510,o),
(368,510,cs),
(234,510,o),
(127,411,o),
(100,262,cs),
(76,123,o),
(142,31,o),
(264,31,cs),
(363,31,o),
(443,111,o),
(464,232,c),
(450,266,l),
(429,146,o),
(362,66,o),
(283,66,cs),
(222,66,o),
(194,142,o),
(214,255,cs),
(238,388,o),
(300,477,o),
(369,477,cs),
(440,477,o),
(473,392,o),
(450,266,cs),
(406,16,o),
(216,-183,o),
(-26,-233,c),
(-25,-250,l)
);
}
);
width = 567;
}
);
note = nine;
unicode = 57;
},
{
glyphname = colon;
lastChange = "2026-03-04 14:02:54 +0000";
layers = (
{
layerId = m01;
shapes = (
{
closed = 1;
nodes = (
(145,-5,o),
(162,9,o),
(166,30,cs),
(169,52,o),
(158,66,o),
(137,66,cs),
(116,66,o),
(99,52,o),
(95,30,cs),
(91,9,o),
(103,-5,o),
(124,-5,cs)
);
},
{
closed = 1;
nodes = (
(223,434,o),
(239,448,o),
(243,470,cs),
(247,491,o),
(235,505,o),
(214,505,cs),
(193,505,o),
(176,491,o),
(173,470,cs),
(169,448,o),
(181,434,o),
(202,434,cs)
);
}
);
width = 225;
},
{
layerId = "138274BD-2AF4-44A3-9B34-6F786694E642";
shapes = (
{
closed = 1;
nodes = (
(167,-5,o),
(200,23,o),
(207,66,cs),
(215,108,o),
(192,136,o),
(149,136,cs),
(106,136,o),
(73,108,o),
(66,66,cs),
(58,23,o),
(82,-5,o),
(124,-5,cs)
);
},
{
closed = 1;
nodes = (
(232,364,o),
(265,392,o),
(272,434,cs),
(280,477,o),
(257,505,o),
(214,505,cs),
(171,505,o),
(138,477,o),
(131,434,cs),
(123,392,o),
(147,364,o),
(189,364,cs)
);
}
);
width = 260;
},
{
layerId = "0E723D17-59BC-4C5E-BFCA-41CEB45896D2";
shapes = (
{
closed = 1;
nodes = (
(226,406,o),
(249,426,o),
(255,456,cs),
(260,485,o),
(243,505,o),
(214,505,cs),
(185,505,o),
(161,485,o),
(156,456,cs),
(151,426,o),
(167,406,o),
(197,406,cs)
);
},
{
closed = 1;
nodes = (
(154,-5,o),
(177,15,o),
(182,44,cs),
(187,74,o),
(171,94,o),
(142,94,cs),
(112,94,o),
(89,74,o),
(83,44,cs),
(78,15,o),
(95,-5,o),
(124,-5,cs)
);
}
);
width = 239;
},
{
layerId = "14257FDA-2614-4218-93F6-F0A118F23CCC";
shapes = (
{
closed = 1;
nodes = (
(161,-5,o),
(189,19,o),
(195,56,cs),
(202,92,o),
(182,116,o),
(146,116,cs),
(109,116,o),
(80,92,o),
(74,56,cs),
(68,19,o),
(88,-5,o),
(124,-5,cs)
);
},
{
closed = 1;
nodes = (
(229,384,o),
(258,408,o),
(264,444,cs),
(271,481,o),
(251,505,o),
(214,505,cs),
(177,505,o),
(149,481,o),
(143,444,cs),
(136,408,o),
(156,384,o),
(193,384,cs)
);
}
);
width = 250;
},
{
layerId = "BBA8B076-D1F2-4268-BE72-89D7CC5EB943";
shapes = (
{
closed = 1;
nodes = (
(172,-5,o),
(210,27,o),
(218,75,cs),
(227,123,o),
(200,155,o),
(152,155,cs),
(104,155,o),
(67,123,o),
(58,75,cs),
(50,27,o),
(76,-5,o),
(124,-5,cs)
);
},
{
closed = 1;
nodes = (
(234,345,o),
(271,377,o),
(280,425,cs),
(288,473,o),
(262,505,o),
(214,505,cs),
(166,505,o),
(128,473,o),
(120,425,cs),
(111,377,o),
(138,345,o),
(186,345,cs)
);
}
);
width = 270;
}
);
note = colon;
unicode = 58;
},
{
glyphname = semicolon;
lastChange = "2026-03-04 14:02:54 +0000";
layers = (
{
layerId = m01;
shapes = (
{
closed = 1;
nodes = (
(160,-5,o),
(177,9,o),
(181,30,cs),
(184,52,o),
(173,66,o),
(152,66,cs),
(131,66,o),
(114,52,o),
(110,30,cs),
(106,9,o),
(118,-5,o),
(139,-5,cs)
);
},
{
closed = 1;
nodes = (
(147,40,l),
(161,40,o),
(168,29,o),
(165,13,cs),
(157,-35,o),
(125,-74,o),
(87,-85,c),
(88,-95,l),
(140,-81,o),
(182,-36,o),
(191,17,cs),
(196,46,o),
(180,66,o),
(152,66,c)
);
},
{
closed = 1;
nodes = (
(214,385,o),
(230,399,o),
(234,420,cs),
(238,442,o),
(226,456,o),
(205,456,cs),
(184,456,o),
(168,442,o),
(164,420,cs),
(160,399,o),
(172,385,o),
(193,385,cs)
);
}
);
width = 245;
},
{
layerId = "138274BD-2AF4-44A3-9B34-6F786694E642";
shapes = (
{
closed = 1;
nodes = (
(182,-5,o),
(215,23,o),
(222,66,cs),
(230,108,o),
(207,136,o),
(164,136,cs),
(121,136,o),
(88,108,o),
(81,66,cs),
(73,23,o),
(97,-5,o),
(139,-5,cs)
);
},
{
closed = 1;
nodes = (
(155,86,l),
(184,86,o),
(198,56,o),
(190,11,cs),
(179,-51,o),
(120,-106,o),
(42,-128,c),
(44,-145,l),
(147,-117,o),
(224,-51,o),
(237,19,cs),
(249,89,o),
(220,136,o),
(164,136,c)
);
},
{
closed = 1;
nodes = (
(235,385,o),
(269,413,o),
(276,456,cs),
(284,498,o),
(260,526,o),
(218,526,cs),
(175,526,o),
(142,498,o),
(135,456,cs),
(127,413,o),
(150,385,o),
(193,385,cs)
);
}
);
width = 280;
},
{
layerId = "0E723D17-59BC-4C5E-BFCA-41CEB45896D2";
shapes = (
{
closed = 1;
nodes = (
(144,-95,o),
(200,-42,o),
(210,18,cs),
(218,64,o),
(196,94,o),
(157,94,c),
(157,94,o),
(157,94,o),
(157,94,c),
(127,94,o),
(104,74,o),
(98,44,cs),
(93,15,o),
(110,-5,o),
(139,-5,cs),
(152,-5,o),
(164,-1,o),
(173,5,c),
(161,-46,o),
(120,-87,o),
(69,-101,c),
(70,-115,l)
);
},
{
closed = 1;
nodes = (
(222,385,o),
(246,405,o),
(251,434,cs),
(256,464,o),
(240,484,o),
(210,484,cs),
(181,484,o),
(158,464,o),
(152,434,cs),
(147,405,o),
(163,385,o),
(193,385,cs)
);
}
);
width = 259;
},
{
layerId = "14257FDA-2614-4218-93F6-F0A118F23CCC";
shapes = (
{
closed = 1;
nodes = (
(176,-5,o),
(204,19,o),
(210,56,cs),
(217,92,o),
(197,116,o),
(161,116,cs),
(124,116,o),
(95,92,o),
(89,56,cs),
(83,19,o),
(103,-5,o),
(139,-5,cs)
);
},
{
closed = 1;
nodes = (
(153,73,l),
(176,73,o),
(188,48,o),
(181,11,cs),
(171,-46,o),
(120,-96,o),
(54,-114,c),
(56,-131,l),
(146,-106,o),
(214,-46,o),
(225,19,cs),
(236,77,o),
(210,116,o),
(161,116,c)
);
},
{
closed = 1;
nodes = (
(229,385,o),
(258,409,o),
(264,446,cs),
(271,482,o),
(251,506,o),
(214,506,cs),
(178,506,o),
(149,482,o),
(143,446,cs),
(136,409,o),
(156,385,o),
(193,385,cs)
);
}
);
width = 270;
},
{
layerId = "BBA8B076-D1F2-4268-BE72-89D7CC5EB943";
shapes = (
{
closed = 1;
nodes = (
(187,-5,o),
(225,27,o),
(233,75,cs),
(242,123,o),
(215,155,o),
(167,155,cs),
(119,155,o),
(82,123,o),
(73,75,cs),
(65,27,o),
(91,-5,o),
(139,-5,cs)
);
},
{
closed = 1;
nodes = (
(157,97,l),
(190,97,o),
(206,62,o),
(197,11,cs),
(185,-57,o),
(118,-118,o),
(30,-143,c),
(32,-160,l),
(148,-128,o),
(235,-56,o),
(248,19,cs),
(263,101,o),
(230,155,o),
(167,155,c)
);
},
{
closed = 1;
nodes = (
(241,385,o),
(279,417,o),
(287,465,cs),
(295,513,o),
(269,545,o),
(221,545,cs),
(173,545,o),
(135,513,o),
(127,465,cs),
(119,417,o),
(145,385,o),
(193,385,cs)
);
}
);
width = 290;
}
);
note = semicolon;
unicode = 59;
},
{
glyphname = equal;
lastChange = "2026-03-04 14:02:54 +0000";
layers = (
{
layerId = m01;
shapes = (
{
closed = 1;
nodes = (
(129,289,l),
(500,289,l),
(503,311,l),
(133,311,l)
);
},
{
closed = 1;
nodes = (
(111,189,l),
(482,189,l),
(486,211,l),
(115,211,l)
);
}
);
width = 518;
},
{
layerId = "138274BD-2AF4-44A3-9B34-6F786694E642";
shapes = (
{
closed = 1;
nodes = (
(135,278,l),
(505,278,l),
(513,322,l),
(142,322,l)
);
},
{
closed = 1;
nodes = (
(117,178,l),
(488,178,l),
(496,222,l),
(125,222,l)
);
}
);
width = 526;
},
{
layerId = "0E723D17-59BC-4C5E-BFCA-41CEB45896D2";
shapes = (
{
closed = 1;
nodes = (
(484,184,l),
(490,216,l),
(119,216,l),
(113,184,l)
);
},
{
closed = 1;
nodes = (
(502,284,l),
(507,316,l),
(137,316,l),
(131,284,l)
);
}
);
width = 521;
},
{
layerId = "14257FDA-2614-4218-93F6-F0A118F23CCC";
shapes = (
{
closed = 1;
nodes = (
(133,281,l),
(504,281,l),
(510,319,l),
(140,319,l)
);
},
{
closed = 1;
nodes = (
(115,181,l),
(486,181,l),
(493,219,l),
(122,219,l)
);
}
);
width = 524;
},
{
layerId = "BBA8B076-D1F2-4268-BE72-89D7CC5EB943";
shapes = (
{
closed = 1;
nodes = (
(136,274,l),
(507,274,l),
(516,326,l),
(145,326,l)
);
},
{
closed = 1;
nodes = (
(119,174,l),
(489,174,l),
(498,226,l),
(128,226,l)
);
}
);
width = 528;
}
);
note = equal;
unicode = 61;
},
{
glyphname = question;
lastChange = "2026-03-04 14:02:54 +0000";
layers = (
{
layerId = m01;
shapes = (
{
closed = 1;
nodes = (
(251,760,o),
(229,745,o),
(225,723,cs),
(223,708,o),
(232,698,o),
(248,698,cs),
(260,698,o),
(276,707,o),
(288,707,c),
(279,760,l)
);
},
{
closed = 1;
nodes = (
(188,360,l),
(273,360,o),
(314,397,o),
(361,453,cs),
(382,478,o),
(401,518,o),
(407,553,cs),
(429,677,o),
(377,760,o),
(279,760,c),
(288,707,l),
(367,707,o),
(408,643,o),
(391,547,cs),
(388,527,o),
(373,498,o),
(354,476,cs),
(320,437,o),
(286,410,o),
(180,410,c),
(143,175,l),
(152,175,l)
);
},
{
closed = 1;
nodes = (
(145,-5,o),
(162,9,o),
(166,30,cs),
(169,52,o),
(158,66,o),
(137,66,cs),
(116,66,o),
(99,52,o),
(95,30,cs),
(91,9,o),
(103,-5,o),
(124,-5,cs)
);
}
);
width = 304;
},
{
layerId = "138274BD-2AF4-44A3-9B34-6F786694E642";
shapes = (
{
closed = 1;
nodes = (
(223,760,o),
(180,730,o),
(172,686,cs),
(167,657,o),
(185,637,o),
(217,637,cs),
(241,637,o),
(272,654,o),
(297,654,c),
(279,760,l)
);
},
{
closed = 1;
nodes = (
(188,360,l),
(285,360,o),
(323,392,o),
(364,441,cs),
(387,467,o),
(407,513,o),
(415,556,cs),
(437,678,o),
(382,760,o),
(279,760,c),
(297,654,l),
(360,654,o),
(395,610,o),
(383,544,cs),
(381,531,o),
(368,509,o),
(350,488,cs),
(326,459,o),
(296,440,o),
(175,440,c),
(148,225,l),
(165,225,l)
);
},
{
closed = 1;
nodes = (
(167,-5,o),
(200,23,o),
(207,66,cs),
(215,108,o),
(192,136,o),
(149,136,cs),
(106,136,o),
(73,108,o),
(66,66,cs),
(58,23,o),
(82,-5,o),
(124,-5,cs)
);
}
);
width = 297;
},
{
layerId = "0E723D17-59BC-4C5E-BFCA-41CEB45896D2";
shapes = (
{
closed = 1;
nodes = (
(158,195,l),
(188,360,l),
(278,360,o),
(317,395,o),
(362,448,cs),
(384,474,o),
(403,516,o),
(410,554,cs),
(432,678,o),
(379,760,o),
(279,760,cs),
(239,760,o),
(209,739,o),
(204,708,cs),
(200,688,o),
(213,674,o),
(236,674,cs),
(253,674,o),
(274,686,o),
(291,686,cs),
(364,686,o),
(403,630,o),
(388,546,cs),
(385,529,o),
(371,503,o),
(352,481,cs),
(326,451,o),
(296,430,o),
(177,430,c),
(145,195,l)
);
},
{
closed = 1;
nodes = (
(154,-5,o),
(177,15,o),
(182,44,cs),
(187,74,o),
(171,94,o),
(142,94,cs),
(112,94,o),
(89,74,o),
(83,44,cs),
(78,15,o),
(95,-5,o),
(124,-5,cs)
);
}
);
width = 301;
},
{
layerId = "14257FDA-2614-4218-93F6-F0A118F23CCC";
shapes = (
{
closed = 1;
nodes = (
(230,760,o),
(194,735,o),
(187,696,cs),
(182,671,o),
(198,654,o),
(226,654,cs),
(247,654,o),
(274,669,o),
(294,669,c),
(279,760,l)
);
},
{
closed = 1;
nodes = (
(188,360,l),
(282,360,o),
(321,394,o),
(363,444,cs),
(386,470,o),
(406,515,o),
(413,555,cs),
(434,678,o),
(381,760,o),
(279,760,c),
(294,669,l),
(362,669,o),
(398,619,o),
(385,545,cs),
(383,530,o),
(369,506,o),
(351,485,cs),
(329,458,o),
(300,440,o),
(175,440,c),
(147,211,l),
(162,211,l)
);
},
{
closed = 1;
nodes = (
(161,-5,o),
(189,19,o),
(195,56,cs),
(202,92,o),
(182,116,o),
(146,116,cs),
(109,116,o),
(80,92,o),
(74,56,cs),
(68,19,o),
(88,-5,o),
(124,-5,cs)
);
}
);
width = 299;
},
{
layerId = "BBA8B076-D1F2-4268-BE72-89D7CC5EB943";
shapes = (
{
closed = 1;
nodes = (
(214,760,o),
(165,726,o),
(156,675,cs),
(150,641,o),
(171,618,o),
(208,618,cs),
(236,618,o),
(272,638,o),
(299,638,c),
(279,760,l)
);
},
{
closed = 1;
nodes = (
(188,360,l),
(288,360,o),
(326,391,o),
(365,437,cs),
(389,464,o),
(409,512,o),
(417,557,cs),
(439,679,o),
(383,760,o),
(279,760,c),
(299,638,l),
(358,638,o),
(391,600,o),
(381,543,cs),
(379,532,o),
(366,512,o),
(349,492,cs),
(323,461,o),
(293,440,o),
(175,440,c),
(149,240,l),
(169,240,l)
);
},
{
closed = 1;
nodes = (
(172,-5,o),
(210,27,o),
(218,75,cs),
(227,123,o),
(200,155,o),
(152,155,cs),
(104,155,o),
(67,123,o),
(58,75,cs),
(50,27,o),
(76,-5,o),
(124,-5,cs)
);
}
);
width = 295;
}
);
note = question;
unicode = 63;
},
{
glyphname = arobase;
lastChange = "2026-03-04 14:02:54 +0000";
layers = (
{
layerId = m01;
shapes = (
{
closed = 1;
nodes = (
(938,-143,o),
(738,-239,o),
(529,-239,cs),
(243,-239,o),
(87,-40,o),
(140,259,cs),
(192,558,o),
(415,757,o),
(696,757,cs),
(978,757,o),
(1136,591,o),
(1092,343,cs),
(1057,140,o),
(956,4,o),
(841,4,cs),
(722,4,o),
(676,82,o),
(726,200,cs),
(846,480,l),
(799,480,l),
(679,200,ls),
(625,72,o),
(685,-13,o),
(829,-13,cs),
(973,-13,o),
(1094,129,o),
(1131,343,cs),
(1177,599,o),
(1004,770,o),
(699,770,cs),
(394,770,o),
(155,566,o),
(101,259,cs),
(47,-48,o),
(217,-252,o),
(526,-252,cs),
(741,-252,o),
(950,-151,o),
(1047,0,c),
(1030,0,l)
);
},
{
closed = 1;
nodes = (
(770,437,o),
(729,490,o),
(654,490,cs),
(490,490,o),
(360,373,o),
(329,197,cs),
(309,87,o),
(364,13,o),
(465,13,cs),
(555,13,o),
(644,83,o),
(688,188,c),
(679,200,l),
(638,105,o),
(565,41,o),
(496,41,cs),
(412,41,o),
(368,107,o),
(385,207,cs),
(414,368,o),
(520,476,o),
(650,476,cs),
(720,476,o),
(758,428,o),
(745,355,c),
(757,358,l)
);
}
);
width = 1125;
},
{
layerId = "138274BD-2AF4-44A3-9B34-6F786694E642";
shapes = (
{
closed = 1;
nodes = (
(936,-141,o),
(747,-235,o),
(555,-235,cs),
(277,-235,o),
(127,-37,o),
(179,259,cs),
(231,555,o),
(444,753,o),
(711,753,cs),
(977,753,o),
(1126,589,o),
(1083,343,cs),
(1047,143,o),
(953,9,o),
(847,9,cs),
(763,9,o),
(739,85,o),
(788,200,cs),
(908,480,l),
(813,480,l),
(694,200,ls),
(636,64,o),
(687,-26,o),
(822,-26,cs),
(986,-26,o),
(1121,122,o),
(1161,343,cs),
(1207,606,o),
(1029,781,o),
(716,781,cs),
(402,781,o),
(157,572,o),
(101,259,cs),
(46,-54,o),
(226,-263,o),
(550,-263,cs),
(754,-263,o),
(958,-158,o),
(1060,0,c),
(1026,0,l)
);
},
{
closed = 1;
nodes = (
(796,438,o),
(751,490,o),
(669,490,cs),
(489,490,o),
(347,370,o),
(315,190,cs),
(296,80,o),
(353,6,o),
(459,6,cs),
(567,6,o),
(668,73,o),
(711,175,c),
(694,200,l),
(658,117,o),
(589,61,o),
(520,61,cs),
(449,61,o),
(412,120,o),
(428,209,cs),
(455,361,o),
(548,462,o),
(662,462,cs),
(732,462,o),
(771,419,o),
(760,355,c),
(782,361,l)
);
}
);
width = 1155;
},
{
layerId = "0E723D17-59BC-4C5E-BFCA-41CEB45896D2";
shapes = (
{
closed = 1;
nodes = (
(746,-257,o),
(953,-154,o),
(1052,0,c),
(1029,0,l),
(937,-142,o),
(741,-237,o),
(539,-237,cs),
(257,-237,o),
(103,-39,o),
(156,259,cs),
(208,557,o),
(427,755,o),
(702,755,cs),
(978,755,o),
(1132,590,o),
(1088,343,cs),
(1053,141,o),
(955,6,o),
(843,6,cs),
(738,6,o),
(701,84,o),
(751,200,cs),
(871,480,l),
(804,480,l),
(769,398,l),
(765,454,o),
(724,490,o),
(660,490,cs),
(489,490,o),
(355,372,o),
(324,194,cs),
(304,84,o),
(359,10,o),
(462,10,cs),
(539,10,o),
(614,54,o),
(664,124,c),
(657,37,o),
(715,-18,o),
(826,-18,cs),
(978,-18,o),
(1104,126,o),
(1143,343,cs),
(1188,602,o),
(1013,775,o),
(705,775,cs),
(397,775,o),
(155,569,o),
(101,259,cs),
(46,-51,o),
(220,-257,o),
(536,-257,cs)
);
},
{
closed = 1;
nodes = (
(427,49,o),
(386,112,o),
(403,208,cs),
(430,366,o),
(531,471,o),
(655,471,cs),
(725,471,o),
(764,426,o),
(751,356,c),
(685,200,ls),
(646,109,o),
(574,49,o),
(505,49,cs)
);
}
);
width = 1137;
},
{
layerId = "14257FDA-2614-4218-93F6-F0A118F23CCC";
shapes = (
{
closed = 1;
nodes = (
(936,-142,o),
(744,-236,o),
(548,-236,cs),
(267,-236,o),
(115,-38,o),
(168,259,cs),
(220,556,o),
(436,754,o),
(707,754,cs),
(977,754,o),
(1129,590,o),
(1085,343,cs),
(1050,141,o),
(954,7,o),
(845,7,cs),
(751,7,o),
(721,84,o),
(771,200,cs),
(890,480,l),
(809,480,l),
(690,200,ls),
(633,67,o),
(687,-22,o),
(824,-22,cs),
(983,-22,o),
(1114,124,o),
(1152,343,cs),
(1198,604,o),
(1022,778,o),
(711,778,cs),
(400,778,o),
(156,570,o),
(101,259,cs),
(46,-52,o),
(223,-260,o),
(543,-260,cs),
(751,-260,o),
(956,-156,o),
(1056,0,c),
(1028,0,l)
);
},
{
closed = 1;
nodes = (
(789,438,o),
(745,490,o),
(665,490,cs),
(489,490,o),
(351,371,o),
(319,192,cs),
(300,82,o),
(356,8,o),
(460,8,cs),
(564,8,o),
(661,76,o),
(705,178,c),
(690,200,l),
(653,114,o),
(582,56,o),
(513,56,cs),
(439,56,o),
(400,117,o),
(416,208,cs),
(443,363,o),
(540,466,o),
(659,466,cs),
(729,466,o),
(767,422,o),
(756,355,c),
(775,360,l)
);
}
);
width = 1146;
},
{
layerId = "BBA8B076-D1F2-4268-BE72-89D7CC5EB943";
shapes = (
{
closed = 1;
nodes = (
(935,-140,o),
(750,-234,o),
(563,-234,cs),
(287,-234,o),
(139,-37,o),
(191,259,cs),
(243,555,o),
(453,752,o),
(715,752,cs),
(977,752,o),
(1123,588,o),
(1080,343,cs),
(1044,143,o),
(952,10,o),
(848,10,cs),
(775,10,o),
(758,86,o),
(807,200,cs),
(926,480,l),
(818,480,l),
(698,200,ls),
(640,62,o),
(689,-30,o),
(820,-30,cs),
(990,-30,o),
(1130,119,o),
(1169,343,cs),
(1216,608,o),
(1037,784,o),
(721,784,cs),
(405,784,o),
(157,574,o),
(101,259,cs),
(46,-56,o),
(228,-266,o),
(557,-266,cs),
(759,-266,o),
(961,-160,o),
(1064,0,c),
(1025,0,l)
);
},
{
closed = 1;
nodes = (
(804,439,o),
(757,490,o),
(673,490,cs),
(488,490,o),
(343,369,o),
(311,188,cs),
(292,77,o),
(350,4,o),
(457,4,cs),
(571,4,o),
(675,71,o),
(717,170,c),
(698,200,l),
(665,121,o),
(596,68,o),
(527,68,cs),
(460,68,o),
(426,125,o),
(441,210,cs),
(467,359,o),
(557,458,o),
(665,458,cs),
(736,458,o),
(775,417,o),
(764,355,c),
(790,362,l)
);
}
);
width = 1163;
}
);
note = arobase;
unicode = 64;
},
{
glyphname = bracketleft;
lastChange = "2026-03-04 14:02:54 +0000";
layers = (
{
layerId = m01;
shapes = (
{
closed = 1;
nodes = (
(73,-195,l),
(91,-195,l),
(257,750,l),
(240,750,l)
);
},
{
closed = 1;
nodes = (
(255,735,l),
(465,735,l),
(467,750,l),
(257,750,l)
);
},
{
closed = 1;
nodes = (
(91,-195,l),
(301,-195,l),
(303,-180,l),
(93,-180,l)
);
}
);
width = 285;
},
{
layerId = "138274BD-2AF4-44A3-9B34-6F786694E642";
shapes = (
{
closed = 1;
nodes = (
(69,-195,l),
(104,-195,l),
(271,750,l),
(235,750,l)
);
},
{
closed = 1;
nodes = (
(266,721,l),
(476,721,l),
(481,750,l),
(271,750,l)
);
},
{
closed = 1;
nodes = (
(104,-195,l),
(314,-195,l),
(319,-166,l),
(109,-166,l)
);
}
);
width = 298;
},
{
layerId = "0E723D17-59BC-4C5E-BFCA-41CEB45896D2";
shapes = (
{
closed = 1;
nodes = (
(96,-195,l),
(259,729,l),
(469,729,l),
(473,750,l),
(263,750,l),
(238,750,l),
(71,-195,l)
);
},
{
closed = 1;
nodes = (
(306,-195,l),
(310,-174,l),
(100,-174,l),
(96,-195,l)
);
}
);
width = 290;
},
{
layerId = "14257FDA-2614-4218-93F6-F0A118F23CCC";
shapes = (
{
closed = 1;
nodes = (
(70,-195,l),
(100,-195,l),
(267,750,l),
(237,750,l)
);
},
{
closed = 1;
nodes = (
(263,725,l),
(473,725,l),
(477,750,l),
(267,750,l)
);
},
{
closed = 1;
nodes = (
(100,-195,l),
(310,-195,l),
(315,-170,l),
(105,-170,l)
);
}
);
width = 294;
},
{
layerId = "BBA8B076-D1F2-4268-BE72-89D7CC5EB943";
shapes = (
{
closed = 1;
nodes = (
(67,-195,l),
(108,-195,l),
(275,750,l),
(234,750,l)
);
},
{
closed = 1;
nodes = (
(269,716,l),
(479,716,l),
(485,750,l),
(275,750,l)
);
},
{
closed = 1;
nodes = (
(108,-195,l),
(318,-195,l),
(324,-161,l),
(114,-161,l)
);
}
);
width = 302;
}
);
note = bracketleft;
unicode = 91;
},
{
glyphname = backslash;
lastChange = "2026-03-04 14:02:54 +0000";
layers = (
{
layerId = m01;
shapes = (
{
closed = 1;
nodes = (
(283,-80,l),
(313,-80,l),
(202,770,l),
(173,770,l)
);
}
);
width = 336;
},
{
layerId = "138274BD-2AF4-44A3-9B34-6F786694E642";
shapes = (
{
closed = 1;
nodes = (
(268,-80,l),
(327,-80,l),
(217,770,l),
(158,770,l)
);
}
);
width = 351;
},
{
layerId = "0E723D17-59BC-4C5E-BFCA-41CEB45896D2";
shapes = (
{
closed = 1;
nodes = (
(318,-80,l),
(208,770,l),
(167,770,l),
(277,-80,l)
);
}
);
width = 342;
},
{
layerId = "14257FDA-2614-4218-93F6-F0A118F23CCC";
shapes = (
{
closed = 1;
nodes = (
(273,-80,l),
(323,-80,l),
(213,770,l),
(163,770,l)
);
}
);
width = 347;
},
{
layerId = "BBA8B076-D1F2-4268-BE72-89D7CC5EB943";
shapes = (
{
closed = 1;
nodes = (
(264,-80,l),
(332,-80,l),
(222,770,l),
(154,770,l)
);
}
);
width = 355;
}
);
note = backslash;
unicode = 92;
},
{
glyphname = bracketright;
lastChange = "2026-03-04 14:02:54 +0000";
layers = (
{
layerId = m01;
shapes = (
{
closed = 1;
nodes = (
(126,-195,l),
(144,-195,l),
(310,750,l),
(293,750,l)
);
},
{
closed = 1;
nodes = (
(83,750,l),
(80,735,l),
(290,735,l),
(293,750,l)
);
},
{
closed = 1;
nodes = (
(-81,-180,l),
(-84,-195,l),
(126,-195,l),
(129,-180,l)
);
}
);
width = 288;
},
{
layerId = "138274BD-2AF4-44A3-9B34-6F786694E642";
shapes = (
{
closed = 1;
nodes = (
(122,-195,l),
(157,-195,l),
(324,750,l),
(288,750,l)
);
},
{
closed = 1;
nodes = (
(78,750,l),
(73,721,l),
(283,721,l),
(288,750,l)
);
},
{
closed = 1;
nodes = (
(-83,-166,l),
(-88,-195,l),
(122,-195,l),
(127,-166,l)
);
}
);
width = 301;
},
{
layerId = "0E723D17-59BC-4C5E-BFCA-41CEB45896D2";
shapes = (
{
closed = 1;
nodes = (
(124,-195,l),
(149,-195,l),
(316,750,l),
(291,750,l),
(128,-174,l),
(-82,-174,l),
(-86,-195,l)
);
},
{
closed = 1;
nodes = (
(287,729,l),
(291,750,l),
(81,750,l),
(77,729,l)
);
}
);
width = 293;
},
{
layerId = "14257FDA-2614-4218-93F6-F0A118F23CCC";
shapes = (
{
closed = 1;
nodes = (
(123,-195,l),
(153,-195,l),
(320,750,l),
(290,750,l)
);
},
{
closed = 1;
nodes = (
(80,750,l),
(75,725,l),
(285,725,l),
(290,750,l)
);
},
{
closed = 1;
nodes = (
(-83,-170,l),
(-87,-195,l),
(123,-195,l),
(127,-170,l)
);
}
);
width = 297;
},
{
layerId = "BBA8B076-D1F2-4268-BE72-89D7CC5EB943";
shapes = (
{
closed = 1;
nodes = (
(120,-195,l),
(161,-195,l),
(328,750,l),
(287,750,l)
);
},
{
closed = 1;
nodes = (
(77,750,l),
(71,716,l),
(281,716,l),
(287,750,l)
);
},
{
closed = 1;
nodes = (
(-84,-161,l),
(-90,-195,l),
(120,-195,l),
(126,-161,l)
);
}
);
width = 305;
}
);
note = bracketright;
unicode = 93;
},
{
glyphname = asciicircum;
lastChange = "2026-03-04 14:02:54 +0000";
layers = (
{
layerId = m01;
shapes = (
{
closed = 1;
nodes = (
(182,747,l),
(182,764,l),
(178,770,o),
(169,782,o),
(164,782,cs),
(159,782,o),
(150,770,o),
(147,765,c),
(147,747,l)
);
},
{
closed = 1;
nodes = (
(147,765,l),
(15,563,l),
(22,557,l),
(182,747,l)
);
},
{
closed = 1;
nodes = (
(313,563,l),
(182,764,l),
(147,747,l),
(307,557,l)
);
}
);
width = 328;
},
{
layerId = "138274BD-2AF4-44A3-9B34-6F786694E642";
shapes = (
{
closed = 1;
nodes = (
(199,714,l),
(200,750,l),
(193,761,o),
(176,786,o),
(164,786,cs),
(153,786,o),
(136,761,o),
(129,750,c),
(129,715,l)
);
},
{
closed = 1;
nodes = (
(129,750,l),
(11,566,l),
(25,555,l),
(199,714,l)
);
},
{
closed = 1;
nodes = (
(317,566,l),
(200,750,l),
(129,715,l),
(304,555,l)
);
}
);
width = 328;
},
{
layerId = "0E723D17-59BC-4C5E-BFCA-41CEB45896D2";
shapes = (
{
closed = 1;
nodes = (
(164,707,l),
(305,556,l),
(315,564,l),
(189,759,ls),
(184,766,o),
(172,784,o),
(164,784,cs),
(157,784,o),
(145,766,o),
(140,759,cs),
(14,564,l),
(23,556,l)
);
}
);
width = 328;
},
{
layerId = "14257FDA-2614-4218-93F6-F0A118F23CCC";
shapes = (
{
closed = 1;
nodes = (
(194,724,l),
(195,754,l),
(189,763,o),
(174,785,o),
(164,785,cs),
(155,785,o),
(140,764,o),
(134,754,c),
(134,724,l)
);
},
{
closed = 1;
nodes = (
(134,754,l),
(12,565,l),
(24,555,l),
(194,724,l)
);
},
{
closed = 1;
nodes = (
(316,565,l),
(195,754,l),
(134,724,l),
(305,555,l)
);
}
);
width = 328;
},
{
layerId = "BBA8B076-D1F2-4268-BE72-89D7CC5EB943";
shapes = (
{
closed = 1;
nodes = (
(205,705,l),
(205,745,l),
(197,757,o),
(178,786,o),
(164,786,cs),
(151,786,o),
(132,758,o),
(124,746,c),
(124,705,l)
);
},
{
closed = 1;
nodes = (
(124,746,l),
(10,567,l),
(25,554,l),
(205,705,l)
);
},
{
closed = 1;
nodes = (
(319,567,l),
(205,745,l),
(124,705,l),
(303,554,l)
);
}
);
width = 328;
}
);
note = asciicircum;
unicode = 94;
},
{
glyphname = underscore;
lastChange = "2026-03-04 14:02:54 +0000";
layers = (
{
layerId = m01;
shapes = (
{
closed = 1;
nodes = (
(-9,-78,l),
(416,-78,l),
(421,-50,l),
(-4,-50,l)
);
}
);
width = 434;
},
{
layerId = "138274BD-2AF4-44A3-9B34-6F786694E642";
shapes = (
{
closed = 1;
nodes = (
(-14,-106,l),
(411,-106,l),
(421,-50,l),
(-4,-50,l)
);
}
);
width = 434;
},
{
layerId = "0E723D17-59BC-4C5E-BFCA-41CEB45896D2";
shapes = (
{
closed = 1;
nodes = (
(414,-89,l),
(421,-50,l),
(-4,-50,l),
(-11,-89,l)
);
}
);
width = 434;
},
{
layerId = "14257FDA-2614-4218-93F6-F0A118F23CCC";
shapes = (
{
closed = 1;
nodes = (
(-12,-98,l),
(412,-98,l),
(421,-50,l),
(-4,-50,l)
);
}
);
width = 434;
},
{
layerId = "BBA8B076-D1F2-4268-BE72-89D7CC5EB943";
shapes = (
{
closed = 1;
nodes = (
(-15,-114,l),
(409,-114,l),
(421,-50,l),
(-4,-50,l)
);
}
);
width = 434;
}
);
note = underscore;
unicode = 95;
},
{
glyphname = grave_glyph;
lastChange = "2026-03-04 14:02:54 +0000";
layers = (
{
layerId = m01;
shapes = (
{
closed = 1;
nodes = (
(51,709,l),
(15,751,o),
(-11,779,o),
(-17,779,cs),
(-30,779,o),
(-42,767,o),
(-42,754,cs),
(-42,748,o),
(-14,722,o),
(29,686,c)
);
},
{
closed = 1;
nodes = (
(174,569,l),
(51,709,l),
(29,686,l),
(168,563,l)
);
},
{
closed = 1;
nodes = (
(-17,779,l),
(-42,754,l)
);
}
);
width = 328;
},
{
layerId = "138274BD-2AF4-44A3-9B34-6F786694E642";
shapes = (
{
closed = 1;
nodes = (
(69,726,l),
(41,765,o),
(19,791,o),
(11,791,cs),
(-16,791,o),
(-39,768,o),
(-39,741,cs),
(-39,733,o),
(-14,710,o),
(23,680,c)
);
},
{
closed = 1;
nodes = (
(179,574,l),
(69,726,l),
(23,680,l),
(166,561,l)
);
},
{
closed = 1;
nodes = (
(11,791,l),
(-39,741,l)
);
}
);
width = 328;
},
{
layerId = "0E723D17-59BC-4C5E-BFCA-41CEB45896D2";
shapes = (
{
closed = 1;
nodes = (
(176,571,l),
(58,715,ls),
(26,757,o),
(1,784,o),
(-5,784,cs),
(-24,784,o),
(-40,768,o),
(-40,749,cs),
(-40,742,o),
(-14,717,o),
(26,683,cs),
(167,562,l)
);
}
);
width = 328;
},
{
layerId = "14257FDA-2614-4218-93F6-F0A118F23CCC";
shapes = (
{
closed = 1;
nodes = (
(64,721,l),
(34,761,o),
(11,788,o),
(3,788,cs),
(-19,788,o),
(-39,768,o),
(-39,745,cs),
(-39,737,o),
(-14,713,o),
(24,682,c)
);
},
{
closed = 1;
nodes = (
(177,572,l),
(64,721,l),
(24,682,l),
(167,562,l)
);
},
{
closed = 1;
nodes = (
(3,788,l),
(-39,745,l)
);
}
);
width = 328;
},
{
layerId = "BBA8B076-D1F2-4268-BE72-89D7CC5EB943";
shapes = (
{
closed = 1;
nodes = (
(74,731,l),
(48,769,o),
(28,795,o),
(19,795,cs),
(-12,795,o),
(-38,769,o),
(-38,738,cs),
(-38,729,o),
(-14,706,o),
(21,678,c)
);
},
{
closed = 1;
nodes = (
(180,575,l),
(74,731,l),
(21,678,l),
(166,561,l)
);
},
{
closed = 1;
nodes = (
(19,795,l),
(-38,738,l)
);
}
);
width = 328;
}
);
note = grave_glyph;
unicode = 96;
},
{
glyphname = a;
lastChange = "2026-03-04 14:02:54 +0000";
layers = (
{
anchors = (
{
name = bottom;
pos = (247,0);
},
{
name = ogonek;
pos = (445,10);
},
{
name = top;
pos = (247,500);
}
);
layerId = m01;
shapes = (
{
closed = 1;
nodes = (
(124,337,o),
(132,323,o),
(147,323,cs),
(167,323,o),
(183,338,o),
(184,348,cs),
(187,364,o),
(170,378,o),
(172,390,c),
(128,358,l)
);
},
{
closed = 1;
nodes = (
(509,83,l),
(498,52,o),
(472,31,o),
(444,31,cs),
(410,31,o),
(391,51,o),
(396,81,cs),
(445,358,ls),
(464,463,o),
(419,510,o),
(339,510,cs),
(227,510,o),
(137,413,o),
(128,358,c),
(172,390,l),
(178,428,o),
(241,495,o),
(318,495,cs),
(379,495,o),
(413,458,o),
(399,377,cs),
(346,81,ls),
(337,30,o),
(366,-5,o),
(418,-5,cs),
(460,-5,o),
(501,28,o),
(518,77,c)
);
},
{
closed = 1;
nodes = (
(354,103,l),
(281,41,o),
(225,17,o),
(186,17,cs),
(133,17,o),
(103,44,o),
(110,86,cs),
(116,120,o),
(176,149,o),
(378,234,c),
(380,246,l),
(137,143,o),
(64,110,o),
(59,80,cs),
(50,26,o),
(88,-10,o),
(154,-10,cs),
(201,-10,o),
(267,19,o),
(356,95,c)
);
}
);
width = 494;
},
{
anchors = (
{
name = bottom;
pos = (254,0);
},
{
name = ogonek;
pos = (457,10);
},
{
name = top;
pos = (254,500);
}
);
layerId = "138274BD-2AF4-44A3-9B34-6F786694E642";
shapes = (
{
closed = 1;
nodes = (
(121,316,o),
(141,288,o),
(177,288,cs),
(209,288,o),
(234,317,o),
(237,338,cs),
(240,357,o),
(224,374,o),
(227,394,c),
(128,358,l)
);
},
{
closed = 1;
nodes = (
(524,120,l),
(512,88,o),
(486,66,o),
(459,66,cs),
(427,66,o),
(409,84,o),
(414,111,cs),
(457,354,ls),
(475,462,o),
(429,510,o),
(346,510,cs),
(229,510,o),
(136,413,o),
(128,358,c),
(227,394,l),
(232,422,o),
(269,471,o),
(313,471,cs),
(352,471,o),
(374,446,o),
(364,390,cs),
(314,111,ls),
(301,41,o),
(338,-5,o),
(405,-5,cs),
(460,-5,o),
(514,42,o),
(538,112,c)
);
},
{
closed = 1;
nodes = (
(321,111,l),
(270,62,o),
(236,43,o),
(214,43,cs),
(177,43,o),
(157,66,o),
(163,101,cs),
(172,151,o),
(211,172,o),
(344,228,c),
(348,252,l),
(132,161,o),
(68,130,o),
(61,91,cs),
(50,30,o),
(87,-10,o),
(152,-10,cs),
(190,-10,o),
(247,19,o),
(326,95,c)
);
}
);
width = 508;
},
{
anchors = (
{
name = bottom;
pos = (250,0);
},
{
name = ogonek;
pos = (450,10);
},
{
name = top;
pos = (250,500);
}
);
layerId = "0E723D17-59BC-4C5E-BFCA-41CEB45896D2";
shapes = (
{
closed = 1;
nodes = (
(194,-10,o),
(253,16,o),
(332,84,c),
(326,29,o),
(358,-5,o),
(413,-5,cs),
(460,-5,o),
(506,34,o),
(526,91,c),
(515,98,l),
(503,66,o),
(478,45,o),
(450,45,cs),
(417,45,o),
(398,64,o),
(403,93,cs),
(450,357,ls),
(469,462,o),
(423,510,o),
(342,510,cs),
(228,510,o),
(137,413,o),
(128,358,cs),
(123,329,o),
(134,309,o),
(156,309,cs),
(179,309,o),
(198,329,o),
(200,344,cs),
(203,363,o),
(187,385,o),
(190,402,cs),
(195,433,o),
(248,489,o),
(313,489,cs),
(367,489,o),
(397,456,o),
(385,382,cs),
(360,245,l),
(133,149,o),
(66,117,o),
(60,85,cs),
(50,28,o),
(87,-10,o),
(153,-10,cs)
);
},
{
closed = 1;
nodes = (
(151,27,o),
(124,53,o),
(131,92,cs),
(138,133,o),
(189,158,o),
(358,229,c),
(334,100,l),
(273,47,o),
(229,27,o),
(197,27,cs)
);
}
);
width = 500;
},
{
anchors = (
{
name = bottom;
pos = (252,0);
},
{
name = ogonek;
pos = (454,10);
},
{
name = top;
pos = (252,500);
}
);
layerId = "14257FDA-2614-4218-93F6-F0A118F23CCC";
shapes = (
{
closed = 1;
nodes = (
(122,322,o),
(138,298,o),
(167,298,cs),
(194,298,o),
(217,323,o),
(220,341,cs),
(223,361,o),
(207,381,o),
(210,401,c),
(128,358,l)
);
},
{
closed = 1;
nodes = (
(519,110,l),
(508,77,o),
(483,56,o),
(455,56,cs),
(423,56,o),
(404,75,o),
(409,103,cs),
(453,355,ls),
(472,462,o),
(426,510,o),
(344,510,cs),
(229,510,o),
(136,413,o),
(128,358,c),
(210,401,l),
(215,430,o),
(257,483,o),
(309,483,cs),
(358,483,o),
(385,453,o),
(373,386,cs),
(323,103,ls),
(312,38,o),
(346,-5,o),
(409,-5,cs),
(461,-5,o),
(510,38,o),
(533,103,c)
);
},
{
closed = 1;
nodes = (
(330,109,l),
(274,56,o),
(233,36,o),
(206,36,cs),
(165,36,o),
(142,60,o),
(148,97,cs),
(156,142,o),
(202,166,o),
(354,230,c),
(357,250,l),
(133,156,o),
(67,124,o),
(60,88,cs),
(50,29,o),
(87,-10,o),
(153,-10,cs),
(193,-10,o),
(252,19,o),
(335,95,c)
);
}
);
width = 504;
},
{
anchors = (
{
name = bottom;
pos = (256,0);
},
{
name = ogonek;
pos = (461,10);
},
{
name = top;
pos = (256,500);
}
);
layerId = "BBA8B076-D1F2-4268-BE72-89D7CC5EB943";
shapes = (
{
closed = 1;
nodes = (
(120,310,o),
(143,278,o),
(186,278,cs),
(219,278,o),
(248,311,o),
(252,335,cs),
(255,356,o),
(239,373,o),
(243,398,c),
(128,358,l)
);
},
{
closed = 1;
nodes = (
(528,131,l),
(516,99,o),
(491,77,o),
(464,77,cs),
(432,77,o),
(415,94,o),
(419,120,cs),
(460,353,ls),
(479,461,o),
(432,510,o),
(348,510,cs),
(230,510,o),
(136,413,o),
(128,358,c),
(243,398,l),
(247,421,o),
(277,463,o),
(313,463,cs),
(344,463,o),
(361,442,o),
(353,394,cs),
(304,120,ls),
(291,45,o),
(330,-5,o),
(402,-5,cs),
(460,-5,o),
(517,46,o),
(544,123,c)
);
},
{
closed = 1;
nodes = (
(311,113,l),
(266,68,o),
(239,51,o),
(223,51,cs),
(191,51,o),
(173,73,o),
(179,106,cs),
(188,160,o),
(222,180,o),
(334,226,c),
(338,253,l),
(130,166,o),
(68,135,o),
(61,94,cs),
(50,32,o),
(86,-10,o),
(151,-10,cs),
(188,-10,o),
(242,19,o),
(317,95,c)
);
}
);
width = 512;
}
);
note = a;
unicode = 97;
},
{
glyphname = b;
lastChange = "2026-03-04 14:02:54 +0000";
layers = (
{
anchors = (
{
name = bottom;
pos = (314,0);
},
{
name = center;
pos = (157,780);
},
{
name = top;
pos = (314,500);
}
);
layerId = m01;
shapes = (
{
closed = 1;
nodes = (
(155,0,l),
(226,170,l),
(237,195,l),
(315,638,l),
(265,638,l),
(187,195,l),
(152,0,l)
);
},
{
closed = 1;
nodes = (
(208,195,l),
(182,65,l),
(212,20,o),
(283,-10,o),
(360,-10,cs),
(493,-10,o),
(601,95,o),
(628,251,cs),
(655,404,o),
(580,505,o),
(440,505,cs),
(382,505,o),
(314,469,o),
(270,415,c),
(267,400,l),
(308,450,o),
(368,484,o),
(416,484,cs),
(535,484,o),
(596,389,o),
(571,246,cs),
(545,99,o),
(463,1,o),
(365,1,cs),
(302,1,o),
(242,29,o),
(215,70,c),
(237,195,l)
);
},
{
closed = 1;
nodes = (
(335,750,l),
(326,750,l),
(209,718,l),
(206,702,l),
(219,690,ls),
(254,699,o),
(274,692,o),
(263,626,c),
(315,638,l)
);
}
);
width = 628;
},
{
anchors = (
{
name = bottom;
pos = (315,0);
},
{
name = center;
pos = (158,780);
},
{
name = top;
pos = (315,500);
}
);
layerId = "138274BD-2AF4-44A3-9B34-6F786694E642";
shapes = (
{
closed = 1;
nodes = (
(146,0,l),
(252,145,l),
(274,195,l),
(352,638,l),
(252,638,l),
(174,195,l),
(174,195,l),
(140,0,l)
);
},
{
closed = 1;
nodes = (
(216,195,l),
(193,65,l),
(206,20,o),
(269,-10,o),
(349,-10,cs),
(489,-10,o),
(602,95,o),
(630,253,cs),
(656,404,o),
(588,505,o),
(460,505,cs),
(403,505,o),
(341,475,o),
(304,429,c),
(299,400,l),
(330,438,o),
(375,464,o),
(412,464,cs),
(498,464,o),
(539,375,o),
(516,241,cs),
(491,104,o),
(429,13,o),
(358,13,cs),
(301,13,o),
(259,36,o),
(252,70,c),
(274,195,l)
);
},
{
closed = 1;
nodes = (
(369,732,o),
(372,750,o),
(372,750,c),
(372,750,l),
(372,750,o),
(372,750,o),
(372,750,c),
(372,750,o),
(372,750,o),
(372,750,c),
(354,750,l),
(194,706,l),
(194,706,o),
(193,700,o),
(191,690,cs),
(189,680,o),
(188,673,o),
(188,674,c),
(205,678,ls),
(239,687,o),
(260,681,o),
(248,614,c),
(352,638,l)
);
}
);
width = 630;
},
{
anchors = (
{
name = bottom;
pos = (315,0);
},
{
name = center;
pos = (157,780);
},
{
name = top;
pos = (315,500);
}
);
layerId = "0E723D17-59BC-4C5E-BFCA-41CEB45896D2";
shapes = (
{
closed = 1;
nodes = (
(492,-10,o),
(601,95,o),
(629,252,cs),
(655,404,o),
(583,505,o),
(448,505,cs),
(396,505,o),
(336,476,o),
(294,433,c),
(330,638,ls),
(346,732,o),
(349,750,o),
(350,750,cs),
(337,750,l),
(203,713,l),
(203,713,o),
(202,707,o),
(200,697,cs),
(198,688,o),
(197,681,o),
(197,681,c),
(197,681,l),
(197,681,o),
(197,681,o),
(197,681,c),
(214,685,ls),
(248,694,o),
(268,688,o),
(257,621,cs),
(147,0,l),
(151,0,l),
(186,66,l),
(186,65,l),
(215,20,o),
(283,-10,o),
(356,-10,cs)
);
},
{
closed = 1;
nodes = (
(302,6,o),
(249,32,o),
(230,70,c),
(252,195,l),
(290,412,l),
(326,451,o),
(375,476,o),
(414,476,cs),
(520,476,o),
(574,383,o),
(549,244,cs),
(524,101,o),
(449,6,o),
(362,6,cs)
);
}
);
width = 629;
},
{
anchors = (
{
name = bottom;
pos = (315,0);
},
{
name = center;
pos = (157,780);
},
{
name = top;
pos = (315,500);
}
);
layerId = "14257FDA-2614-4218-93F6-F0A118F23CCC";
shapes = (
{
closed = 1;
nodes = (
(148,0,l),
(245,152,l),
(264,195,l),
(342,638,l),
(256,638,l),
(178,195,l),
(178,195,l),
(143,0,l)
);
},
{
closed = 1;
nodes = (
(214,195,l),
(190,65,l),
(212,20,o),
(277,-10,o),
(352,-10,cs),
(491,-10,o),
(602,95,o),
(629,253,cs),
(656,404,o),
(586,505,o),
(455,505,cs),
(397,505,o),
(333,473,o),
(294,425,c),
(290,400,l),
(324,442,o),
(373,470,o),
(413,470,cs),
(508,470,o),
(556,379,o),
(531,242,cs),
(507,102,o),
(439,9,o),
(360,9,cs),
(297,9,o),
(249,33,o),
(242,70,c),
(264,195,l)
);
},
{
closed = 1;
nodes = (
(358,732,o),
(361,750,o),
(362,750,c),
(362,750,l),
(361,750,o),
(361,750,o),
(362,750,c),
(361,750,o),
(361,750,o),
(362,750,cs),
(346,750,l),
(198,710,l),
(198,710,o),
(197,703,o),
(195,693,cs),
(193,683,o),
(192,677,o),
(192,677,c),
(209,681,ls),
(243,691,o),
(264,684,o),
(252,617,c),
(342,638,l)
);
}
);
width = 629;
},
{
anchors = (
{
name = bottom;
pos = (315,0);
},
{
name = center;
pos = (158,780);
},
{
name = top;
pos = (315,500);
}
);
layerId = "BBA8B076-D1F2-4268-BE72-89D7CC5EB943";
shapes = (
{
closed = 1;
nodes = (
(143,0,l),
(260,138,l),
(285,195,l),
(364,638,l),
(249,638,l),
(170,195,l),
(170,195,l),
(136,0,l)
);
},
{
closed = 1;
nodes = (
(219,195,l),
(198,65,l),
(207,20,o),
(266,-10,o),
(345,-10,cs),
(489,-10,o),
(603,95,o),
(631,253,cs),
(657,404,o),
(591,505,o),
(466,505,cs),
(410,505,o),
(349,477,o),
(314,434,c),
(308,400,l),
(336,435,o),
(377,458,o),
(410,458,cs),
(487,458,o),
(522,371,o),
(499,240,cs),
(476,106,o),
(418,16,o),
(356,16,cs),
(307,16,o),
(270,38,o),
(263,70,c),
(285,195,l)
);
},
{
closed = 1;
nodes = (
(380,732,o),
(383,750,o),
(383,750,c),
(383,750,l),
(383,750,o),
(383,750,o),
(383,750,c),
(383,750,o),
(383,750,o),
(383,750,c),
(363,750,l),
(190,703,l),
(190,703,o),
(189,696,o),
(187,686,cs),
(185,676,o),
(184,670,o),
(184,670,c),
(200,674,ls),
(235,684,o),
(255,677,o),
(244,610,c),
(364,638,l)
);
}
);
width = 630;
}
);
note = b;
unicode = 98;
},
{
glyphname = c;
lastChange = "2026-03-04 14:02:54 +0000";
layers = (
{
anchors = (
{
name = bottom;
pos = (250,0);
},
{
name = top;
pos = (250,500);
}
);
layerId = m01;
shapes = (
{
closed = 1;
nodes = (
(487,135,l),
(447,66,o),
(369,21,o),
(292,21,cs),
(176,21,o),
(115,118,o),
(140,264,cs),
(165,405,o),
(263,499,o),
(386,499,cs),
(440,499,o),
(484,461,o),
(495,405,cs),
(497,390,o),
(506,380,o),
(515,380,c),
(536,380,o),
(547,390,o),
(545,405,cs),
(533,468,o),
(471,510,o),
(390,510,cs),
(237,510,o),
(115,401,o),
(86,239,cs),
(60,89,o),
(133,-10,o),
(269,-10,cs),
(353,-10,o),
(443,47,o),
(494,132,c)
);
}
);
width = 500;
},
{
anchors = (
{
name = bottom;
pos = (249,0);
},
{
name = top;
pos = (249,500);
}
);
layerId = "138274BD-2AF4-44A3-9B34-6F786694E642";
shapes = (
{
closed = 1;
nodes = (
(478,138,l),
(447,86,o),
(381,51,o),
(313,51,cs),
(218,51,o),
(171,141,o),
(195,276,cs),
(217,402,o),
(291,487,o),
(379,487,cs),
(410,487,o),
(436,454,o),
(445,405,cs),
(451,375,o),
(467,355,o),
(486,355,c),
(486,355,l),
(527,355,o),
(551,375,o),
(545,405,cs),
(534,468,o),
(471,510,o),
(389,510,cs),
(234,510,o),
(112,400,o),
(82,235,cs),
(57,88,o),
(130,-10,o),
(267,-10,cs),
(351,-10,o),
(441,47,o),
(491,132,c)
);
}
);
width = 497;
},
{
anchors = (
{
name = bottom;
pos = (250,0);
},
{
name = top;
pos = (250,500);
}
);
layerId = "0E723D17-59BC-4C5E-BFCA-41CEB45896D2";
shapes = (
{
closed = 1;
nodes = (
(352,-10,o),
(442,47,o),
(493,132,c),
(484,136,l),
(447,74,o),
(374,33,o),
(301,33,cs),
(192,33,o),
(137,128,o),
(162,270,cs),
(185,404,o),
(274,494,o),
(383,494,cs),
(428,494,o),
(465,458,o),
(475,405,cs),
(479,384,o),
(490,370,o),
(504,370,c),
(504,370,l),
(532,370,o),
(549,384,o),
(545,405,cs),
(533,468,o),
(471,510,o),
(390,510,cs),
(236,510,o),
(114,401,o),
(84,237,cs),
(59,89,o),
(132,-10,o),
(268,-10,cs)
);
}
);
width = 499;
},
{
anchors = (
{
name = bottom;
pos = (249,0);
},
{
name = top;
pos = (249,500);
}
);
layerId = "14257FDA-2614-4218-93F6-F0A118F23CCC";
shapes = (
{
closed = 1;
nodes = (
(481,137,l),
(447,81,o),
(378,43,o),
(307,43,cs),
(206,43,o),
(155,135,o),
(179,273,cs),
(202,403,o),
(283,490,o),
(381,490,cs),
(419,490,o),
(450,456,o),
(459,405,cs),
(464,379,o),
(478,362,o),
(495,362,c),
(495,362,l),
(530,362,o),
(550,379,o),
(545,405,cs),
(534,468,o),
(471,510,o),
(390,510,cs),
(235,510,o),
(113,400,o),
(83,236,cs),
(57,88,o),
(131,-10,o),
(268,-10,cs),
(351,-10,o),
(441,47,o),
(492,132,c)
);
}
);
width = 498;
},
{
anchors = (
{
name = bottom;
pos = (248,0);
},
{
name = top;
pos = (248,500);
}
);
layerId = "BBA8B076-D1F2-4268-BE72-89D7CC5EB943";
shapes = (
{
closed = 1;
nodes = (
(475,139,l),
(447,91,o),
(385,60,o),
(319,60,cs),
(232,60,o),
(189,147,o),
(211,277,cs),
(234,401,o),
(300,484,o),
(377,484,cs),
(400,484,o),
(421,452,o),
(430,405,cs),
(437,371,o),
(456,348,o),
(477,348,c),
(477,348,l),
(525,348,o),
(552,371,o),
(545,405,cs),
(533,468,o),
(470,510,o),
(389,510,cs),
(233,510,o),
(111,400,o),
(81,234,cs),
(55,88,o),
(129,-10,o),
(266,-10,cs),
(350,-10,o),
(440,47,o),
(490,132,c)
);
}
);
width = 496;
}
);
note = c;
unicode = 99;
},
{
glyphname = d;
lastChange = "2026-03-04 14:02:54 +0000";
layers = (
{
anchors = (
{
name = bottom;
pos = (287,0);
},
{
name = center;
pos = (430,780);
},
{
name = top;
pos = (287,500);
},
{
name = topright;
pos = (553,975);
}
);
layerId = m01;
shapes = (
{
closed = 1;
nodes = (
(526,123,l),
(626,688,l),
(576,688,l),
(476,123,l)
);
},
{
closed = 1;
nodes = (
(474,93,l),
(433,47,o),
(367,16,o),
(308,16,cs),
(188,16,o),
(127,117,o),
(153,267,cs),
(177,404,o),
(265,495,o),
(403,495,cs),
(456,495,o),
(507,444,o),
(525,385,c),
(554,403,l),
(536,461,o),
(473,510,o),
(400,510,cs),
(232,510,o),
(127,407,o),
(100,254,cs),
(72,98,o),
(146,-5,o),
(283,-5,cs),
(353,-5,o),
(428,27,o),
(471,76,c)
);
},
{
closed = 1;
nodes = (
(637,750,l),
(628,750,l),
(511,718,l),
(511,718,o),
(509,711,o),
(508,702,cs),
(505,685,l),
(522,690,ls),
(556,699,o),
(578,701,o),
(574,676,c),
(626,688,l)
);
},
{
closed = 1;
nodes = (
(476,123,l),
(453,-10,l),
(462,-10,l),
(578,18,l),
(581,34,l),
(584,51,l),
(567,47,ls),
(533,39,o),
(514,49,o),
(528,133,c)
);
}
);
width = 573;
},
{
anchors = (
{
name = bottom;
pos = (287,0);
},
{
name = center;
pos = (430,780);
},
{
name = top;
pos = (287,500);
},
{
name = topright;
pos = (553,975);
}
);
layerId = "138274BD-2AF4-44A3-9B34-6F786694E642";
shapes = (
{
closed = 1;
nodes = (
(526,123,l),
(625,688,l),
(525,688,l),
(426,123,l)
);
},
{
closed = 1;
nodes = (
(429,106,l),
(392,65,o),
(340,37,o),
(297,37,cs),
(210,37,o),
(168,133,o),
(194,278,cs),
(215,400,o),
(277,481,o),
(369,481,cs),
(416,481,o),
(462,437,o),
(478,385,c),
(536,420,l),
(521,469,o),
(450,510,o),
(362,510,cs),
(210,510,o),
(114,406,o),
(87,250,cs),
(59,97,o),
(124,-5,o),
(249,-5,cs),
(313,-5,o),
(383,25,o),
(423,71,c)
);
},
{
closed = 1;
nodes = (
(635,740,o),
(636,750,o),
(637,750,c),
(637,750,l),
(636,750,o),
(636,750,o),
(637,750,c),
(636,750,o),
(636,750,o),
(637,750,cs),
(619,750,l),
(458,706,l),
(458,706,o),
(457,700,o),
(455,690,cs),
(454,680,o),
(453,673,o),
(453,674,c),
(469,678,ls),
(503,687,o),
(525,689,o),
(521,664,c),
(625,688,l)
);
},
{
closed = 1;
nodes = (
(426,123,l),
(406,11,o),
(402,-10,o),
(402,-10,c),
(402,-10,l),
(402,-10,o),
(402,-10,o),
(402,-10,c),
(402,-10,o),
(402,-10,o),
(402,-10,c),
(420,-10,l),
(580,28,l),
(580,28,o),
(581,35,o),
(583,44,cs),
(584,54,o),
(586,61,o),
(585,61,cs),
(569,57,ls),
(535,49,o),
(515,59,o),
(530,143,c)
);
}
);
width = 573;
},
{
anchors = (
{
name = bottom;
pos = (287,0);
},
{
name = center;
pos = (430,780);
},
{
name = top;
pos = (287,500);
},
{
name = topright;
pos = (553,975);
}
);
layerId = "0E723D17-59BC-4C5E-BFCA-41CEB45896D2";
shapes = (
{
closed = 1;
nodes = (
(445,-10,l),
(579,22,l),
(579,22,o),
(580,28,o),
(582,38,cs),
(583,48,o),
(585,55,o),
(584,55,cs),
(568,51,ls),
(534,43,o),
(513,53,o),
(529,137,c),
(528,137,l),
(626,688,ls),
(635,740,o),
(636,750,o),
(637,750,cs),
(624,750,l),
(490,713,l),
(490,713,o),
(489,707,o),
(487,697,cs),
(485,688,o),
(484,681,o),
(484,681,c),
(484,681,l),
(484,681,o),
(484,681,o),
(484,681,c),
(501,685,ls),
(535,694,o),
(557,697,o),
(553,671,cs),
(516,459,l),
(484,490,o),
(437,510,o),
(385,510,cs),
(223,510,o),
(122,407,o),
(95,252,cs),
(67,98,o),
(137,-5,o),
(269,-5,cs),
(334,-5,o),
(403,24,o),
(446,68,c),
(434,3,o),
(432,-10,o),
(433,-10,cs)
);
},
{
closed = 1;
nodes = (
(197,24,o),
(144,123,o),
(170,271,cs),
(193,403,o),
(270,490,o),
(389,490,cs),
(438,490,o),
(485,446,o),
(504,392,c),
(456,123,ls),
(454,112,o),
(452,101,o),
(451,93,c),
(412,51,o),
(354,24,o),
(304,24,cs)
);
}
);
width = 573;
},
{
anchors = (
{
name = bottom;
pos = (287,0);
},
{
name = center;
pos = (430,780);
},
{
name = top;
pos = (287,500);
},
{
name = topright;
pos = (553,975);
}
);
layerId = "14257FDA-2614-4218-93F6-F0A118F23CCC";
shapes = (
{
closed = 1;
nodes = (
(526,123,l),
(626,688,l),
(540,688,l),
(440,123,l)
);
},
{
closed = 1;
nodes = (
(442,103,l),
(404,60,o),
(347,31,o),
(300,31,cs),
(204,31,o),
(157,128,o),
(182,275,cs),
(205,401,o),
(274,485,o),
(378,485,cs),
(428,485,o),
(475,439,o),
(491,385,c),
(541,415,l),
(525,466,o),
(456,510,o),
(373,510,cs),
(216,510,o),
(118,406,o),
(90,251,cs),
(63,97,o),
(130,-5,o),
(258,-5,cs),
(324,-5,o),
(395,26,o),
(436,72,c)
);
},
{
closed = 1;
nodes = (
(635,740,o),
(636,750,o),
(637,750,c),
(637,750,l),
(636,750,o),
(636,750,o),
(637,750,c),
(636,750,o),
(636,750,o),
(637,750,cs),
(621,750,l),
(473,710,l),
(473,710,o),
(472,703,o),
(470,693,cs),
(468,683,o),
(467,677,o),
(467,677,c),
(484,681,ls),
(518,690,o),
(540,692,o),
(536,667,c),
(626,688,l)
);
},
{
closed = 1;
nodes = (
(440,123,l),
(420,11,o),
(416,-10,o),
(417,-10,c),
(417,-10,l),
(416,-10,o),
(416,-10,o),
(417,-10,c),
(416,-10,o),
(416,-10,o),
(417,-10,cs),
(432,-10,l),
(579,25,l),
(579,25,o),
(581,32,o),
(582,42,cs),
(584,52,o),
(585,58,o),
(585,58,c),
(568,54,ls),
(534,46,o),
(514,57,o),
(529,140,c)
);
}
);
width = 573;
},
{
anchors = (
{
name = bottom;
pos = (287,0);
},
{
name = center;
pos = (430,780);
},
{
name = top;
pos = (287,500);
},
{
name = topright;
pos = (553,975);
}
);
layerId = "BBA8B076-D1F2-4268-BE72-89D7CC5EB943";
shapes = (
{
closed = 1;
nodes = (
(526,123,l),
(625,688,l),
(510,688,l),
(411,123,l)
);
},
{
closed = 1;
nodes = (
(415,110,l),
(380,70,o),
(332,43,o),
(294,43,cs),
(216,43,o),
(180,138,o),
(206,281,cs),
(226,398,o),
(280,477,o),
(358,477,cs),
(404,477,o),
(448,435,o),
(464,385,c),
(531,425,l),
(517,471,o),
(443,510,o),
(351,510,cs),
(204,510,o),
(110,406,o),
(83,249,cs),
(56,97,o),
(118,-5,o),
(238,-5,cs),
(301,-5,o),
(369,25,o),
(408,70,c)
);
},
{
closed = 1;
nodes = (
(635,740,o),
(636,750,o),
(636,750,c),
(636,750,l),
(636,750,o),
(636,750,o),
(636,750,c),
(636,750,o),
(636,750,o),
(636,750,c),
(616,750,l),
(443,703,l),
(443,703,o),
(442,696,o),
(440,686,cs),
(438,676,o),
(437,670,o),
(437,670,c),
(453,674,ls),
(488,684,o),
(510,685,o),
(506,660,c),
(625,688,l)
);
},
{
closed = 1;
nodes = (
(411,123,l),
(391,11,o),
(387,-10,o),
(387,-10,c),
(387,-10,l),
(387,-10,o),
(387,-10,o),
(387,-10,c),
(387,-10,o),
(387,-10,o),
(387,-10,c),
(408,-10,l),
(580,31,l),
(580,31,o),
(581,38,o),
(583,48,cs),
(585,58,o),
(586,64,o),
(586,64,c),
(569,60,ls),
(535,52,o),
(515,63,o),
(530,146,c)
);
}
);
width = 573;
}
);
note = d;
unicode = 100;
},
{
glyphname = e;
lastChange = "2026-03-04 14:02:54 +0000";
layers = (
{
anchors = (
{
name = bottom;
pos = (257,0);
},
{
name = ogonek;
pos = (463,10);
},
{
name = top;
pos = (257,500);
}
);
layerId = m01;
shapes = (
{
closed = 1;
nodes = (
(149,307,l),
(525,307,ls),
(533,307,o),
(539,307,o),
(539,307,c),
(547,453,o),
(482,510,o),
(379,510,cs),
(231,510,o),
(113,400,o),
(84,235,cs),
(58,88,o),
(131,-10,o),
(267,-10,cs),
(360,-10,o),
(452,49,o),
(498,137,c),
(492,140,l),
(456,70,o),
(373,23,o),
(285,23,cs),
(174,23,o),
(115,116,o),
(140,255,cs),
(166,401,o),
(259,499,o),
(374,499,cs),
(447,499,o),
(492,445,o),
(483,307,c),
(485,315,o),
(502,321,o),
(527,321,cs),
(151,318,l)
);
}
);
width = 514;
},
{
anchors = (
{
name = bottom;
pos = (263,0);
},
{
name = ogonek;
pos = (473,10);
},
{
name = top;
pos = (263,500);
}
);
layerId = "138274BD-2AF4-44A3-9B34-6F786694E642";
shapes = (
{
closed = 1;
nodes = (
(199,307,l),
(522,307,ls),
(539,307,o),
(550,307,o),
(550,307,c),
(576,453,o),
(505,510,o),
(384,510,cs),
(231,510,o),
(110,398,o),
(80,230,cs),
(55,86,o),
(131,-10,o),
(269,-10,cs),
(367,-10,o),
(462,48,o),
(508,136,c),
(496,140,l),
(470,90,o),
(394,56,o),
(305,56,cs),
(215,56,o),
(170,142,o),
(193,270,cs),
(216,400,o),
(288,487,o),
(374,487,cs),
(432,487,o),
(462,436,o),
(439,307,c),
(442,324,o),
(478,336,o),
(527,336,cs),
(203,330,l)
);
}
);
width = 525;
},
{
anchors = (
{
name = bottom;
pos = (260,0);
},
{
name = ogonek;
pos = (467,10);
},
{
name = top;
pos = (260,500);
}
);
layerId = "0E723D17-59BC-4C5E-BFCA-41CEB45896D2";
shapes = (
{
closed = 1;
nodes = (
(363,-10,o),
(456,49,o),
(502,137,c),
(494,140,l),
(462,77,o),
(381,36,o),
(293,36,cs),
(190,36,o),
(137,126,o),
(161,261,cs),
(164,278,o),
(168,293,o),
(172,307,c),
(466,307,l),
(524,307,ls),
(535,307,o),
(543,307,o),
(543,307,c),
(560,453,o),
(492,510,o),
(381,510,cs),
(231,510,o),
(112,399,o),
(82,233,cs),
(57,87,o),
(131,-10,o),
(268,-10,cs)
);
},
{
closed = 1;
nodes = (
(213,428,o),
(287,494,o),
(374,494,cs),
(439,494,o),
(477,446,o),
(468,326,c),
(177,323,l)
);
}
);
width = 519;
},
{
anchors = (
{
name = bottom;
pos = (261,0);
},
{
name = ogonek;
pos = (470,10);
},
{
name = top;
pos = (261,500);
}
);
layerId = "14257FDA-2614-4218-93F6-F0A118F23CCC";
shapes = (
{
closed = 1;
nodes = (
(185,307,l),
(523,307,ls),
(537,307,o),
(547,307,o),
(547,307,c),
(570,453,o),
(500,510,o),
(382,510,cs),
(231,510,o),
(111,399,o),
(81,231,cs),
(56,87,o),
(131,-10,o),
(269,-10,cs),
(365,-10,o),
(460,49,o),
(505,136,c),
(495,140,l),
(466,84,o),
(388,47,o),
(299,47,cs),
(203,47,o),
(155,135,o),
(178,266,cs),
(202,400,o),
(280,490,o),
(374,490,cs),
(438,490,o),
(473,439,o),
(452,307,c),
(455,322,o),
(485,332,o),
(527,332,cs),
(189,327,l)
);
}
);
width = 522;
},
{
anchors = (
{
name = bottom;
pos = (265,0);
},
{
name = ogonek;
pos = (476,10);
},
{
name = top;
pos = (265,500);
}
);
layerId = "BBA8B076-D1F2-4268-BE72-89D7CC5EB943";
shapes = (
{
closed = 1;
nodes = (
(214,307,l),
(521,307,ls),
(540,307,o),
(553,307,o),
(553,307,c),
(579,453,o),
(507,510,o),
(385,510,cs),
(231,510,o),
(109,397,o),
(79,228,cs),
(54,85,o),
(130,-10,o),
(269,-10,cs),
(370,-10,o),
(466,48,o),
(511,135,c),
(497,140,l),
(475,96,o),
(400,66,o),
(311,66,cs),
(227,66,o),
(186,150,o),
(209,275,cs),
(231,400,o),
(297,484,o),
(374,484,cs),
(424,484,o),
(449,434,o),
(426,307,c),
(430,327,o),
(470,340,o),
(527,340,cs),
(219,334,l)
);
}
);
width = 529;
}
);
note = e;
unicode = 101;
},
{
glyphname = f;
lastChange = "2026-03-04 14:02:54 +0000";
layers = (
{
anchors = (
{
name = bottom;
pos = (157,0);
},
{
name = top;
pos = (157,975);
}
);
layerId = m01;
shapes = (
{
closed = 1;
nodes = (
(400,740,l),
(475,740,o),
(421,635,o),
(483,635,cs),
(510,635,o),
(531,653,o),
(536,680,cs),
(544,725,o),
(498,755,o),
(421,755,c)
);
},
{
closed = 1;
nodes = (
(165,38,l),
(247,500,ls),
(272,644,o),
(327,740,o),
(400,740,c),
(421,755,l),
(303,755,o),
(224,653,o),
(197,500,cs),
(115,38,l)
);
},
{
closed = 1;
nodes = (
(392,500,l),
(197,500,l),
(78,479,l),
(77,474,l),
(192,474,l),
(388,474,l)
);
},
{
closed = 1;
nodes = (
(115,38,l),
(115,34,o),
(93,33,o),
(60,33,cs),
(44,33,l),
(44,33,o),
(43,26,o),
(41,16,cs),
(39,7,o),
(38,0,o),
(38,0,c),
(134,0,l),
(229,0,l),
(229,0,o),
(230,7,o),
(232,16,cs),
(234,26,o),
(235,33,o),
(235,33,c),
(219,33,ls),
(187,33,o),
(165,34,o),
(165,38,c)
);
}
);
width = 314;
},
{
anchors = (
{
name = bottom;
pos = (182,0);
},
{
name = top;
pos = (182,975);
}
);
layerId = "138274BD-2AF4-44A3-9B34-6F786694E642";
shapes = (
{
closed = 1;
nodes = (
(430,724,l),
(497,724,o),
(477,635,o),
(533,635,cs),
(560,635,o),
(581,653,o),
(586,680,cs),
(594,725,o),
(548,755,o),
(470,755,c)
);
},
{
closed = 1;
nodes = (
(215,38,l),
(297,500,ls),
(321,634,o),
(368,724,o),
(430,724,c),
(470,755,l),
(320,755,o),
(224,653,o),
(197,500,cs),
(115,38,l)
);
},
{
closed = 1;
nodes = (
(442,500,l),
(197,500,l),
(75,459,l),
(73,447,l),
(187,447,l),
(433,447,l)
);
},
{
closed = 1;
nodes = (
(115,38,l),
(115,34,o),
(93,33,o),
(60,33,cs),
(44,33,l),
(44,33,o),
(43,26,o),
(41,16,cs),
(39,7,o),
(38,0,o),
(38,0,c),
(159,0,l),
(279,0,l),
(279,0,o),
(280,7,o),
(282,16,cs),
(284,26,o),
(285,33,o),
(285,33,c),
(269,33,ls),
(236,33,o),
(215,34,o),
(215,38,c)
);
}
);
width = 364;
},
{
anchors = (
{
name = bottom;
pos = (167,0);
},
{
name = top;
pos = (167,975);
}
);
layerId = "0E723D17-59BC-4C5E-BFCA-41CEB45896D2";
shapes = (
{
closed = 1;
nodes = (
(144,0,l),
(249,0,l),
(249,0,o),
(250,7,o),
(252,16,cs),
(254,26,o),
(255,33,o),
(255,33,c),
(239,33,ls),
(207,33,o),
(185,34,o),
(185,38,c),
(260,463,l),
(406,463,l),
(412,500,l),
(267,500,l),
(292,640,o),
(343,733,o),
(412,733,cs),
(483,733,o),
(444,635,o),
(503,635,cs),
(530,635,o),
(551,653,o),
(556,680,cs),
(564,725,o),
(518,755,o),
(441,755,cs),
(310,755,o),
(224,653,o),
(197,500,c),
(77,471,l),
(75,463,l),
(190,463,l),
(190,463,l),
(115,38,l),
(115,34,o),
(93,33,o),
(60,33,cs),
(44,33,l),
(44,33,o),
(43,26,o),
(41,16,cs),
(39,7,o),
(38,0,o),
(38,0,c)
);
}
);
width = 334;
},
{
anchors = (
{
name = bottom;
pos = (175,0);
},
{
name = top;
pos = (175,975);
}
);
layerId = "14257FDA-2614-4218-93F6-F0A118F23CCC";
shapes = (
{
closed = 1;
nodes = (
(421,728,l),
(490,728,o),
(462,635,o),
(519,635,cs),
(546,635,o),
(567,653,o),
(572,680,cs),
(580,725,o),
(534,755,o),
(456,755,c)
);
},
{
closed = 1;
nodes = (
(201,38,l),
(283,500,ls),
(307,637,o),
(357,728,o),
(421,728,c),
(456,755,l),
(315,755,o),
(224,653,o),
(197,500,cs),
(115,38,l)
);
},
{
closed = 1;
nodes = (
(428,500,l),
(197,500,l),
(76,465,l),
(74,455,l),
(189,455,l),
(420,455,l)
);
},
{
closed = 1;
nodes = (
(115,38,l),
(115,34,o),
(93,33,o),
(60,33,cs),
(44,33,l),
(44,33,o),
(43,26,o),
(41,16,cs),
(39,7,o),
(38,0,o),
(38,0,c),
(152,0,l),
(265,0,l),
(265,0,o),
(266,7,o),
(268,16,cs),
(270,26,o),
(271,33,o),
(271,33,c),
(255,33,ls),
(222,33,o),
(201,34,o),
(201,38,c)
);
}
);
width = 350;
},
{
anchors = (
{
name = bottom;
pos = (190,0);
},
{
name = top;
pos = (190,975);
}
);
layerId = "BBA8B076-D1F2-4268-BE72-89D7CC5EB943";
shapes = (
{
closed = 1;
nodes = (
(438,719,l),
(503,719,o),
(493,635,o),
(548,635,cs),
(575,635,o),
(596,653,o),
(601,680,cs),
(609,725,o),
(563,755,o),
(485,755,c)
);
},
{
closed = 1;
nodes = (
(230,38,l),
(312,500,ls),
(335,631,o),
(381,719,o),
(438,719,c),
(485,755,l),
(325,755,o),
(224,653,o),
(197,500,cs),
(115,38,l)
);
},
{
closed = 1;
nodes = (
(457,500,l),
(197,500,l),
(74,453,l),
(71,439,l),
(186,439,l),
(446,439,l)
);
},
{
closed = 1;
nodes = (
(115,38,l),
(115,34,o),
(93,33,o),
(60,33,cs),
(44,33,l),
(44,33,o),
(43,26,o),
(41,16,cs),
(39,7,o),
(38,0,o),
(38,0,c),
(166,0,l),
(294,0,l),
(294,0,o),
(295,7,o),
(297,16,cs),
(299,26,o),
(300,33,o),
(300,33,c),
(284,33,ls),
(251,33,o),
(230,34,o),
(230,38,c)
);
}
);
width = 379;
}
);
note = f;
unicode = 102;
},
{
glyphname = g;
lastChange = "2026-03-04 14:02:54 +0000";
layers = (
{
anchors = (
{
name = bottom;
pos = (255,-300);
},
{
name = top;
pos = (255,500);
}
);
layerId = m01;
shapes = (
{
closed = 1;
nodes = (
(600,434,l),
(598,423,o),
(606,416,o),
(620,416,cs),
(632,416,o),
(642,426,o),
(645,440,c)
);
},
{
closed = 1;
nodes = (
(382,188,o),
(462,253,o),
(479,350,cs),
(496,446,o),
(439,510,o),
(336,510,cs),
(233,510,o),
(154,446,o),
(137,350,cs),
(120,253,o),
(177,188,o),
(279,188,cs)
);
},
{
closed = 1;
nodes = (
(202,439,o),
(261,498,o),
(334,498,cs),
(406,498,o),
(444,439,o),
(429,350,cs),
(413,260,o),
(354,200,o),
(281,200,cs),
(209,200,o),
(171,260,o),
(187,350,cs)
);
},
{
closed = 1;
nodes = (
(165,198,o),
(83,162,o),
(74,107,cs),
(64,53,o),
(108,17,o),
(183,17,cs),
(294,17,ls),
(398,17,o),
(430,-26,o),
(419,-90,cs),
(405,-168,o),
(329,-219,o),
(229,-219,cs),
(125,-219,o),
(65,-164,o),
(80,-81,cs),
(89,-30,o),
(132,12,o),
(188,23,c),
(174,23,l),
(101,8,o),
(46,-38,o),
(36,-93,cs),
(22,-175,o),
(97,-230,o),
(224,-230,cs),
(351,-230,o),
(446,-169,o),
(462,-79,cs),
(477,9,o),
(437,67,o),
(307,67,cs),
(195,67,ls),
(135,67,o),
(100,89,o),
(106,122,cs),
(113,162,o),
(182,188,o),
(279,188,c),
(278,198,l)
);
},
{
closed = 1;
nodes = (
(650,473,o),
(634,495,o),
(603,495,cs),
(555,495,o),
(503,452,o),
(474,388,c),
(475,375,l),
(502,434,o),
(543,474,o),
(579,474,cs),
(595,474,o),
(604,458,o),
(600,434,c),
(645,440,l)
);
}
);
width = 510;
},
{
anchors = (
{
name = bottom;
pos = (255,-300);
},
{
name = top;
pos = (255,500);
}
);
layerId = "138274BD-2AF4-44A3-9B34-6F786694E642";
shapes = (
{
closed = 1;
nodes = (
(568,428,l),
(564,407,o),
(580,393,o),
(608,393,cs),
(633,393,o),
(652,412,o),
(657,440,c)
);
},
{
closed = 1;
nodes = (
(392,188,o),
(474,253,o),
(491,350,cs),
(508,446,o),
(449,510,o),
(342,510,cs),
(236,510,o),
(154,446,o),
(136,350,cs),
(119,253,o),
(179,188,o),
(285,188,cs)
);
},
{
closed = 1;
nodes = (
(251,432,o),
(292,486,o),
(338,486,cs),
(385,486,o),
(406,432,o),
(391,350,cs),
(377,267,o),
(336,212,o),
(289,212,cs),
(243,212,o),
(222,267,o),
(236,350,cs)
);
},
{
closed = 1;
nodes = (
(168,208,o),
(83,166,o),
(73,104,cs),
(61,37,o),
(100,-8,o),
(170,-8,cs),
(282,-8,ls),
(361,-8,o),
(386,-40,o),
(378,-87,cs),
(365,-159,o),
(305,-207,o),
(228,-207,cs),
(144,-207,o),
(98,-153,o),
(112,-72,cs),
(119,-34,o),
(146,-3,o),
(179,4,c),
(152,4,l),
(84,-10,o),
(33,-50,o),
(25,-96,cs),
(11,-176,o),
(88,-230,o),
(219,-230,cs),
(349,-230,o),
(447,-163,o),
(465,-63,cs),
(481,29,o),
(441,91,o),
(310,92,cs),
(193,92,ls),
(155,92,o),
(132,109,o),
(137,133,cs),
(142,166,o),
(202,188,o),
(285,188,c),
(283,208,l)
);
},
{
closed = 1;
nodes = (
(663,473,o),
(645,495,o),
(613,495,cs),
(564,495,o),
(511,463,o),
(479,415,c),
(481,389,l),
(507,427,o),
(540,453,o),
(564,453,cs),
(569,453,o),
(570,443,o),
(568,428,c),
(657,440,l)
);
}
);
width = 510;
},
{
anchors = (
{
name = bottom;
pos = (255,-300);
},
{
name = top;
pos = (255,500);
}
);
layerId = "0E723D17-59BC-4C5E-BFCA-41CEB45896D2";
shapes = (
{
closed = 1;
nodes = (
(350,-230,o),
(446,-167,o),
(463,-72,cs),
(479,17,o),
(439,77,o),
(309,77,cs),
(194,77,ls),
(143,77,o),
(113,97,o),
(118,127,cs),
(125,163,o),
(190,188,o),
(282,188,cs),
(386,188,o),
(467,253,o),
(484,350,cs),
(487,367,o),
(488,382,o),
(486,397,c),
(516,440,o),
(549,466,o),
(573,466,cs),
(585,466,o),
(591,452,o),
(587,431,cs),
(584,417,o),
(596,407,o),
(615,407,cs),
(632,407,o),
(646,420,o),
(650,440,cs),
(655,473,o),
(638,495,o),
(607,495,cs),
(568,495,o),
(519,463,o),
(484,414,c),
(470,474,o),
(418,510,o),
(338,510,cs),
(234,510,o),
(154,446,o),
(137,350,cs),
(123,275,o),
(154,220,o),
(218,198,c),
(138,187,o),
(82,153,o),
(73,106,cs),
(65,57,o),
(94,20,o),
(145,10,c),
(84,-8,o),
(40,-49,o),
(32,-94,cs),
(18,-176,o),
(94,-230,o),
(222,-230,cs)
);
},
{
closed = 1;
nodes = (
(132,-214,o),
(78,-159,o),
(93,-78,cs),
(100,-39,o),
(126,-7,o),
(161,8,c),
(167,7,o),
(172,7,o),
(178,7,cs),
(289,7,ls),
(383,7,o),
(412,-31,o),
(402,-89,cs),
(389,-164,o),
(320,-214,o),
(228,-214,cs)
);
},
{
closed = 1;
nodes = (
(222,204,o),
(191,262,o),
(207,350,cs),
(222,436,o),
(273,494,o),
(335,494,cs),
(398,494,o),
(429,436,o),
(414,350,cs),
(398,262,o),
(347,204,o),
(285,204,cs)
);
}
);
width = 510;
},
{
anchors = (
{
name = bottom;
pos = (255,-300);
},
{
name = top;
pos = (255,500);
}
);
layerId = "14257FDA-2614-4218-93F6-F0A118F23CCC";
shapes = (
{
closed = 1;
nodes = (
(577,429,l),
(574,412,o),
(588,400,o),
(611,400,cs),
(633,400,o),
(649,416,o),
(654,440,c)
);
},
{
closed = 1;
nodes = (
(389,188,o),
(471,253,o),
(488,350,cs),
(505,446,o),
(446,510,o),
(340,510,cs),
(235,510,o),
(154,446,o),
(136,350,cs),
(119,253,o),
(178,188,o),
(284,188,cs)
);
},
{
closed = 1;
nodes = (
(237,434,o),
(283,490,o),
(337,490,cs),
(391,490,o),
(417,434,o),
(402,350,cs),
(387,265,o),
(341,208,o),
(287,208,cs),
(233,208,o),
(208,265,o),
(222,350,cs)
);
},
{
closed = 1;
nodes = (
(168,206,o),
(84,165,o),
(73,105,cs),
(62,41,o),
(102,-1,o),
(174,-1,cs),
(285,-1,ls),
(371,-1,o),
(399,-36,o),
(389,-88,cs),
(377,-161,o),
(312,-210,o),
(228,-210,cs),
(139,-210,o),
(89,-156,o),
(103,-75,cs),
(110,-32,o),
(142,1,o),
(182,9,c),
(158,9,l),
(89,-5,o),
(37,-46,o),
(29,-95,cs),
(14,-176,o),
(91,-230,o),
(220,-230,cs),
(349,-230,o),
(447,-165,o),
(464,-68,cs),
(480,23,o),
(440,84,o),
(309,85,cs),
(194,85,ls),
(149,85,o),
(123,103,o),
(128,130,cs),
(134,165,o),
(196,188,o),
(284,188,c),
(282,206,l)
);
},
{
closed = 1;
nodes = (
(659,473,o),
(642,495,o),
(610,495,cs),
(563,495,o),
(511,463,o),
(479,415,c),
(480,392,l),
(507,432,o),
(542,459,o),
(568,459,cs),
(576,459,o),
(580,447,o),
(577,429,c),
(654,440,l)
);
}
);
width = 510;
},
{
anchors = (
{
name = bottom;
pos = (255,-300);
},
{
name = top;
pos = (255,500);
}
);
layerId = "BBA8B076-D1F2-4268-BE72-89D7CC5EB943";
shapes = (
{
closed = 1;
nodes = (
(558,426,l),
(554,402,o),
(572,386,o),
(604,386,cs),
(632,386,o),
(655,408,o),
(661,440,c)
);
},
{
closed = 1;
nodes = (
(395,188,o),
(478,253,o),
(495,350,cs),
(512,446,o),
(451,510,o),
(344,510,cs),
(237,510,o),
(154,446,o),
(136,350,cs),
(119,253,o),
(180,188,o),
(287,188,cs)
);
},
{
closed = 1;
nodes = (
(266,430,o),
(301,483,o),
(339,483,cs),
(378,483,o),
(394,430,o),
(380,350,cs),
(366,269,o),
(330,215,o),
(292,215,cs),
(253,215,o),
(237,269,o),
(251,350,cs)
);
},
{
closed = 1;
nodes = (
(169,212,o),
(84,168,o),
(72,102,cs),
(60,31,o),
(97,-16,o),
(166,-15,cs),
(279,-15,ls),
(350,-15,o),
(373,-43,o),
(366,-86,cs),
(353,-157,o),
(298,-204,o),
(228,-204,cs),
(150,-204,o),
(108,-150,o),
(122,-70,cs),
(128,-34,o),
(150,-7,o),
(177,-2,c),
(146,-2,l),
(79,-16,o),
(30,-54,o),
(22,-97,cs),
(8,-177,o),
(86,-230,o),
(217,-230,cs),
(348,-230,o),
(447,-161,o),
(465,-59,cs),
(482,36,o),
(442,99,o),
(311,99,cs),
(193,99,ls),
(161,100,o),
(142,115,o),
(146,137,cs),
(151,168,o),
(208,188,o),
(287,188,c),
(285,212,l)
);
},
{
closed = 1;
nodes = (
(666,473,o),
(648,495,o),
(615,495,cs),
(566,495,o),
(511,463,o),
(479,415,c),
(481,385,l),
(506,422,o),
(537,447,o),
(559,447,cs),
(561,447,o),
(560,439,o),
(558,426,c),
(661,440,l)
);
}
);
width = 510;
}
);
note = g;
unicode = 103;
},
{
glyphname = h;
lastChange = "2026-03-04 14:02:54 +0000";
layers = (
{
anchors = (
{
name = bottom;
pos = (318,0);
},
{
name = center;
pos = (159,780);
},
{
name = top;
pos = (318,975);
}
);
layerId = m01;
shapes = (
{
closed = 1;
nodes = (
(170,38,l),
(276,638,l),
(226,638,l),
(120,38,l)
);
},
{
closed = 1;
nodes = (
(225,363,l),
(281,429,o),
(358,473,o),
(417,473,cs),
(512,473,o),
(551,418,o),
(536,335,cs),
(483,38,l),
(533,38,l),
(586,335,ls),
(604,440,o),
(561,510,o),
(453,510,cs),
(385,510,o),
(295,457,o),
(228,378,c)
);
},
{
closed = 1;
nodes = (
(120,38,l),
(119,34,o),
(97,33,o),
(64,33,cs),
(49,33,l),
(46,16,l),
(43,0,l),
(234,0,l),
(237,16,l),
(240,33,l),
(224,33,ls),
(191,33,o),
(169,34,o),
(170,38,c)
);
},
{
closed = 1;
nodes = (
(483,38,l),
(483,34,o),
(461,33,o),
(428,33,cs),
(412,33,l),
(409,16,l),
(406,0,l),
(597,0,l),
(600,16,l),
(603,33,l),
(587,33,ls),
(555,33,o),
(533,34,o),
(533,38,c)
);
},
{
closed = 1;
nodes = (
(296,750,l),
(287,750,l),
(170,718,l),
(168,711,o),
(167,702,cs),
(164,685,l),
(180,690,ls),
(215,699,o),
(235,692,o),
(224,626,c),
(276,638,l)
);
}
);
width = 635;
},
{
anchors = (
{
name = bottom;
pos = (318,0);
},
{
name = center;
pos = (159,780);
},
{
name = top;
pos = (318,975);
}
);
layerId = "138274BD-2AF4-44A3-9B34-6F786694E642";
shapes = (
{
closed = 1;
nodes = (
(208,38,l),
(313,638,l),
(213,638,l),
(108,38,l)
);
},
{
closed = 1;
nodes = (
(260,361,l),
(295,406,o),
(350,436,o),
(398,436,cs),
(468,436,o),
(497,396,o),
(486,335,cs),
(433,38,l),
(533,38,l),
(586,335,ls),
(604,440,o),
(567,510,o),
(470,510,cs),
(403,510,o),
(321,462,o),
(265,390,c)
);
},
{
closed = 1;
nodes = (
(108,38,l),
(107,34,o),
(85,33,o),
(52,33,cs),
(36,33,l),
(36,33,o),
(35,26,o),
(33,16,cs),
(31,7,o),
(30,0,o),
(30,0,c),
(271,0,l),
(271,0,o),
(272,7,o),
(274,16,cs),
(276,26,o),
(277,33,o),
(277,33,c),
(261,33,ls),
(229,33,o),
(207,34,o),
(208,38,c)
);
},
{
closed = 1;
nodes = (
(433,38,l),
(433,34,o),
(411,33,o),
(378,33,cs),
(362,33,l),
(362,33,o),
(361,26,o),
(359,16,cs),
(357,7,o),
(356,0,o),
(356,0,c),
(597,0,l),
(597,0,o),
(598,7,o),
(600,16,cs),
(602,26,o),
(603,33,o),
(603,33,c),
(587,33,ls),
(555,33,o),
(533,34,o),
(533,38,c)
);
},
{
closed = 1;
nodes = (
(330,732,o),
(333,750,o),
(333,750,c),
(333,750,l),
(333,750,o),
(333,750,o),
(333,750,c),
(333,750,o),
(333,750,o),
(333,750,c),
(315,750,l),
(155,706,l),
(155,706,o),
(154,700,o),
(152,690,cs),
(150,680,o),
(149,673,o),
(149,674,c),
(166,678,ls),
(200,687,o),
(221,681,o),
(209,614,c),
(313,638,l)
);
}
);
width = 635;
},
{
anchors = (
{
name = bottom;
pos = (318,0);
},
{
name = center;
pos = (159,780);
},
{
name = top;
pos = (318,975);
}
);
layerId = "0E723D17-59BC-4C5E-BFCA-41CEB45896D2";
shapes = (
{
closed = 1;
nodes = (
(249,0,l),
(249,0,o),
(250,7,o),
(252,16,cs),
(254,26,o),
(255,33,o),
(255,33,c),
(239,33,ls),
(206,33,o),
(184,34,o),
(185,38,cs),
(243,367,l),
(290,422,o),
(357,458,o),
(410,458,cs),
(494,458,o),
(529,409,o),
(516,335,cs),
(463,38,l),
(463,34,o),
(441,33,o),
(408,33,cs),
(392,33,l),
(392,33,o),
(391,26,o),
(389,16,cs),
(387,7,o),
(386,0,o),
(386,0,c),
(597,0,l),
(597,0,o),
(598,7,o),
(600,16,cs),
(602,26,o),
(603,33,o),
(603,33,c),
(587,33,ls),
(555,33,o),
(533,34,o),
(533,38,c),
(586,335,ls),
(604,440,o),
(564,510,o),
(460,510,cs),
(393,510,o),
(309,462,o),
(247,388,c),
(291,638,ls),
(307,732,o),
(310,750,o),
(311,750,c),
(311,750,l),
(298,750,l),
(164,713,l),
(164,713,o),
(163,707,o),
(161,697,cs),
(159,688,o),
(158,681,o),
(158,681,c),
(158,681,l),
(158,681,o),
(158,681,o),
(158,681,c),
(175,685,ls),
(209,694,o),
(229,688,o),
(218,621,cs),
(115,38,ls),
(114,34,o),
(92,33,o),
(59,33,cs),
(44,33,l),
(44,33,o),
(43,26,o),
(41,16,cs),
(39,7,o),
(38,0,o),
(38,0,c)
);
}
);
width = 635;
},
{
anchors = (
{
name = bottom;
pos = (318,0);
},
{
name = center;
pos = (159,780);
},
{
name = top;
pos = (318,975);
}
);
layerId = "14257FDA-2614-4218-93F6-F0A118F23CCC";
shapes = (
{
closed = 1;
nodes = (
(197,38,l),
(303,638,l),
(217,638,l),
(111,38,l)
);
},
{
closed = 1;
nodes = (
(250,361,l),
(291,413,o),
(352,447,o),
(404,447,cs),
(480,447,o),
(512,402,o),
(500,335,cs),
(447,38,l),
(533,38,l),
(586,335,ls),
(604,440,o),
(565,510,o),
(465,510,cs),
(398,510,o),
(314,461,o),
(254,387,c)
);
},
{
closed = 1;
nodes = (
(111,38,l),
(110,34,o),
(88,33,o),
(55,33,cs),
(40,33,l),
(40,33,o),
(39,26,o),
(37,16,cs),
(35,7,o),
(34,0,o),
(34,0,c),
(261,0,l),
(261,0,o),
(262,7,o),
(264,16,cs),
(266,26,o),
(267,33,o),
(266,33,cs),
(251,33,ls),
(218,33,o),
(196,34,o),
(197,38,c)
);
},
{
closed = 1;
nodes = (
(447,38,l),
(447,34,o),
(425,33,o),
(392,33,cs),
(376,33,l),
(376,33,o),
(375,26,o),
(373,16,cs),
(371,7,o),
(370,0,o),
(370,0,c),
(597,0,l),
(597,0,o),
(598,7,o),
(600,16,cs),
(602,26,o),
(603,33,o),
(603,33,c),
(587,33,ls),
(555,33,o),
(533,34,o),
(533,38,c)
);
},
{
closed = 1;
nodes = (
(319,732,o),
(322,750,o),
(323,750,c),
(323,750,l),
(322,750,o),
(322,750,o),
(323,750,c),
(322,750,o),
(322,750,o),
(323,750,cs),
(307,750,l),
(159,710,l),
(159,710,o),
(158,703,o),
(156,693,cs),
(154,683,o),
(153,677,o),
(153,677,c),
(170,681,ls),
(204,691,o),
(225,684,o),
(213,617,c),
(303,638,l)
);
}
);
width = 635;
},
{
anchors = (
{
name = bottom;
pos = (318,0);
},
{
name = center;
pos = (159,780);
},
{
name = top;
pos = (318,975);
}
);
layerId = "BBA8B076-D1F2-4268-BE72-89D7CC5EB943";
shapes = (
{
closed = 1;
nodes = (
(219,38,l),
(325,638,l),
(210,638,l),
(104,38,l)
);
},
{
closed = 1;
nodes = (
(270,360,l),
(299,399,o),
(348,425,o),
(393,425,cs),
(455,425,o),
(480,389,o),
(471,335,cs),
(418,38,l),
(533,38,l),
(586,335,ls),
(604,440,o),
(569,510,o),
(475,510,cs),
(408,510,o),
(329,464,o),
(276,394,c)
);
},
{
closed = 1;
nodes = (
(104,38,l),
(103,34,o),
(81,33,o),
(48,33,cs),
(32,33,l),
(33,33,o),
(32,26,o),
(30,16,cs),
(28,7,o),
(27,0,o),
(27,0,c),
(283,0,l),
(283,0,o),
(284,7,o),
(285,16,cs),
(287,26,o),
(289,33,o),
(288,33,cs),
(273,33,ls),
(240,33,o),
(218,34,o),
(219,38,c)
);
},
{
closed = 1;
nodes = (
(418,38,l),
(418,34,o),
(396,33,o),
(363,33,cs),
(347,33,l),
(347,33,o),
(346,26,o),
(344,16,cs),
(342,7,o),
(341,0,o),
(341,0,c),
(597,0,l),
(597,0,o),
(598,7,o),
(600,16,cs),
(602,26,o),
(603,33,o),
(603,33,c),
(587,33,ls),
(555,33,o),
(533,34,o),
(533,38,c)
);
},
{
closed = 1;
nodes = (
(341,732,o),
(344,750,o),
(344,750,c),
(344,750,l),
(344,750,o),
(344,750,o),
(344,750,c),
(344,750,o),
(344,750,o),
(344,750,c),
(324,750,l),
(151,703,l),
(151,703,o),
(150,696,o),
(148,686,cs),
(146,676,o),
(145,670,o),
(145,670,c),
(161,674,ls),
(196,684,o),
(216,677,o),
(205,610,c),
(325,638,l)
);
}
);
width = 635;
}
);
note = h;
unicode = 104;
},
{
glyphname = k;
lastChange = "2026-03-04 14:02:54 +0000";
layers = (
{
anchors = (
{
name = bottom;
pos = (252,0);
},
{
name = top;
pos = (252,975);
}
);
layerId = m01;
shapes = (
{
closed = 1;
nodes = (
(179,38,l),
(285,638,l),
(235,638,l),
(129,38,l)
);
},
{
closed = 1;
nodes = (
(242,280,l),
(521,500,l),
(501,500,l),
(222,280,l)
);
},
{
closed = 1;
nodes = (
(449,0,l),
(265,313,l),
(222,280,l),
(384,0,l)
);
},
{
closed = 1;
nodes = (
(129,38,l),
(128,34,o),
(109,33,o),
(82,33,cs),
(66,33,l),
(66,33,o),
(65,26,o),
(63,16,cs),
(61,7,o),
(60,0,o),
(60,0,c),
(234,0,l),
(234,0,o),
(235,7,o),
(237,16,cs),
(239,26,o),
(240,33,o),
(240,33,c),
(224,33,ls),
(196,33,o),
(178,34,o),
(179,38,c)
);
},
{
closed = 1;
nodes = (
(305,750,l),
(304,750,o),
(304,750,o),
(296,750,c),
(179,718,l),
(179,718,o),
(177,711,o),
(176,702,cs),
(174,692,o),
(173,685,o),
(173,685,c),
(189,690,ls),
(224,699,o),
(244,692,o),
(233,626,c),
(285,638,l)
);
},
{
closed = 1;
nodes = (
(362,38,l),
(365,34,o),
(354,33,o),
(337,33,cs),
(320,33,l),
(320,33,o),
(319,26,o),
(317,16,cs),
(315,7,o),
(314,0,o),
(314,0,c),
(469,0,l),
(469,0,o),
(470,7,o),
(472,16,cs),
(474,26,o),
(475,33,o),
(475,33,c),
(444,33,ls),
(436,33,o),
(429,34,o),
(426,38,c)
);
},
{
closed = 1;
nodes = (
(478,466,o),
(490,467,o),
(505,467,cs),
(534,467,l),
(533,467,o),
(535,474,o),
(536,484,cs),
(538,493,o),
(539,500,o),
(539,500,c),
(348,500,l),
(348,500,o),
(347,493,o),
(345,484,cs),
(343,474,o),
(342,467,o),
(342,467,c),
(359,467,ls),
(419,467,o),
(448,458,o),
(391,413,c),
(473,462,l)
);
}
);
width = 503;
},
{
anchors = (
{
name = bottom;
pos = (312,0);
},
{
name = top;
pos = (312,975);
}
);
layerId = "138274BD-2AF4-44A3-9B34-6F786694E642";
shapes = (
{
closed = 1;
nodes = (
(217,38,l),
(322,638,l),
(222,638,l),
(117,38,l)
);
},
{
closed = 1;
nodes = (
(300,280,l),
(625,500,l),
(585,500,l),
(259,280,l)
);
},
{
closed = 1;
nodes = (
(568,0,l),
(351,338,l),
(259,280,l),
(440,0,l)
);
},
{
closed = 1;
nodes = (
(117,38,l),
(116,34,o),
(97,33,o),
(69,33,cs),
(53,33,l),
(54,33,o),
(53,26,o),
(51,16,cs),
(49,7,o),
(48,0,o),
(48,0,c),
(160,0,l),
(272,0,l),
(272,0,o),
(273,7,o),
(275,16,cs),
(277,26,o),
(278,33,o),
(278,33,c),
(262,33,ls),
(234,33,o),
(216,34,o),
(217,38,c)
);
},
{
closed = 1;
nodes = (
(339,732,o),
(342,750,o),
(342,750,c),
(342,750,l),
(342,750,o),
(342,750,o),
(342,750,c),
(342,750,o),
(342,750,o),
(342,750,c),
(324,750,l),
(164,706,l),
(164,706,o),
(163,700,o),
(161,690,cs),
(159,680,o),
(158,673,o),
(158,674,c),
(175,678,ls),
(209,687,o),
(230,681,o),
(218,614,c),
(322,638,l)
);
},
{
closed = 1;
nodes = (
(415,38,l),
(418,34,o),
(408,33,o),
(391,33,cs),
(375,33,l),
(375,33,o),
(374,26,o),
(372,16,cs),
(370,7,o),
(369,0,o),
(369,0,c),
(478,0,l),
(587,0,l),
(587,0,o),
(588,7,o),
(590,16,cs),
(592,26,o),
(593,33,o),
(593,33,c),
(562,33,ls),
(553,33,o),
(546,34,o),
(544,38,c)
);
},
{
closed = 1;
nodes = (
(575,466,o),
(587,467,o),
(602,467,cs),
(631,467,l),
(630,467,o),
(632,474,o),
(634,484,cs),
(635,493,o),
(636,500,o),
(636,500,c),
(534,500,l),
(432,500,ls),
(431,500,o),
(430,493,o),
(429,484,cs),
(427,474,o),
(426,467,o),
(426,467,c),
(442,467,ls),
(499,467,o),
(524,458,o),
(457,413,c),
(569,462,l)
);
}
);
width = 623;
},
{
anchors = (
{
name = bottom;
pos = (276,0);
},
{
name = top;
pos = (276,975);
}
);
layerId = "0E723D17-59BC-4C5E-BFCA-41CEB45896D2";
shapes = (
{
closed = 1;
nodes = (
(249,0,l),
(249,0,o),
(250,7,o),
(252,16,cs),
(254,26,o),
(255,33,o),
(255,33,c),
(239,33,ls),
(211,33,o),
(193,34,o),
(194,38,cs),
(300,638,l),
(320,750,l),
(307,750,l),
(173,713,l),
(173,713,o),
(172,707,o),
(170,697,cs),
(168,688,o),
(167,681,o),
(167,681,c),
(167,681,l),
(167,681,o),
(167,681,o),
(167,681,c),
(184,685,ls),
(218,694,o),
(238,688,o),
(227,621,cs),
(124,38,ls),
(123,34,o),
(104,33,o),
(77,33,cs),
(61,33,l),
(61,33,o),
(60,26,o),
(58,16,cs),
(56,7,o),
(55,0,o),
(55,0,c)
);
},
{
closed = 1;
nodes = (
(407,0,l),
(496,0,l),
(516,0,l),
(516,0,o),
(517,7,o),
(519,16,cs),
(521,26,o),
(522,33,o),
(522,33,c),
(492,33,ls),
(483,33,o),
(476,34,o),
(473,38,c),
(473,38,l),
(307,311,l),
(513,463,l),
(519,466,o),
(531,467,o),
(544,467,cs),
(572,467,l),
(572,467,o),
(574,474,o),
(575,484,cs),
(577,493,o),
(578,500,o),
(578,500,c),
(563,500,l),
(535,500,l),
(381,500,l),
(381,500,o),
(380,493,o),
(378,484,cs),
(377,474,o),
(375,467,o),
(376,467,cs),
(392,467,ls),
(451,467,o),
(479,458,o),
(417,413,c),
(418,413,l),
(237,280,l),
(384,38,l),
(385,35,o),
(374,33,o),
(358,33,cs),
(342,33,l),
(342,33,o),
(341,26,o),
(339,16,cs),
(337,7,o),
(336,0,o),
(336,0,c)
);
}
);
width = 551;
},
{
anchors = (
{
name = bottom;
pos = (295,0);
},
{
name = top;
pos = (295,975);
}
);
layerId = "14257FDA-2614-4218-93F6-F0A118F23CCC";
shapes = (
{
closed = 1;
nodes = (
(206,38,l),
(312,638,l),
(226,638,l),
(120,38,l)
);
},
{
closed = 1;
nodes = (
(283,280,l),
(596,500,l),
(561,500,l),
(249,280,l)
);
},
{
closed = 1;
nodes = (
(535,0,l),
(326,332,l),
(249,280,l),
(424,0,l)
);
},
{
closed = 1;
nodes = (
(120,38,l),
(119,34,o),
(100,33,o),
(73,33,cs),
(57,33,l),
(57,33,o),
(56,26,o),
(54,16,cs),
(52,7,o),
(51,0,o),
(51,0,c),
(261,0,l),
(261,0,o),
(262,7,o),
(264,16,cs),
(266,26,o),
(267,33,o),
(267,33,c),
(251,33,ls),
(223,33,o),
(205,34,o),
(206,38,c)
);
},
{
closed = 1;
nodes = (
(328,732,o),
(331,750,o),
(332,750,c),
(332,750,l),
(331,750,o),
(331,750,o),
(332,750,c),
(331,750,o),
(331,750,o),
(332,750,cs),
(316,750,l),
(168,710,l),
(168,710,o),
(167,703,o),
(165,693,cs),
(163,683,o),
(162,677,o),
(162,677,c),
(179,681,ls),
(213,691,o),
(234,684,o),
(222,617,c),
(312,638,l)
);
},
{
closed = 1;
nodes = (
(400,38,l),
(403,34,o),
(393,33,o),
(376,33,cs),
(360,33,l),
(360,33,o),
(359,26,o),
(357,16,cs),
(355,7,o),
(354,0,o),
(354,0,c),
(554,0,l),
(554,0,o),
(555,7,o),
(557,16,cs),
(559,26,o),
(560,33,o),
(560,33,c),
(529,33,ls),
(520,33,o),
(513,34,o),
(511,38,c)
);
},
{
closed = 1;
nodes = (
(548,466,o),
(560,467,o),
(575,467,cs),
(603,467,l),
(603,467,o),
(604,474,o),
(606,484,cs),
(608,493,o),
(609,500,o),
(609,500,c),
(408,500,l),
(408,500,o),
(407,493,o),
(405,484,cs),
(403,474,o),
(402,467,o),
(402,467,c),
(419,467,ls),
(476,467,o),
(502,458,o),
(438,413,c),
(542,462,l)
);
}
);
width = 589;
},
{
anchors = (
{
name = bottom;
pos = (329,0);
},
{
name = top;
pos = (329,975);
}
);
layerId = "BBA8B076-D1F2-4268-BE72-89D7CC5EB943";
shapes = (
{
closed = 1;
nodes = (
(228,38,l),
(334,638,l),
(219,638,l),
(113,38,l)
);
},
{
closed = 1;
nodes = (
(317,280,l),
(656,500,l),
(610,500,l),
(270,280,l)
);
},
{
closed = 1;
nodes = (
(604,0,l),
(377,345,l),
(270,280,l),
(457,0,l)
);
},
{
closed = 1;
nodes = (
(113,38,l),
(112,34,o),
(93,33,o),
(66,33,cs),
(50,33,l),
(50,33,o),
(49,26,o),
(47,16,cs),
(45,7,o),
(44,0,o),
(44,0,c),
(283,0,l),
(283,0,o),
(284,7,o),
(286,16,cs),
(288,26,o),
(289,33,o),
(289,33,c),
(273,33,ls),
(245,33,o),
(227,34,o),
(228,38,c)
);
},
{
closed = 1;
nodes = (
(350,732,o),
(353,750,o),
(353,750,c),
(353,750,l),
(353,750,o),
(353,750,o),
(353,750,c),
(353,750,o),
(353,750,o),
(353,750,c),
(333,750,l),
(160,703,l),
(160,703,o),
(159,696,o),
(157,686,cs),
(155,676,o),
(154,670,o),
(154,670,c),
(170,674,ls),
(205,684,o),
(225,677,o),
(214,610,c),
(334,638,l)
);
},
{
closed = 1;
nodes = (
(431,38,l),
(434,34,o),
(424,33,o),
(408,33,cs),
(392,33,l),
(392,33,o),
(391,26,o),
(389,16,cs),
(387,7,o),
(386,0,o),
(386,0,c),
(622,0,l),
(622,0,o),
(623,7,o),
(625,16,cs),
(627,26,o),
(628,33,o),
(628,33,c),
(598,33,ls),
(589,33,o),
(582,34,o),
(579,38,c)
);
},
{
closed = 1;
nodes = (
(605,466,o),
(616,467,o),
(632,467,cs),
(660,467,l),
(660,467,o),
(661,474,o),
(663,484,cs),
(664,493,o),
(665,500,o),
(666,500,cs),
(457,500,l),
(457,500,o),
(456,493,o),
(454,484,cs),
(452,474,o),
(451,467,o),
(451,467,c),
(467,467,ls),
(522,467,o),
(546,458,o),
(476,413,c),
(598,462,l)
);
}
);
width = 658;
}
);
note = k;
unicode = 107;
},
{
glyphname = l;
lastChange = "2026-03-04 14:02:54 +0000";
layers = (
{
anchors = (
{
name = bottom;
pos = (131,0);
},
{
name = center;
pos = (131,250);
},
{
name = top;
pos = (131,975);
},
{
name = topright;
pos = (241,975);
}
);
layerId = m01;
shapes = (
{
closed = 1;
nodes = (
(169,38,l),
(275,638,l),
(225,638,l),
(119,38,l)
);
},
{
closed = 1;
nodes = (
(119,38,l),
(118,34,o),
(98,33,o),
(68,33,cs),
(52,33,l),
(52,33,o),
(51,26,o),
(49,16,cs),
(47,7,o),
(46,0,o),
(46,0,c),
(137,0,l),
(229,0,l),
(229,0,o),
(230,7,o),
(232,16,cs),
(233,26,o),
(235,33,o),
(234,33,cs),
(219,33,ls),
(188,33,o),
(168,34,o),
(169,38,c)
);
},
{
closed = 1;
nodes = (
(295,750,l),
(286,750,l),
(169,718,l),
(169,718,o),
(163,685,o),
(163,685,c),
(179,690,ls),
(214,699,o),
(234,692,o),
(223,626,c),
(275,638,l)
);
}
);
width = 261;
},
{
anchors = (
{
name = bottom;
pos = (149,0);
},
{
name = center;
pos = (149,250);
},
{
name = top;
pos = (149,975);
},
{
name = topright;
pos = (278,975);
}
);
layerId = "138274BD-2AF4-44A3-9B34-6F786694E642";
shapes = (
{
closed = 1;
nodes = (
(207,38,l),
(312,638,l),
(212,638,l),
(107,38,l)
);
},
{
closed = 1;
nodes = (
(107,38,l),
(106,34,o),
(86,33,o),
(55,33,cs),
(39,33,l),
(40,33,o),
(38,26,o),
(36,16,cs),
(35,7,o),
(34,0,o),
(34,0,c),
(150,0,l),
(266,0,l),
(266,0,o),
(267,7,o),
(269,16,cs),
(271,26,o),
(272,33,o),
(272,33,c),
(256,33,ls),
(226,33,o),
(206,34,o),
(207,38,c)
);
},
{
closed = 1;
nodes = (
(329,732,o),
(332,750,o),
(332,750,c),
(332,750,l),
(332,750,o),
(332,750,o),
(332,750,c),
(332,750,o),
(332,750,o),
(332,750,c),
(314,750,l),
(154,706,l),
(154,706,o),
(153,700,o),
(151,690,cs),
(149,680,o),
(148,673,o),
(148,674,c),
(165,678,ls),
(199,687,o),
(220,681,o),
(208,614,c),
(312,638,l)
);
}
);
width = 298;
},
{
anchors = (
{
name = bottom;
pos = (138,0);
},
{
name = center;
pos = (138,250);
},
{
name = top;
pos = (138,975);
},
{
name = topright;
pos = (256,975);
}
);
layerId = "0E723D17-59BC-4C5E-BFCA-41CEB45896D2";
shapes = (
{
closed = 1;
nodes = (
(142,0,l),
(244,0,l),
(244,0,o),
(245,7,o),
(247,16,cs),
(248,26,o),
(250,33,o),
(249,33,cs),
(234,33,ls),
(203,33,o),
(183,34,o),
(184,38,cs),
(290,638,ls),
(306,732,o),
(309,750,o),
(310,750,c),
(310,750,l),
(297,750,l),
(163,713,l),
(163,713,o),
(162,707,o),
(160,697,cs),
(158,688,o),
(157,681,o),
(157,681,c),
(157,681,l),
(157,681,o),
(157,681,o),
(157,681,c),
(174,685,ls),
(208,694,o),
(228,688,o),
(217,621,cs),
(114,38,ls),
(113,34,o),
(93,33,o),
(63,33,cs),
(47,33,l),
(47,33,o),
(46,26,o),
(44,16,cs),
(42,7,o),
(41,0,o),
(41,0,c)
);
}
);
width = 276;
},
{
anchors = (
{
name = bottom;
pos = (144,0);
},
{
name = center;
pos = (144,250);
},
{
name = top;
pos = (144,975);
},
{
name = topright;
pos = (268,975);
}
);
layerId = "14257FDA-2614-4218-93F6-F0A118F23CCC";
shapes = (
{
closed = 1;
nodes = (
(196,38,l),
(302,638,l),
(216,638,l),
(110,38,l)
);
},
{
closed = 1;
nodes = (
(110,38,l),
(109,34,o),
(89,33,o),
(59,33,cs),
(43,33,l),
(43,33,o),
(42,26,o),
(40,16,cs),
(38,7,o),
(37,0,o),
(37,0,c),
(146,0,l),
(256,0,l),
(256,0,o),
(257,7,o),
(258,16,cs),
(260,26,o),
(262,33,o),
(261,33,cs),
(246,33,ls),
(215,33,o),
(195,34,o),
(196,38,c)
);
},
{
closed = 1;
nodes = (
(318,732,o),
(321,750,o),
(322,750,c),
(322,750,l),
(321,750,o),
(321,750,o),
(322,750,c),
(321,750,o),
(321,750,o),
(322,750,cs),
(306,750,l),
(158,710,l),
(158,710,o),
(157,703,o),
(155,693,cs),
(153,683,o),
(152,677,o),
(152,677,c),
(169,681,ls),
(203,691,o),
(224,684,o),
(212,617,c),
(302,638,l)
);
}
);
width = 288;
},
{
anchors = (
{
name = bottom;
pos = (155,0);
},
{
name = center;
pos = (155,250);
},
{
name = top;
pos = (155,975);
},
{
name = topright;
pos = (289,975);
}
);
layerId = "BBA8B076-D1F2-4268-BE72-89D7CC5EB943";
shapes = (
{
closed = 1;
nodes = (
(218,38,l),
(324,638,l),
(209,638,l),
(103,38,l)
);
},
{
closed = 1;
nodes = (
(103,38,l),
(102,34,o),
(82,33,o),
(51,33,cs),
(36,33,l),
(36,33,o),
(35,26,o),
(33,16,cs),
(31,7,o),
(30,0,o),
(30,0,c),
(154,0,l),
(277,0,l),
(277,0,o),
(278,7,o),
(280,16,cs),
(282,26,o),
(283,33,o),
(283,33,c),
(267,33,ls),
(237,33,o),
(217,34,o),
(218,38,c)
);
},
{
closed = 1;
nodes = (
(340,732,o),
(343,750,o),
(343,750,c),
(343,750,l),
(343,750,o),
(343,750,o),
(343,750,c),
(343,750,o),
(343,750,o),
(343,750,c),
(323,750,l),
(150,703,l),
(150,703,o),
(149,696,o),
(147,686,cs),
(145,676,o),
(144,670,o),
(144,670,c),
(160,674,ls),
(195,684,o),
(215,677,o),
(204,610,c),
(324,638,l)
);
}
);
width = 309;
}
);
note = l;
unicode = 108;
},
{
glyphname = m;
lastChange = "2026-03-04 14:02:54 +0000";
layers = (
{
anchors = (
{
name = bottom;
pos = (471,0);
},
{
name = top;
pos = (471,500);
}
);
layerId = m01;
shapes = (
{
closed = 1;
nodes = (
(163,38,l),
(225,388,l),
(175,388,l),
(113,38,l)
);
},
{
closed = 1;
nodes = (
(218,363,l),
(272,429,o),
(344,473,o),
(399,473,cs),
(488,473,o),
(524,418,o),
(509,335,cs),
(456,38,l),
(506,38,l),
(559,335,ls),
(577,440,o),
(537,510,o),
(435,510,cs),
(371,510,o),
(285,457,o),
(221,378,c)
);
},
{
closed = 1;
nodes = (
(561,363,l),
(615,429,o),
(687,473,o),
(742,473,cs),
(831,473,o),
(867,418,o),
(852,335,cs),
(800,38,l),
(850,38,l),
(902,335,ls),
(921,440,o),
(880,510,o),
(777,510,cs),
(713,510,o),
(628,457,o),
(564,378,c)
);
},
{
closed = 1;
nodes = (
(114,45,l),
(112,35,o),
(90,33,o),
(57,33,cs),
(42,33,l),
(42,33,o),
(36,0,o),
(36,0,c),
(125,0,l),
(214,0,l),
(214,0,o),
(220,33,o),
(220,33,c),
(204,33,ls),
(179,33,o),
(162,35,o),
(164,45,c)
);
},
{
closed = 1;
nodes = (
(458,45,l),
(456,35,o),
(437,33,o),
(409,33,cs),
(393,33,l),
(388,0,l),
(471,0,l),
(554,0,l),
(554,0,o),
(560,33,o),
(559,33,cs),
(543,33,ls),
(521,33,o),
(506,35,o),
(508,45,c)
);
},
{
closed = 1;
nodes = (
(245,500,l),
(236,500,l),
(117,459,l),
(117,459,o),
(116,453,o),
(114,443,cs),
(112,433,o),
(111,427,o),
(111,427,c),
(128,432,ls),
(163,444,o),
(183,439,o),
(172,373,c),
(225,388,l)
);
},
{
closed = 1;
nodes = (
(801,45,l),
(799,35,o),
(780,33,o),
(752,33,cs),
(737,33,l),
(737,33,o),
(731,0,o),
(731,0,c),
(822,0,l),
(913,0,l),
(913,0,o),
(919,33,o),
(919,33,c),
(903,33,ls),
(871,33,o),
(849,35,o),
(851,45,c)
);
}
);
width = 941;
},
{
anchors = (
{
name = bottom;
pos = (452,0);
},
{
name = top;
pos = (452,500);
}
);
layerId = "138274BD-2AF4-44A3-9B34-6F786694E642";
shapes = (
{
closed = 1;
nodes = (
(201,38,l),
(262,388,l),
(162,388,l),
(101,38,l)
);
},
{
closed = 1;
nodes = (
(253,361,l),
(286,406,o),
(337,436,o),
(380,436,cs),
(444,436,o),
(470,396,o),
(459,335,cs),
(406,38,l),
(506,38,l),
(559,335,ls),
(577,440,o),
(543,510,o),
(452,510,cs),
(388,510,o),
(311,462,o),
(258,390,c)
);
},
{
closed = 1;
nodes = (
(559,361,l),
(592,406,o),
(642,436,o),
(684,436,cs),
(749,436,o),
(775,396,o),
(765,335,cs),
(712,38,l),
(812,38,l),
(865,335,ls),
(883,440,o),
(848,510,o),
(756,510,cs),
(693,510,o),
(616,462,o),
(564,390,c)
);
},
{
closed = 1;
nodes = (
(102,45,l),
(100,35,o),
(78,33,o),
(45,33,cs),
(29,33,l),
(29,33,o),
(28,26,o),
(26,16,cs),
(24,7,o),
(23,0,o),
(23,0,c),
(138,0,l),
(252,0,l),
(252,0,o),
(253,7,o),
(255,16,cs),
(257,26,o),
(258,33,o),
(258,33,c),
(242,33,ls),
(217,33,o),
(200,35,o),
(202,45,c)
);
},
{
closed = 1;
nodes = (
(408,45,l),
(406,35,o),
(387,33,o),
(359,33,cs),
(343,33,l),
(344,33,o),
(342,26,o),
(340,16,cs),
(339,7,o),
(338,0,o),
(338,0,c),
(446,0,l),
(554,0,l),
(554,0,o),
(555,7,o),
(556,16,cs),
(558,26,o),
(560,33,o),
(559,33,cs),
(543,33,ls),
(521,33,o),
(506,35,o),
(508,45,c)
);
},
{
closed = 1;
nodes = (
(279,482,o),
(282,500,o),
(282,500,c),
(282,500,l),
(282,500,o),
(282,500,o),
(282,500,c),
(282,500,o),
(282,500,o),
(282,500,c),
(264,500,l),
(102,444,l),
(102,444,o),
(100,438,o),
(99,428,cs),
(97,418,o),
(96,411,o),
(96,412,c),
(113,417,ls),
(148,429,o),
(169,424,o),
(157,358,c),
(262,388,l)
);
},
{
closed = 1;
nodes = (
(713,45,l),
(711,35,o),
(692,33,o),
(665,33,cs),
(649,33,l),
(649,33,o),
(648,26,o),
(646,16,cs),
(644,7,o),
(643,0,o),
(643,0,c),
(760,0,l),
(876,0,l),
(876,0,o),
(877,7,o),
(879,16,cs),
(881,26,o),
(882,33,o),
(882,33,c),
(866,33,ls),
(833,33,o),
(811,35,o),
(813,45,c)
);
}
);
width = 904;
},
{
anchors = (
{
name = bottom;
pos = (463,0);
},
{
name = top;
pos = (463,500);
}
);
layerId = "0E723D17-59BC-4C5E-BFCA-41CEB45896D2";
shapes = (
{
closed = 1;
nodes = (
(130,0,l),
(229,0,l),
(229,0,o),
(230,7,o),
(232,16,cs),
(234,26,o),
(235,33,o),
(235,33,c),
(219,33,ls),
(196,33,o),
(180,34,o),
(179,43,c),
(236,367,l),
(281,422,o),
(343,458,o),
(392,458,cs),
(470,458,o),
(502,409,o),
(489,335,cs),
(437,42,l),
(432,35,o),
(414,33,o),
(389,33,cs),
(373,33,l),
(374,33,o),
(372,26,o),
(370,16,cs),
(369,7,o),
(368,0,o),
(368,0,c),
(461,0,l),
(554,0,l),
(554,0,o),
(555,7,o),
(556,16,cs),
(558,26,o),
(560,33,o),
(559,33,cs),
(543,33,ls),
(521,33,o),
(506,35,o),
(508,45,c),
(507,45,l),
(559,335,ls),
(561,346,o),
(562,355,o),
(563,365,c),
(608,422,o),
(669,458,o),
(719,458,cs),
(798,458,o),
(830,409,o),
(817,335,cs),
(766,45,l),
(766,45,l),
(764,35,o),
(745,33,o),
(717,33,cs),
(702,33,l),
(702,33,o),
(701,26,o),
(699,16,cs),
(697,7,o),
(696,0,o),
(696,0,c),
(797,0,l),
(898,0,l),
(898,0,o),
(899,7,o),
(901,16,cs),
(903,26,o),
(904,33,o),
(904,33,c),
(888,33,ls),
(858,33,o),
(837,34,o),
(836,43,c),
(887,335,ls),
(906,440,o),
(867,510,o),
(769,510,cs),
(705,510,o),
(623,459,o),
(564,383,c),
(563,380,l),
(565,460,o),
(525,510,o),
(442,510,cs),
(379,510,o),
(299,462,o),
(240,388,c),
(256,482,o),
(259,500,o),
(260,500,c),
(260,500,l),
(247,500,l),
(111,453,l),
(111,453,o),
(110,447,o),
(108,437,cs),
(106,427,o),
(105,421,o),
(105,421,c),
(122,426,ls),
(157,438,o),
(177,433,o),
(166,367,c),
(166,367,l),
(109,45,l),
(109,45,l),
(107,35,o),
(85,33,o),
(52,33,cs),
(37,33,l),
(37,33,o),
(36,26,o),
(34,16,cs),
(32,7,o),
(31,0,o),
(31,0,c)
);
}
);
width = 926;
},
{
anchors = (
{
name = bottom;
pos = (457,0);
},
{
name = top;
pos = (457,500);
}
);
layerId = "14257FDA-2614-4218-93F6-F0A118F23CCC";
shapes = (
{
closed = 1;
nodes = (
(190,38,l),
(252,388,l),
(166,388,l),
(104,38,l)
);
},
{
closed = 1;
nodes = (
(243,361,l),
(282,413,o),
(339,447,o),
(386,447,cs),
(456,447,o),
(485,402,o),
(473,335,cs),
(420,38,l),
(506,38,l),
(559,335,ls),
(577,440,o),
(541,510,o),
(447,510,cs),
(383,510,o),
(304,461,o),
(247,387,c)
);
},
{
closed = 1;
nodes = (
(559,361,l),
(598,413,o),
(654,447,o),
(700,447,cs),
(772,447,o),
(801,402,o),
(789,335,cs),
(737,38,l),
(823,38,l),
(875,335,ls),
(894,440,o),
(857,510,o),
(762,510,cs),
(698,510,o),
(619,461,o),
(564,387,c)
);
},
{
closed = 1;
nodes = (
(105,45,l),
(103,35,o),
(81,33,o),
(48,33,cs),
(33,33,l),
(33,33,o),
(32,26,o),
(30,16,cs),
(28,7,o),
(27,0,o),
(27,0,c),
(134,0,l),
(241,0,l),
(241,0,o),
(242,7,o),
(244,16,cs),
(246,26,o),
(247,33,o),
(247,33,c),
(231,33,ls),
(206,33,o),
(189,35,o),
(191,45,c)
);
},
{
closed = 1;
nodes = (
(422,45,l),
(420,35,o),
(401,33,o),
(373,33,cs),
(357,33,l),
(358,33,o),
(356,26,o),
(354,16,cs),
(353,7,o),
(352,0,o),
(352,0,c),
(453,0,l),
(554,0,l),
(554,0,o),
(555,7,o),
(556,16,cs),
(558,26,o),
(560,33,o),
(559,33,cs),
(543,33,ls),
(521,33,o),
(506,35,o),
(508,45,c)
);
},
{
closed = 1;
nodes = (
(268,482,o),
(271,500,o),
(271,500,c),
(271,500,l),
(271,500,o),
(271,500,o),
(271,500,c),
(271,500,o),
(271,500,o),
(271,500,c),
(256,500,l),
(106,449,l),
(106,449,o),
(105,442,o),
(103,432,cs),
(101,422,o),
(100,416,o),
(100,416,c),
(117,422,ls),
(152,433,o),
(173,428,o),
(161,362,c),
(252,388,l)
);
},
{
closed = 1;
nodes = (
(738,45,l),
(736,35,o),
(717,33,o),
(690,33,cs),
(674,33,l),
(674,33,o),
(673,26,o),
(671,16,cs),
(669,7,o),
(668,0,o),
(668,0,c),
(777,0,l),
(886,0,l),
(886,0,o),
(887,7,o),
(889,16,cs),
(891,26,o),
(892,33,o),
(892,33,c),
(876,33,ls),
(844,33,o),
(822,35,o),
(824,45,c)
);
}
);
width = 914;
},
{
anchors = (
{
name = bottom;
pos = (447,0);
},
{
name = top;
pos = (447,500);
}
);
layerId = "BBA8B076-D1F2-4268-BE72-89D7CC5EB943";
shapes = (
{
closed = 1;
nodes = (
(212,38,l),
(273,388,l),
(158,388,l),
(97,38,l)
);
},
{
closed = 1;
nodes = (
(263,360,l),
(291,399,o),
(336,425,o),
(375,425,cs),
(431,425,o),
(453,389,o),
(444,335,cs),
(391,38,l),
(506,38,l),
(559,335,ls),
(577,440,o),
(545,510,o),
(457,510,cs),
(394,510,o),
(319,464,o),
(269,394,c)
);
},
{
closed = 1;
nodes = (
(558,360,l),
(585,399,o),
(629,425,o),
(667,425,cs),
(724,425,o),
(748,389,o),
(738,335,cs),
(686,38,l),
(801,38,l),
(853,335,ls),
(872,440,o),
(838,510,o),
(749,510,cs),
(687,510,o),
(612,464,o),
(564,394,c)
);
},
{
closed = 1;
nodes = (
(98,45,l),
(96,35,o),
(74,33,o),
(41,33,cs),
(25,33,l),
(26,33,o),
(25,26,o),
(23,16,cs),
(21,7,o),
(20,0,o),
(20,0,c),
(141,0,l),
(263,0,l),
(263,0,o),
(264,7,o),
(266,16,cs),
(268,26,o),
(269,33,o),
(269,33,c),
(253,33,ls),
(228,33,o),
(211,35,o),
(213,45,c)
);
},
{
closed = 1;
nodes = (
(393,45,l),
(391,35,o),
(372,33,o),
(344,33,cs),
(328,33,l),
(329,33,o),
(327,26,o),
(325,16,cs),
(324,7,o),
(323,0,o),
(323,0,c),
(438,0,l),
(554,0,l),
(554,0,o),
(555,7,o),
(556,16,cs),
(558,26,o),
(560,33,o),
(559,33,cs),
(543,33,ls),
(521,33,o),
(506,35,o),
(508,45,c)
);
},
{
closed = 1;
nodes = (
(290,482,o),
(293,500,o),
(293,500,c),
(293,500,l),
(293,500,o),
(293,500,o),
(293,500,c),
(293,500,o),
(293,500,o),
(293,500,c),
(273,500,l),
(97,440,l),
(97,440,o),
(96,433,o),
(94,424,cs),
(93,414,o),
(92,407,o),
(91,407,c),
(108,413,ls),
(143,425,o),
(164,420,o),
(152,353,c),
(273,388,l)
);
},
{
closed = 1;
nodes = (
(687,45,l),
(685,35,o),
(666,33,o),
(639,33,cs),
(623,33,l),
(623,33,o),
(622,26,o),
(620,16,cs),
(618,7,o),
(617,0,o),
(617,0,c),
(741,0,l),
(865,0,l),
(865,0,o),
(866,7,o),
(868,16,cs),
(869,26,o),
(871,33,o),
(870,33,cs),
(855,33,ls),
(822,33,o),
(800,35,o),
(802,45,c)
);
}
);
width = 893;
}
);
note = m;
unicode = 109;
},
{
glyphname = n;
lastChange = "2026-03-04 14:02:54 +0000";
layers = (
{
anchors = (
{
name = bottom;
pos = (309,0);
},
{
name = top;
pos = (309,500);
}
);
layerId = m01;
shapes = (
{
closed = 1;
nodes = (
(163,38,l),
(225,388,l),
(175,388,l),
(113,38,l)
);
},
{
closed = 1;
nodes = (
(218,363,l),
(274,429,o),
(351,473,o),
(410,473,cs),
(505,473,o),
(544,418,o),
(529,335,cs),
(476,38,l),
(526,38,l),
(579,335,ls),
(597,440,o),
(554,510,o),
(446,510,cs),
(378,510,o),
(288,457,o),
(221,378,c)
);
},
{
closed = 1;
nodes = (
(113,38,l),
(112,34,o),
(92,33,o),
(62,33,cs),
(46,33,l),
(45,26,o),
(43,16,cs),
(41,7,o),
(40,0,c),
(131,0,l),
(223,0,l),
(224,7,o),
(226,16,cs),
(227,26,o),
(229,33,o),
(228,33,cs),
(213,33,ls),
(182,33,o),
(162,34,o),
(163,38,c)
);
},
{
closed = 1;
nodes = (
(476,38,l),
(476,34,o),
(455,33,o),
(425,33,cs),
(409,33,l),
(408,26,o),
(406,16,cs),
(404,7,o),
(403,0,c),
(495,0,l),
(586,0,l),
(587,7,o),
(589,16,cs),
(591,26,o),
(592,33,c),
(576,33,ls),
(546,33,o),
(526,34,o),
(526,38,c)
);
},
{
closed = 1;
nodes = (
(245,500,l),
(236,500,l),
(117,459,l),
(116,453,o),
(114,443,cs),
(112,433,o),
(111,427,c),
(128,432,ls),
(163,444,o),
(183,439,o),
(172,373,c),
(225,388,l)
);
}
);
width = 618;
},
{
anchors = (
{
name = bottom;
pos = (309,0);
},
{
name = top;
pos = (309,500);
}
);
layerId = "138274BD-2AF4-44A3-9B34-6F786694E642";
shapes = (
{
closed = 1;
nodes = (
(201,38,l),
(262,388,l),
(162,388,l),
(101,38,l)
);
},
{
closed = 1;
nodes = (
(253,361,l),
(288,406,o),
(343,436,o),
(391,436,cs),
(461,436,o),
(490,396,o),
(479,335,cs),
(426,38,l),
(526,38,l),
(579,335,ls),
(597,440,o),
(560,510,o),
(463,510,cs),
(396,510,o),
(314,462,o),
(258,390,c)
);
},
{
closed = 1;
nodes = (
(101,38,l),
(100,34,o),
(80,33,o),
(49,33,cs),
(33,33,l),
(34,33,o),
(32,26,o),
(30,16,cs),
(29,7,o),
(28,0,o),
(28,0,c),
(144,0,l),
(260,0,l),
(260,0,o),
(261,7,o),
(263,16,cs),
(265,26,o),
(266,33,o),
(266,33,c),
(250,33,ls),
(220,33,o),
(200,34,o),
(201,38,c)
);
},
{
closed = 1;
nodes = (
(426,38,l),
(426,34,o),
(405,33,o),
(375,33,cs),
(359,33,l),
(359,33,o),
(358,26,o),
(356,16,cs),
(354,7,o),
(353,0,o),
(353,0,c),
(470,0,l),
(586,0,l),
(586,0,o),
(587,7,o),
(589,16,cs),
(591,26,o),
(592,33,o),
(592,33,c),
(576,33,ls),
(546,33,o),
(526,34,o),
(526,38,c)
);
},
{
closed = 1;
nodes = (
(279,482,o),
(282,500,o),
(282,500,c),
(282,500,l),
(282,500,o),
(282,500,o),
(282,500,c),
(282,500,o),
(282,500,o),
(282,500,c),
(264,500,l),
(102,444,l),
(102,444,o),
(100,438,o),
(99,428,cs),
(97,418,o),
(96,411,o),
(96,412,c),
(113,417,ls),
(148,429,o),
(169,424,o),
(157,358,c),
(262,388,l)
);
}
);
width = 618;
},
{
anchors = (
{
name = bottom;
pos = (309,0);
},
{
name = top;
pos = (309,500);
}
);
layerId = "0E723D17-59BC-4C5E-BFCA-41CEB45896D2";
shapes = (
{
closed = 1;
nodes = (
(136,0,l),
(238,0,l),
(238,0,o),
(239,7,o),
(241,16,cs),
(242,26,o),
(244,33,o),
(243,33,cs),
(228,33,ls),
(197,33,o),
(177,34,o),
(178,38,cs),
(236,367,l),
(283,422,o),
(350,458,o),
(403,458,cs),
(487,458,o),
(522,409,o),
(509,335,cs),
(456,38,l),
(456,34,o),
(435,33,o),
(405,33,cs),
(389,33,l),
(389,33,o),
(388,26,o),
(386,16,cs),
(384,7,o),
(383,0,o),
(383,0,c),
(485,0,l),
(586,0,l),
(586,0,o),
(587,7,o),
(589,16,cs),
(591,26,o),
(592,33,o),
(592,33,c),
(576,33,ls),
(546,33,o),
(526,34,o),
(526,38,c),
(579,335,ls),
(597,440,o),
(557,510,o),
(453,510,cs),
(386,510,o),
(302,462,o),
(240,388,c),
(240,388,l),
(256,482,o),
(259,500,o),
(260,500,c),
(260,500,l),
(247,500,l),
(111,453,l),
(111,453,o),
(110,447,o),
(108,437,cs),
(106,427,o),
(105,421,o),
(105,421,c),
(122,426,ls),
(157,438,o),
(177,433,o),
(166,367,c),
(166,367,l),
(108,38,ls),
(107,34,o),
(87,33,o),
(57,33,cs),
(41,33,l),
(41,33,o),
(40,26,o),
(38,16,cs),
(36,7,o),
(35,0,o),
(35,0,c)
);
}
);
width = 618;
},
{
anchors = (
{
name = bottom;
pos = (309,0);
},
{
name = top;
pos = (309,500);
}
);
layerId = "14257FDA-2614-4218-93F6-F0A118F23CCC";
shapes = (
{
closed = 1;
nodes = (
(190,38,l),
(252,388,l),
(166,388,l),
(104,38,l)
);
},
{
closed = 1;
nodes = (
(243,361,l),
(284,413,o),
(345,447,o),
(397,447,cs),
(473,447,o),
(505,402,o),
(493,335,cs),
(440,38,l),
(526,38,l),
(579,335,ls),
(597,440,o),
(558,510,o),
(458,510,cs),
(391,510,o),
(307,461,o),
(247,387,c)
);
},
{
closed = 1;
nodes = (
(104,38,l),
(103,34,o),
(83,33,o),
(53,33,cs),
(37,33,l),
(37,33,o),
(36,26,o),
(34,16,cs),
(32,7,o),
(31,0,o),
(31,0,c),
(140,0,l),
(250,0,l),
(250,0,o),
(251,7,o),
(252,16,cs),
(254,26,o),
(256,33,o),
(255,33,cs),
(240,33,ls),
(209,33,o),
(189,34,o),
(190,38,c)
);
},
{
closed = 1;
nodes = (
(440,38,l),
(440,34,o),
(419,33,o),
(389,33,cs),
(373,33,l),
(373,33,o),
(372,26,o),
(370,16,cs),
(368,7,o),
(367,0,o),
(367,0,c),
(477,0,l),
(586,0,l),
(586,0,o),
(587,7,o),
(589,16,cs),
(591,26,o),
(592,33,o),
(592,33,c),
(576,33,ls),
(546,33,o),
(526,34,o),
(526,38,c)
);
},
{
closed = 1;
nodes = (
(268,482,o),
(271,500,o),
(271,500,c),
(271,500,l),
(271,500,o),
(271,500,o),
(271,500,c),
(271,500,o),
(271,500,o),
(271,500,c),
(256,500,l),
(106,449,l),
(106,449,o),
(105,442,o),
(103,432,cs),
(101,422,o),
(100,416,o),
(100,416,c),
(117,422,ls),
(152,433,o),
(173,428,o),
(161,362,c),
(252,388,l)
);
}
);
width = 618;
},
{
anchors = (
{
name = bottom;
pos = (309,0);
},
{
name = top;
pos = (309,500);
}
);
layerId = "BBA8B076-D1F2-4268-BE72-89D7CC5EB943";
shapes = (
{
closed = 1;
nodes = (
(212,38,l),
(273,388,l),
(158,388,l),
(97,38,l)
);
},
{
closed = 1;
nodes = (
(263,360,l),
(292,399,o),
(341,425,o),
(386,425,cs),
(448,425,o),
(473,389,o),
(464,335,cs),
(411,38,l),
(526,38,l),
(579,335,ls),
(597,440,o),
(562,510,o),
(468,510,cs),
(401,510,o),
(322,464,o),
(269,394,c)
);
},
{
closed = 1;
nodes = (
(97,38,l),
(96,34,o),
(76,33,o),
(45,33,cs),
(30,33,l),
(30,33,o),
(29,26,o),
(27,16,cs),
(25,7,o),
(24,0,o),
(24,0,c),
(271,0,l),
(271,0,o),
(272,7,o),
(274,16,cs),
(276,26,o),
(277,33,o),
(277,33,c),
(261,33,ls),
(231,33,o),
(211,34,o),
(212,38,c)
);
},
{
closed = 1;
nodes = (
(411,38,l),
(411,34,o),
(390,33,o),
(360,33,cs),
(344,33,l),
(344,33,o),
(343,26,o),
(341,16,cs),
(339,7,o),
(338,0,o),
(338,0,c),
(586,0,l),
(586,0,o),
(587,7,o),
(589,16,cs),
(591,26,o),
(592,33,o),
(592,33,c),
(576,33,ls),
(546,33,o),
(526,34,o),
(526,38,c)
);
},
{
closed = 1;
nodes = (
(290,482,o),
(293,500,o),
(293,500,c),
(293,500,l),
(293,500,o),
(293,500,o),
(293,500,c),
(293,500,o),
(293,500,o),
(293,500,c),
(273,500,l),
(97,440,l),
(97,440,o),
(96,433,o),
(94,424,cs),
(93,414,o),
(92,407,o),
(91,407,c),
(108,413,ls),
(143,425,o),
(164,420,o),
(152,353,c),
(273,388,l)
);
}
);
width = 618;
}
);
note = n;
unicode = 110;
},
{
glyphname = o;
lastChange = "2026-03-04 14:02:54 +0000";
layers = (
{
anchors = (
{
name = bottom;
pos = (284,0);
},
{
name = center;
pos = (284,250);
},
{
name = ogonek;
pos = (511,10);
},
{
name = top;
pos = (284,500);
},
{
name = topright;
pos = (548,500);
}
);
layerId = m01;
shapes = (
{
closed = 1;
nodes = (
(59,94,o),
(137,-10,o),
(281,-10,cs),
(426,-10,o),
(541,94,o),
(568,250,cs),
(596,406,o),
(518,510,o),
(373,510,cs),
(228,510,o),
(114,406,o),
(86,250,cs)
);
},
{
closed = 1;
nodes = (
(173,5,o),
(116,103,o),
(142,250,cs),
(168,397,o),
(259,495,o),
(370,495,cs),
(482,495,o),
(539,397,o),
(513,250,cs),
(487,103,o),
(396,5,o),
(284,5,cs)
);
}
);
width = 568;
},
{
anchors = (
{
name = bottom;
pos = (290,0);
},
{
name = center;
pos = (290,250);
},
{
name = ogonek;
pos = (522,10);
},
{
name = top;
pos = (290,500);
},
{
name = topright;
pos = (560,500);
}
);
layerId = "138274BD-2AF4-44A3-9B34-6F786694E642";
shapes = (
{
closed = 1;
nodes = (
(56,94,o),
(137,-10,o),
(286,-10,cs),
(434,-10,o),
(552,94,o),
(579,250,cs),
(607,406,o),
(526,510,o),
(377,510,cs),
(229,510,o),
(111,406,o),
(84,250,cs)
);
},
{
closed = 1;
nodes = (
(209,20,o),
(170,112,o),
(194,250,cs),
(218,388,o),
(290,480,o),
(372,480,cs),
(455,480,o),
(493,388,o),
(469,250,cs),
(445,112,o),
(374,20,o),
(291,20,cs)
);
}
);
width = 580;
},
{
anchors = (
{
name = bottom;
pos = (287,0);
},
{
name = center;
pos = (287,250);
},
{
name = ogonek;
pos = (516,10);
},
{
name = top;
pos = (287,500);
},
{
name = topright;
pos = (553,500);
}
);
layerId = "0E723D17-59BC-4C5E-BFCA-41CEB45896D2";
shapes = (
{
closed = 1;
nodes = (
(429,-10,o),
(545,94,o),
(573,250,cs),
(600,406,o),
(521,510,o),
(375,510,cs),
(228,510,o),
(113,406,o),
(85,250,cs),
(58,94,o),
(137,-10,o),
(283,-10,cs)
);
},
{
closed = 1;
nodes = (
(187,11,o),
(138,107,o),
(163,250,cs),
(188,393,o),
(272,489,o),
(371,489,cs),
(471,489,o),
(520,393,o),
(495,250,cs),
(470,107,o),
(387,11,o),
(287,11,cs)
);
}
);
width = 573;
},
{
anchors = (
{
name = bottom;
pos = (289,0);
},
{
name = center;
pos = (289,250);
},
{
name = ogonek;
pos = (519,10);
},
{
name = top;
pos = (289,500);
},
{
name = topright;
pos = (557,500);
}
);
layerId = "14257FDA-2614-4218-93F6-F0A118F23CCC";
shapes = (
{
closed = 1;
nodes = (
(57,94,o),
(137,-10,o),
(284,-10,cs),
(432,-10,o),
(549,94,o),
(576,250,cs),
(604,406,o),
(524,510,o),
(376,510,cs),
(228,510,o),
(112,406,o),
(85,250,cs)
);
},
{
closed = 1;
nodes = (
(198,16,o),
(154,110,o),
(179,250,cs),
(204,390,o),
(281,484,o),
(372,484,cs),
(462,484,o),
(506,390,o),
(481,250,cs),
(456,110,o),
(380,16,o),
(289,16,cs)
);
}
);
width = 577;
},
{
anchors = (
{
name = bottom;
pos = (292,0);
},
{
name = center;
pos = (292,250);
},
{
name = ogonek;
pos = (525,10);
},
{
name = top;
pos = (292,500);
},
{
name = topright;
pos = (563,500);
}
);
layerId = "BBA8B076-D1F2-4268-BE72-89D7CC5EB943";
shapes = (
{
closed = 1;
nodes = (
(56,94,o),
(137,-10,o),
(287,-10,cs),
(437,-10,o),
(555,94,o),
(583,250,cs),
(610,406,o),
(529,510,o),
(379,510,cs),
(229,510,o),
(111,406,o),
(83,250,cs)
);
},
{
closed = 1;
nodes = (
(219,25,o),
(186,115,o),
(210,250,cs),
(234,385,o),
(299,475,o),
(373,475,cs),
(446,475,o),
(479,385,o),
(456,250,cs),
(431,115,o),
(366,25,o),
(293,25,cs)
);
}
);
width = 583;
}
);
note = o;
unicode = 111;
},
{
glyphname = p;
lastChange = "2026-03-04 14:02:54 +0000";
layers = (
{
anchors = (
{
name = bottom;
pos = (292,0);
},
{
name = top;
pos = (292,500);
}
);
layerId = m01;
shapes = (
{
closed = 1;
nodes = (
(69,-182,l),
(119,-182,l),
(219,388,l),
(169,388,l)
);
},
{
closed = 1;
nodes = (
(253,454,o),
(321,489,o),
(387,489,cs),
(497,489,o),
(553,389,o),
(526,238,cs),
(504,113,o),
(404,7,o),
(282,7,cs),
(229,7,o),
(183,54,o),
(167,123,c),
(149,109,l),
(165,41,o),
(219,-5,o),
(284,-5,cs),
(437,-5,o),
(559,114,o),
(584,254,cs),
(611,408,o),
(543,510,o),
(414,510,cs),
(334,510,o),
(256,475,o),
(219,422,c),
(216,401,l)
);
},
{
closed = 1;
nodes = (
(75,-144,l),
(69,-180,o),
(46,-187,o),
(13,-187,cs),
(-3,-187,l),
(-4,-194,o),
(-6,-204,cs),
(-8,-213,o),
(-9,-220,o),
(-8,-220,cs),
(87,-220,l),
(182,-220,l),
(183,-213,o),
(185,-204,cs),
(187,-194,o),
(188,-187,c),
(172,-187,ls),
(140,-187,o),
(119,-180,o),
(125,-144,c)
);
},
{
closed = 1;
nodes = (
(239,500,l),
(230,500,l),
(111,459,l),
(110,453,o),
(108,443,cs),
(106,433,o),
(105,426,o),
(106,427,c),
(122,432,ls),
(157,444,o),
(178,439,o),
(166,373,c),
(219,388,l)
);
}
);
width = 584;
},
{
anchors = (
{
name = bottom;
pos = (297,0);
},
{
name = top;
pos = (297,500);
}
);
layerId = "138274BD-2AF4-44A3-9B34-6F786694E642";
shapes = (
{
closed = 1;
nodes = (
(66,-182,l),
(166,-182,l),
(266,388,l),
(166,388,l)
);
},
{
closed = 1;
nodes = (
(289,433,o),
(339,468,o),
(378,468,cs),
(465,468,o),
(506,371,o),
(480,226,cs),
(460,114,o),
(384,19,o),
(294,19,cs),
(257,19,o),
(222,61,o),
(208,123,c),
(173,95,l),
(187,35,o),
(238,-5,o),
(300,-5,cs),
(449,-5,o),
(570,116,o),
(595,258,cs),
(622,409,o),
(557,510,o),
(432,510,cs),
(366,510,o),
(297,475,o),
(260,422,c),
(253,381,l)
);
},
{
closed = 1;
nodes = (
(72,-144,l),
(66,-180,o),
(43,-187,o),
(10,-187,cs),
(-6,-187,l),
(-6,-187,o),
(-7,-194,o),
(-9,-204,cs),
(-11,-213,o),
(-12,-220,o),
(-12,-220,c),
(109,-220,l),
(229,-220,l),
(229,-220,o),
(230,-213,o),
(232,-204,cs),
(234,-194,o),
(235,-187,o),
(235,-187,c),
(219,-187,ls),
(187,-187,o),
(166,-180,o),
(172,-144,c)
);
},
{
closed = 1;
nodes = (
(283,482,o),
(286,500,o),
(286,500,c),
(286,500,l),
(286,500,o),
(286,500,o),
(286,500,c),
(286,500,o),
(286,500,o),
(286,500,c),
(268,500,l),
(106,444,l),
(105,444,o),
(104,438,o),
(103,428,cs),
(101,418,o),
(100,411,o),
(100,412,c),
(117,417,ls),
(152,429,o),
(173,424,o),
(161,358,c),
(266,388,l)
);
}
);
width = 594;
},
{
anchors = (
{
name = bottom;
pos = (294,0);
},
{
name = top;
pos = (294,500);
}
);
layerId = "0E723D17-59BC-4C5E-BFCA-41CEB45896D2";
shapes = (
{
closed = 1;
nodes = (
(96,-220,l),
(201,-220,l),
(201,-220,o),
(202,-213,o),
(204,-204,cs),
(206,-194,o),
(207,-187,o),
(207,-187,c),
(191,-187,ls),
(159,-187,o),
(138,-180,o),
(144,-144,cs),
(179,55,l),
(204,17,o),
(245,-5,o),
(291,-5,cs),
(442,-5,o),
(564,115,o),
(589,256,cs),
(616,408,o),
(549,510,o),
(421,510,cs),
(354,510,o),
(285,480,o),
(247,436,c),
(256,488,o),
(258,500,o),
(258,500,c),
(258,500,l),
(245,500,l),
(109,453,l),
(109,453,o),
(108,447,o),
(106,437,cs),
(104,428,o),
(103,421,o),
(103,421,c),
(103,421,l),
(103,421,o),
(103,421,o),
(103,421,c),
(120,426,ls),
(155,438,o),
(176,433,o),
(164,367,c),
(164,367,l),
(72,-151,l),
(64,-182,o),
(43,-187,o),
(12,-187,cs),
(-4,-187,l),
(-4,-187,o),
(-5,-194,o),
(-7,-204,cs),
(-9,-213,o),
(-10,-220,o),
(-10,-220,c)
);
},
{
closed = 1;
nodes = (
(244,12,o),
(207,48,o),
(188,106,c),
(238,388,ls),
(239,394,o),
(240,401,o),
(241,407,c),
(278,452,o),
(334,481,o),
(384,481,cs),
(485,481,o),
(534,382,o),
(508,233,cs),
(487,114,o),
(396,12,o),
(287,12,cs)
);
}
);
width = 588;
},
{
anchors = (
{
name = bottom;
pos = (296,0);
},
{
name = top;
pos = (296,500);
}
);
layerId = "14257FDA-2614-4218-93F6-F0A118F23CCC";
shapes = (
{
closed = 1;
nodes = (
(66,-182,l),
(152,-182,l),
(253,388,l),
(167,388,l)
);
},
{
closed = 1;
nodes = (
(279,439,o),
(335,474,o),
(381,474,cs),
(474,474,o),
(519,376,o),
(493,230,cs),
(473,114,o),
(390,16,o),
(291,16,cs),
(249,16,o),
(211,59,o),
(196,123,c),
(166,99,l),
(180,37,o),
(232,-5,o),
(296,-5,cs),
(446,-5,o),
(567,115,o),
(592,257,cs),
(619,409,o),
(553,510,o),
(427,510,cs),
(357,510,o),
(285,475,o),
(249,422,c),
(242,386,l)
);
},
{
closed = 1;
nodes = (
(73,-144,l),
(67,-180,o),
(44,-187,o),
(11,-187,cs),
(-5,-187,l),
(-5,-187,o),
(-6,-194,o),
(-8,-204,cs),
(-10,-213,o),
(-11,-220,o),
(-11,-220,c),
(103,-220,l),
(216,-220,l),
(216,-220,o),
(217,-213,o),
(219,-204,cs),
(221,-194,o),
(222,-187,o),
(222,-187,c),
(206,-187,ls),
(173,-187,o),
(152,-180,o),
(159,-144,c)
);
},
{
closed = 1;
nodes = (
(269,482,o),
(272,500,o),
(273,500,c),
(273,500,l),
(272,500,o),
(272,500,o),
(273,500,c),
(272,500,o),
(272,500,o),
(273,500,cs),
(257,500,l),
(107,449,l),
(107,449,o),
(106,442,o),
(104,432,cs),
(103,422,o),
(101,416,o),
(101,416,c),
(118,422,ls),
(153,434,o),
(175,429,o),
(162,362,c),
(253,388,l)
);
}
);
width = 591;
},
{
anchors = (
{
name = bottom;
pos = (299,0);
},
{
name = top;
pos = (299,500);
}
);
layerId = "BBA8B076-D1F2-4268-BE72-89D7CC5EB943";
shapes = (
{
closed = 1;
nodes = (
(65,-182,l),
(180,-182,l),
(280,388,l),
(165,388,l)
);
},
{
closed = 1;
nodes = (
(301,427,o),
(346,462,o),
(376,462,cs),
(455,462,o),
(492,366,o),
(466,223,cs),
(447,115,o),
(378,23,o),
(298,23,cs),
(265,23,o),
(234,63,o),
(220,123,c),
(180,91,l),
(193,33,o),
(243,-5,o),
(305,-5,cs),
(453,-5,o),
(574,116,o),
(599,259,cs),
(625,410,o),
(561,510,o),
(437,510,cs),
(375,510,o),
(309,475,o),
(273,422,c),
(264,374,l)
);
},
{
closed = 1;
nodes = (
(71,-144,l),
(65,-180,o),
(42,-187,o),
(9,-187,cs),
(-7,-187,l),
(-7,-187,o),
(-8,-194,o),
(-10,-204,cs),
(-12,-213,o),
(-13,-220,o),
(-12,-220,cs),
(115,-220,l),
(243,-220,l),
(243,-220,o),
(244,-213,o),
(246,-204,cs),
(248,-194,o),
(249,-187,o),
(249,-187,c),
(233,-187,ls),
(201,-187,o),
(180,-180,o),
(186,-144,c)
);
},
{
closed = 1;
nodes = (
(297,482,o),
(300,500,o),
(300,500,c),
(300,500,l),
(300,500,o),
(300,500,o),
(300,500,c),
(300,500,o),
(300,500,o),
(300,500,c),
(280,500,l),
(104,440,l),
(104,440,o),
(103,433,o),
(101,424,cs),
(99,413,o),
(98,407,o),
(98,407,c),
(115,413,ls),
(150,425,o),
(171,420,o),
(159,353,c),
(280,388,l)
);
}
);
width = 598;
}
);
note = p;
unicode = 112;
},
{
glyphname = q;
lastChange = "2026-03-04 14:02:54 +0000";
layers = (
{
anchors = (
{
name = bottom;
pos = (299,0);
},
{
name = top;
pos = (299,500);
}
);
layerId = m01;
shapes = (
{
closed = 1;
nodes = (
(446,-182,l),
(550,411,l),
(555,440,l),
(566,500,l),
(563,500,l),
(536,440,l),
(500,411,l),
(396,-182,l)
);
},
{
closed = 1;
nodes = (
(450,93,l),
(402,47,o),
(339,16,o),
(294,16,cs),
(177,16,o),
(117,117,o),
(143,267,cs),
(168,406,o),
(250,499,o),
(378,499,cs),
(433,499,o),
(481,464,o),
(500,411,c),
(536,440,l),
(503,482,o),
(442,510,o),
(383,510,cs),
(219,510,o),
(116,407,o),
(89,254,cs),
(62,98,o),
(134,-5,o),
(269,-5,cs),
(326,-5,o),
(397,27,o),
(447,75,c)
);
},
{
closed = 1;
nodes = (
(396,-182,l),
(395,-186,o),
(373,-187,o),
(340,-187,cs),
(324,-187,l),
(323,-194,o),
(321,-204,cs),
(319,-213,o),
(318,-220,o),
(319,-220,cs),
(414,-220,l),
(509,-220,l),
(510,-213,o),
(512,-204,cs),
(514,-194,o),
(515,-187,c),
(499,-187,ls),
(467,-187,o),
(445,-186,o),
(446,-182,c)
);
}
);
width = 597;
},
{
anchors = (
{
name = bottom;
pos = (305,0);
},
{
name = top;
pos = (305,500);
}
);
layerId = "138274BD-2AF4-44A3-9B34-6F786694E642";
shapes = (
{
closed = 1;
nodes = (
(458,-182,l),
(558,390,l),
(567,440,l),
(578,500,l),
(572,500,l),
(528,440,l),
(458,390,l),
(358,-182,l)
);
},
{
closed = 1;
nodes = (
(421,110,l),
(375,66,o),
(326,37,o),
(299,37,cs),
(212,37,o),
(171,133,o),
(196,278,cs),
(218,403,o),
(279,487,o),
(368,487,cs),
(402,487,o),
(438,448,o),
(458,390,c),
(528,440,l),
(502,482,o),
(442,510,o),
(378,510,cs),
(217,510,o),
(116,406,o),
(88,250,cs),
(61,97,o),
(126,-5,o),
(250,-5,cs),
(299,-5,o),
(365,27,o),
(415,75,c)
);
},
{
closed = 1;
nodes = (
(358,-182,l),
(357,-186,o),
(335,-187,o),
(302,-187,cs),
(286,-187,l),
(286,-187,o),
(285,-194,o),
(283,-204,cs),
(281,-213,o),
(280,-220,o),
(280,-220,c),
(401,-220,l),
(521,-220,l),
(521,-220,o),
(522,-213,o),
(524,-204,cs),
(526,-194,o),
(527,-187,o),
(527,-187,c),
(511,-187,ls),
(479,-187,o),
(457,-186,o),
(458,-182,c)
);
}
);
width = 609;
},
{
anchors = (
{
name = bottom;
pos = (301,0);
},
{
name = top;
pos = (301,500);
}
);
layerId = "0E723D17-59BC-4C5E-BFCA-41CEB45896D2";
shapes = (
{
closed = 1;
nodes = (
(409,-220,l),
(514,-220,l),
(514,-220,o),
(515,-213,o),
(517,-204,cs),
(519,-194,o),
(520,-187,o),
(520,-187,c),
(504,-187,ls),
(472,-187,o),
(450,-186,o),
(450,-182,c),
(553,399,l),
(560,440,l),
(571,500,l),
(567,500,l),
(533,440,l),
(500,482,o),
(439,510,o),
(381,510,cs),
(218,510,o),
(116,407,o),
(89,252,cs),
(61,98,o),
(131,-5,o),
(262,-5,cs),
(312,-5,o),
(375,23,o),
(424,66,c),
(380,-182,l),
(380,-186,o),
(358,-187,o),
(325,-187,cs),
(309,-187,l),
(309,-187,o),
(308,-194,o),
(306,-204,cs),
(304,-213,o),
(303,-220,o),
(303,-220,c)
);
},
{
closed = 1;
nodes = (
(191,24,o),
(139,123,o),
(164,272,cs),
(188,405,o),
(262,494,o),
(374,494,cs),
(419,494,o),
(463,456,o),
(483,399,c),
(428,91,l),
(383,50,o),
(332,24,o),
(296,24,cs)
);
}
);
width = 602;
},
{
anchors = (
{
name = bottom;
pos = (303,0);
},
{
name = top;
pos = (303,500);
}
);
layerId = "14257FDA-2614-4218-93F6-F0A118F23CCC";
shapes = (
{
closed = 1;
nodes = (
(454,-182,l),
(555,390,l),
(564,440,l),
(574,500,l),
(569,500,l),
(531,440,l),
(469,390,l),
(368,-182,l)
);
},
{
closed = 1;
nodes = (
(429,105,l),
(383,61,o),
(330,31,o),
(298,31,cs),
(202,31,o),
(156,129,o),
(181,275,cs),
(204,404,o),
(271,490,o),
(371,490,cs),
(408,490,o),
(448,450,o),
(469,390,c),
(531,440,l),
(498,482,o),
(437,510,o),
(379,510,cs),
(217,510,o),
(116,406,o),
(88,251,cs),
(61,97,o),
(128,-5,o),
(256,-5,cs),
(307,-5,o),
(374,27,o),
(424,75,c)
);
},
{
closed = 1;
nodes = (
(368,-182,l),
(367,-186,o),
(345,-187,o),
(313,-187,cs),
(297,-187,l),
(297,-187,o),
(296,-194,o),
(294,-204,cs),
(292,-213,o),
(291,-220,o),
(291,-220,c),
(405,-220,l),
(518,-220,l),
(518,-220,o),
(519,-213,o),
(521,-204,cs),
(523,-194,o),
(524,-187,o),
(524,-187,c),
(508,-187,ls),
(475,-187,o),
(453,-186,o),
(454,-182,c)
);
}
);
width = 606;
},
{
anchors = (
{
name = bottom;
pos = (307,0);
},
{
name = top;
pos = (307,500);
}
);
layerId = "BBA8B076-D1F2-4268-BE72-89D7CC5EB943";
shapes = (
{
closed = 1;
nodes = (
(461,-182,l),
(562,390,l),
(571,440,l),
(581,500,l),
(575,500,l),
(526,440,l),
(447,390,l),
(346,-182,l)
);
},
{
closed = 1;
nodes = (
(412,116,l),
(367,72,o),
(322,43,o),
(301,43,cs),
(223,43,o),
(187,138,o),
(212,281,cs),
(234,403,o),
(288,484,o),
(365,484,cs),
(394,484,o),
(427,446,o),
(447,390,c),
(526,440,l),
(504,482,o),
(444,510,o),
(377,510,cs),
(216,510,o),
(115,406,o),
(88,249,cs),
(61,97,o),
(124,-5,o),
(245,-5,cs),
(291,-5,o),
(355,27,o),
(405,75,c)
);
},
{
closed = 1;
nodes = (
(346,-182,l),
(345,-186,o),
(323,-187,o),
(291,-187,cs),
(275,-187,l),
(275,-187,o),
(274,-194,o),
(272,-204,cs),
(270,-213,o),
(269,-220,o),
(269,-220,c),
(397,-220,l),
(525,-220,l),
(525,-220,o),
(526,-213,o),
(528,-204,cs),
(530,-194,o),
(531,-187,o),
(531,-187,c),
(515,-187,ls),
(482,-187,o),
(460,-186,o),
(461,-182,c)
);
}
);
width = 613;
}
);
note = q;
unicode = 113;
},
{
glyphname = r;
lastChange = "2026-03-04 14:02:54 +0000";
layers = (
{
anchors = (
{
name = bottom;
pos = (185,0);
},
{
name = top;
pos = (185,500);
}
);
layerId = m01;
shapes = (
{
closed = 1;
nodes = (
(380,446,l),
(377,429,o),
(387,417,o),
(405,417,cs),
(422,417,o),
(436,429,o),
(439,446,c)
);
},
{
closed = 1;
nodes = (
(169,38,l),
(231,388,l),
(181,388,l),
(119,38,l)
);
},
{
closed = 1;
nodes = (
(222,355,l),
(254,434,o),
(310,487,o),
(363,487,cs),
(378,487,o),
(385,471,o),
(380,446,c),
(439,446,l),
(446,485,o),
(427,510,o),
(391,510,cs),
(323,510,o),
(257,459,o),
(227,382,c)
);
},
{
closed = 1;
nodes = (
(119,38,l),
(118,34,o),
(99,33,o),
(72,33,cs),
(56,33,l),
(55,26,o),
(53,16,cs),
(51,7,o),
(50,0,c),
(141,0,l),
(233,0,l),
(234,7,o),
(236,16,cs),
(238,26,o),
(239,33,c),
(223,33,ls),
(190,33,o),
(168,34,o),
(169,38,c)
);
},
{
closed = 1;
nodes = (
(251,500,l),
(242,500,l),
(123,459,l),
(122,453,o),
(120,443,cs),
(118,433,o),
(117,427,c),
(134,432,ls),
(169,444,o),
(189,439,o),
(178,373,c),
(231,388,l)
);
}
);
width = 370;
},
{
anchors = (
{
name = bottom;
pos = (226,0);
},
{
name = top;
pos = (226,500);
}
);
layerId = "138274BD-2AF4-44A3-9B34-6F786694E642";
shapes = (
{
closed = 1;
nodes = (
(399,423,l),
(393,388,o),
(412,364,o),
(447,364,cs),
(482,364,o),
(510,388,o),
(517,423,c)
);
},
{
closed = 1;
nodes = (
(207,38,l),
(268,388,l),
(168,388,l),
(107,38,l)
);
},
{
closed = 1;
nodes = (
(253,335,l),
(284,412,o),
(332,463,o),
(373,463,cs),
(393,463,o),
(404,447,o),
(399,423,c),
(517,423,l),
(526,475,o),
(491,510,o),
(428,510,cs),
(358,510,o),
(292,461,o),
(262,388,c)
);
},
{
closed = 1;
nodes = (
(107,38,l),
(106,34,o),
(87,33,o),
(59,33,cs),
(43,33,l),
(44,33,o),
(43,26,o),
(41,16,cs),
(39,7,o),
(38,0,o),
(38,0,c),
(154,0,l),
(270,0,l),
(270,0,o),
(271,7,o),
(273,16,cs),
(275,26,o),
(276,33,o),
(276,33,c),
(260,33,ls),
(228,33,o),
(206,34,o),
(207,38,c)
);
},
{
closed = 1;
nodes = (
(285,482,o),
(288,500,o),
(288,500,c),
(288,500,l),
(288,500,o),
(288,500,o),
(288,500,c),
(288,500,o),
(288,500,o),
(288,500,c),
(270,500,l),
(108,444,l),
(108,444,o),
(106,438,o),
(105,428,cs),
(103,418,o),
(102,411,o),
(102,412,c),
(119,417,ls),
(154,429,o),
(175,424,o),
(163,358,c),
(268,388,l)
);
}
);
width = 452;
},
{
anchors = (
{
name = bottom;
pos = (202,0);
},
{
name = top;
pos = (202,500);
}
);
layerId = "0E723D17-59BC-4C5E-BFCA-41CEB45896D2";
shapes = (
{
closed = 1;
nodes = (
(146,0,l),
(248,0,l),
(248,0,o),
(249,7,o),
(251,16,cs),
(253,26,o),
(254,33,o),
(254,33,c),
(238,33,ls),
(205,33,o),
(183,34,o),
(184,38,cs),
(242,366,l),
(273,432,o),
(323,477,o),
(367,477,cs),
(384,477,o),
(392,461,o),
(388,437,cs),
(383,412,o),
(397,396,o),
(422,396,cs),
(446,396,o),
(465,412,o),
(470,437,cs),
(478,481,o),
(453,510,o),
(406,510,cs),
(342,510,o),
(281,468,o),
(248,400,c),
(262,483,o),
(265,500,o),
(266,500,c),
(266,500,l),
(253,500,l),
(117,453,l),
(117,453,o),
(116,447,o),
(114,437,cs),
(112,427,o),
(111,421,o),
(111,421,c),
(128,426,ls),
(163,438,o),
(183,433,o),
(172,367,c),
(172,367,l),
(114,38,ls),
(113,34,o),
(94,33,o),
(67,33,cs),
(51,33,l),
(51,33,o),
(50,26,o),
(48,16,cs),
(46,7,o),
(45,0,o),
(45,0,c)
);
}
);
width = 403;
},
{
anchors = (
{
name = bottom;
pos = (215,0);
},
{
name = top;
pos = (215,500);
}
);
layerId = "14257FDA-2614-4218-93F6-F0A118F23CCC";
shapes = (
{
closed = 1;
nodes = (
(394,430,l),
(388,399,o),
(404,379,o),
(435,379,cs),
(465,379,o),
(489,399,o),
(495,430,c)
);
},
{
closed = 1;
nodes = (
(196,38,l),
(258,388,l),
(172,388,l),
(110,38,l)
);
},
{
closed = 1;
nodes = (
(244,341,l),
(275,418,o),
(326,470,o),
(370,470,cs),
(389,470,o),
(399,454,o),
(394,430,c),
(495,430,l),
(504,478,o),
(473,510,o),
(418,510,cs),
(348,510,o),
(282,461,o),
(252,386,c)
);
},
{
closed = 1;
nodes = (
(110,38,l),
(109,34,o),
(90,33,o),
(63,33,cs),
(47,33,l),
(47,33,o),
(46,26,o),
(44,16,cs),
(42,7,o),
(41,0,o),
(41,0,c),
(150,0,l),
(260,0,l),
(260,0,o),
(261,7,o),
(263,16,cs),
(265,26,o),
(266,33,o),
(265,33,cs),
(250,33,ls),
(217,33,o),
(195,34,o),
(196,38,c)
);
},
{
closed = 1;
nodes = (
(274,482,o),
(277,500,o),
(277,500,c),
(277,500,l),
(277,500,o),
(277,500,o),
(277,500,c),
(277,500,o),
(277,500,o),
(277,500,c),
(262,500,l),
(112,449,l),
(112,449,o),
(111,442,o),
(109,432,cs),
(107,422,o),
(106,416,o),
(106,416,c),
(123,422,ls),
(158,433,o),
(179,428,o),
(167,362,c),
(258,388,l)
);
}
);
width = 429;
},
{
anchors = (
{
name = bottom;
pos = (238,0);
},
{
name = top;
pos = (238,500);
}
);
layerId = "BBA8B076-D1F2-4268-BE72-89D7CC5EB943";
shapes = (
{
closed = 1;
nodes = (
(405,416,l),
(397,375,o),
(419,348,o),
(460,348,cs),
(501,348,o),
(532,375,o),
(540,416,c)
);
},
{
closed = 1;
nodes = (
(218,38,l),
(279,388,l),
(164,388,l),
(103,38,l)
);
},
{
closed = 1;
nodes = (
(262,329,l),
(293,405,o),
(339,456,o),
(376,456,cs),
(398,456,o),
(409,440,o),
(405,416,c),
(540,416,l),
(551,472,o),
(510,510,o),
(439,510,cs),
(368,510,o),
(302,462,o),
(273,390,c)
);
},
{
closed = 1;
nodes = (
(103,38,l),
(102,34,o),
(83,33,o),
(56,33,cs),
(40,33,l),
(40,33,o),
(39,26,o),
(37,16,cs),
(35,7,o),
(34,0,o),
(34,0,c),
(158,0,l),
(282,0,l),
(282,0,o),
(283,7,o),
(284,16,cs),
(286,26,o),
(288,33,o),
(287,33,cs),
(272,33,ls),
(239,33,o),
(217,34,o),
(218,38,c)
);
},
{
closed = 1;
nodes = (
(296,482,o),
(299,500,o),
(299,500,c),
(299,500,l),
(299,500,o),
(299,500,o),
(299,500,c),
(299,500,o),
(299,500,o),
(299,500,c),
(279,500,l),
(103,440,l),
(103,440,o),
(102,433,o),
(100,424,cs),
(99,414,o),
(98,407,o),
(97,407,c),
(114,413,ls),
(149,425,o),
(170,420,o),
(158,353,c),
(279,388,l)
);
}
);
width = 476;
}
);
note = r;
unicode = 114;
},
{
glyphname = s;
lastChange = "2026-03-04 14:02:54 +0000";
layers = (
{
anchors = (
{
name = bottom;
pos = (213,0);
},
{
name = top;
pos = (213,500);
}
);
layerId = m01;
shapes = (
{
closed = 1;
nodes = (
(409,476,o),
(356,510,o),
(292,510,cs),
(216,510,o),
(157,461,o),
(145,389,cs),
(134,326,o),
(173,266,o),
(264,231,cs),
(334,203,o),
(365,156,o),
(356,107,cs),
(345,44,o),
(296,2,o),
(234,2,cs),
(174,2,o),
(122,42,o),
(105,101,c),
(90,95,l),
(108,32,o),
(165,-10,o),
(232,-10,cs),
(317,-10,o),
(384,43,o),
(398,121,cs),
(408,181,o),
(373,237,o),
(292,269,cs),
(210,301,o),
(174,353,o),
(183,406,cs),
(193,461,o),
(236,498,o),
(290,498,cs),
(347,498,o),
(395,466,o),
(409,418,c),
(423,425,l)
);
},
{
closed = 1;
nodes = (
(130,48,o),
(125,104,o),
(131,141,cs),
(132,145,o),
(133,151,o),
(134,155,c),
(133,155,o),
(127,155,o),
(117,155,cs),
(108,155,o),
(101,155,o),
(101,155,c),
(94,115,o),
(90,89,o),
(89,89,c),
(86,70,o),
(82,44,o),
(78,24,c),
(78,24,o),
(85,24,o),
(94,24,cs),
(104,24,o),
(110,24,o),
(111,24,c),
(111,29,o),
(113,37,o),
(114,42,cs),
(114,43,o),
(119,40,o),
(126,33,c),
(149,32,l)
);
},
{
closed = 1;
nodes = (
(352,484,l),
(379,471,o),
(389,416,o),
(382,378,c),
(382,374,o),
(381,368,o),
(380,365,c),
(380,365,o),
(387,365,o),
(396,365,cs),
(406,365,o),
(413,365,o),
(413,365,c),
(416,386,o),
(421,416,o),
(426,437,c),
(425,437,o),
(430,466,o),
(438,510,c),
(422,510,l),
(406,510,l),
(405,503,o),
(403,493,o),
(402,486,cs),
(400,478,o),
(396,470,o),
(393,473,c)
);
}
);
width = 426;
},
{
anchors = (
{
name = bottom;
pos = (216,0);
},
{
name = top;
pos = (216,500);
}
);
layerId = "138274BD-2AF4-44A3-9B34-6F786694E642";
shapes = (
{
closed = 1;
nodes = (
(419,476,o),
(368,510,o),
(306,510,cs),
(217,510,o),
(148,456,o),
(134,376,cs),
(120,298,o),
(153,235,o),
(234,212,cs),
(302,193,o),
(332,152,o),
(324,106,cs),
(314,51,o),
(273,14,o),
(222,14,cs),
(174,14,o),
(132,51,o),
(116,105,c),
(87,93,l),
(104,31,o),
(157,-10,o),
(217,-10,cs),
(315,-10,o),
(391,48,o),
(406,134,cs),
(418,204,o),
(381,263,o),
(292,288,cs),
(227,307,o),
(200,354,o),
(210,410,cs),
(218,456,o),
(255,486,o),
(302,486,cs),
(351,486,o),
(392,457,o),
(404,414,c),
(433,426,l)
);
},
{
closed = 1;
nodes = (
(134,57,o),
(123,112,o),
(129,146,c),
(129,150,o),
(130,156,o),
(131,159,c),
(131,159,o),
(125,159,o),
(115,159,cs),
(105,159,o),
(98,159,o),
(98,159,c),
(91,118,o),
(86,91,o),
(86,91,c),
(83,71,o),
(78,43,o),
(74,23,c),
(74,23,o),
(81,23,o),
(91,23,cs),
(101,23,o),
(107,23,o),
(107,23,c),
(108,28,o),
(109,35,o),
(110,40,cs),
(110,41,o),
(116,38,o),
(123,30,c),
(162,35,l)
);
},
{
closed = 1;
nodes = (
(345,478,l),
(381,464,o),
(397,410,o),
(391,373,c),
(390,370,o),
(389,364,o),
(389,360,c),
(389,360,o),
(395,360,o),
(405,360,cs),
(415,360,o),
(422,360,o),
(422,360,c),
(425,382,o),
(431,412,o),
(435,435,c),
(435,435,o),
(440,465,o),
(448,510,c),
(432,510,ls),
(422,510,o),
(415,510,o),
(415,510,c),
(414,503,o),
(412,493,o),
(411,486,cs),
(410,479,o),
(406,472,o),
(402,475,c)
);
}
);
width = 432;
},
{
anchors = (
{
name = bottom;
pos = (214,0);
},
{
name = top;
pos = (214,500);
}
);
layerId = "0E723D17-59BC-4C5E-BFCA-41CEB45896D2";
shapes = (
{
closed = 1;
nodes = (
(317,-10,o),
(387,45,o),
(401,126,cs),
(413,191,o),
(377,249,o),
(292,277,cs),
(217,302,o),
(184,352,o),
(194,408,cs),
(203,459,o),
(243,494,o),
(295,494,cs),
(315,494,o),
(333,490,o),
(350,482,c),
(350,482,l),
(380,468,o),
(393,413,o),
(386,376,cs),
(385,372,o),
(384,366,o),
(384,363,c),
(384,363,o),
(390,363,o),
(400,363,cs),
(410,363,o),
(416,363,o),
(416,363,c),
(419,381,o),
(423,405,o),
(427,425,c),
(427,425,l),
(427,425,o),
(427,425,o),
(427,425,c),
(428,430,o),
(428,432,o),
(429,436,c),
(429,436,o),
(434,466,o),
(442,510,c),
(426,510,l),
(410,510,l),
(409,503,o),
(407,493,o),
(405,486,cs),
(404,478,o),
(400,471,o),
(397,474,c),
(397,474,l),
(372,497,o),
(338,510,o),
(298,510,cs),
(217,510,o),
(154,459,o),
(140,383,cs),
(128,314,o),
(165,252,o),
(252,223,cs),
(322,200,o),
(352,155,o),
(343,107,cs),
(333,46,o),
(287,6,o),
(229,6,cs),
(199,6,o),
(171,18,o),
(150,37,c),
(130,59,o),
(124,108,o),
(130,143,cs),
(131,147,o),
(132,153,o),
(133,157,c),
(133,157,o),
(126,157,o),
(116,157,cs),
(106,157,o),
(100,157,o),
(100,157,c),
(93,117,o),
(88,90,o),
(88,90,c),
(85,70,o),
(80,44,o),
(76,24,c),
(76,24,o),
(83,24,o),
(93,24,cs),
(103,24,o),
(109,24,o),
(109,24,c),
(110,29,o),
(111,36,o),
(112,41,cs),
(112,42,o),
(118,39,o),
(125,32,c),
(125,32,l),
(151,6,o),
(187,-10,o),
(226,-10,cs)
);
}
);
width = 428;
},
{
anchors = (
{
name = bottom;
pos = (215,0);
},
{
name = top;
pos = (215,500);
}
);
layerId = "14257FDA-2614-4218-93F6-F0A118F23CCC";
shapes = (
{
closed = 1;
nodes = (
(416,476,o),
(364,510,o),
(302,510,cs),
(217,510,o),
(151,458,o),
(137,379,cs),
(123,304,o),
(158,241,o),
(243,217,cs),
(312,198,o),
(341,155,o),
(333,106,cs),
(323,48,o),
(280,10,o),
(225,10,cs),
(174,10,o),
(129,48,o),
(113,104,c),
(88,93,l),
(106,31,o),
(160,-10,o),
(222,-10,cs),
(316,-10,o),
(389,46,o),
(404,130,cs),
(416,200,o),
(379,259,o),
(292,283,cs),
(222,303,o),
(193,351,o),
(203,409,cs),
(212,458,o),
(250,490,o),
(299,490,cs),
(350,490,o),
(393,460,o),
(406,415,c),
(430,426,l)
);
},
{
closed = 1;
nodes = (
(133,54,o),
(123,110,o),
(129,145,cs),
(130,148,o),
(131,154,o),
(132,158,c),
(132,158,o),
(125,158,o),
(115,158,cs),
(106,158,o),
(99,158,o),
(99,158,c),
(92,118,o),
(87,91,o),
(87,91,c),
(84,70,o),
(79,43,o),
(75,23,c),
(75,23,o),
(82,23,o),
(92,23,cs),
(102,23,o),
(108,23,o),
(108,23,c),
(109,28,o),
(110,35,o),
(111,41,cs),
(111,42,o),
(117,39,o),
(124,31,c),
(158,34,l)
);
},
{
closed = 1;
nodes = (
(347,480,l),
(381,466,o),
(395,411,o),
(389,375,cs),
(388,371,o),
(387,365,o),
(386,361,c),
(387,361,o),
(393,361,o),
(403,361,cs),
(412,361,o),
(419,361,o),
(419,361,c),
(423,383,o),
(428,413,o),
(432,436,c),
(432,436,o),
(437,466,o),
(445,510,c),
(429,510,l),
(413,510,l),
(412,503,o),
(410,493,o),
(408,486,cs),
(407,478,o),
(403,471,o),
(400,475,c)
);
}
);
width = 430;
},
{
anchors = (
{
name = bottom;
pos = (217,0);
},
{
name = top;
pos = (217,500);
}
);
layerId = "BBA8B076-D1F2-4268-BE72-89D7CC5EB943";
shapes = (
{
closed = 1;
nodes = (
(422,477,o),
(371,510,o),
(311,510,cs),
(217,510,o),
(145,455,o),
(130,372,cs),
(116,292,o),
(147,228,o),
(226,206,cs),
(292,188,o),
(321,149,o),
(314,105,cs),
(304,52,o),
(266,17,o),
(218,17,cs),
(174,17,o),
(135,53,o),
(119,107,c),
(86,93,l),
(103,31,o),
(154,-10,o),
(213,-10,cs),
(315,-10,o),
(393,49,o),
(409,138,cs),
(421,208,o),
(382,268,o),
(292,294,cs),
(233,310,o),
(209,356,o),
(219,412,cs),
(226,454,o),
(261,483,o),
(306,483,cs),
(352,483,o),
(391,455,o),
(403,412,c),
(436,427,l)
);
},
{
closed = 1;
nodes = (
(135,58,o),
(122,114,o),
(128,147,cs),
(129,151,o),
(130,157,o),
(130,161,c),
(130,161,o),
(124,161,o),
(114,161,cs),
(104,161,o),
(98,161,o),
(98,161,c),
(90,119,o),
(85,91,o),
(85,91,c),
(82,71,o),
(77,43,o),
(73,22,c),
(73,22,o),
(80,22,o),
(90,22,cs),
(99,22,o),
(106,22,o),
(106,22,c),
(107,27,o),
(108,35,o),
(109,40,cs),
(109,41,o),
(115,37,o),
(122,29,c),
(166,35,l)
);
},
{
closed = 1;
nodes = (
(343,477,l),
(382,462,o),
(400,408,o),
(394,372,cs),
(393,368,o),
(392,362,o),
(392,359,c),
(391,359,o),
(398,359,o),
(408,359,cs),
(418,359,o),
(424,359,o),
(424,359,c),
(428,381,o),
(434,411,o),
(438,434,c),
(438,434,o),
(443,464,o),
(451,510,c),
(435,510,ls),
(425,510,o),
(418,510,o),
(418,510,c),
(417,503,o),
(415,493,o),
(414,486,cs),
(413,479,o),
(409,472,o),
(405,476,c)
);
}
);
width = 434;
}
);
note = s;
unicode = 115;
},
{
glyphname = t;
lastChange = "2026-03-04 14:02:54 +0000";
layers = (
{
anchors = (
{
name = bottom;
pos = (167,0);
},
{
name = center;
pos = (167,250);
},
{
name = top;
pos = (167,620);
},
{
name = topright;
pos = (313,975);
}
);
layerId = m01;
shapes = (
{
closed = 1;
nodes = (
(303,37,o),
(261,14,o),
(226,14,cs),
(177,14,o),
(150,43,o),
(163,118,cs),
(230,490,l),
(230,490,l),
(232,500,l),
(253,620,l),
(250,620,l),
(117,500,l),
(115,490,l),
(180,490,l),
(117,129,ls),
(99,29,o),
(138,-10,o),
(207,-10,cs),
(246,-10,o),
(297,21,o),
(335,68,c),
(331,71,l)
);
},
{
closed = 1;
nodes = (
(229,500,l),
(224,474,l),
(376,474,l),
(381,500,l)
);
}
);
width = 333;
},
{
anchors = (
{
name = bottom;
pos = (195,0);
},
{
name = center;
pos = (195,250);
},
{
name = top;
pos = (195,620);
},
{
name = topright;
pos = (369,975);
}
);
layerId = "138274BD-2AF4-44A3-9B34-6F786694E642";
shapes = (
{
closed = 1;
nodes = (
(367,67,o),
(322,37,o),
(274,37,cs),
(227,37,o),
(203,69,o),
(218,151,cs),
(273,447,l),
(273,447,l),
(274,457,l),
(303,620,l),
(296,620,l),
(109,457,l),
(108,447,l),
(173,447,l),
(124,173,ls),
(101,41,o),
(149,-10,o),
(235,-10,cs),
(302,-10,o),
(367,38,o),
(398,109,c),
(387,112,l)
);
},
{
closed = 1;
nodes = (
(276,500,l),
(267,447,l),
(421,447,l),
(430,500,l)
);
}
);
width = 389;
},
{
anchors = (
{
name = bottom;
pos = (178,0);
},
{
name = center;
pos = (178,250);
},
{
name = top;
pos = (178,620);
},
{
name = topright;
pos = (335,975);
}
);
layerId = "0E723D17-59BC-4C5E-BFCA-41CEB45896D2";
shapes = (
{
closed = 1;
nodes = (
(267,-10,o),
(324,28,o),
(360,84,c),
(353,88,l),
(328,49,o),
(285,23,o),
(245,23,cs),
(197,23,o),
(171,53,o),
(185,131,cs),
(246,463,l),
(394,463,l),
(401,500,l),
(252,500,l),
(273,620,l),
(268,620,l),
(114,481,l),
(112,471,l),
(177,471,l),
(120,147,ls),
(100,34,o),
(143,-10,o),
(218,-10,cs)
);
}
);
width = 355;
},
{
anchors = (
{
name = bottom;
pos = (187,0);
},
{
name = center;
pos = (187,250);
},
{
name = top;
pos = (187,620);
},
{
name = topright;
pos = (353,975);
}
);
layerId = "14257FDA-2614-4218-93F6-F0A118F23CCC";
shapes = (
{
closed = 1;
nodes = (
(348,59,o),
(304,31,o),
(260,31,cs),
(214,31,o),
(188,62,o),
(203,141,cs),
(260,455,l),
(260,455,l),
(262,465,l),
(289,620,l),
(283,620,l),
(111,465,l),
(109,455,l),
(174,455,l),
(122,161,ls),
(101,38,o),
(146,-10,o),
(227,-10,cs),
(285,-10,o),
(346,33,o),
(381,97,c),
(371,101,l)
);
},
{
closed = 1;
nodes = (
(263,500,l),
(255,455,l),
(408,455,l),
(416,500,l)
);
}
);
width = 373;
},
{
anchors = (
{
name = bottom;
pos = (203,0);
},
{
name = center;
pos = (203,250);
},
{
name = top;
pos = (203,620);
},
{
name = topright;
pos = (385,975);
}
);
layerId = "BBA8B076-D1F2-4268-BE72-89D7CC5EB943";
shapes = (
{
closed = 1;
nodes = (
(387,76,o),
(341,44,o),
(288,44,cs),
(243,44,o),
(219,77,o),
(234,161,cs),
(286,439,l),
(286,439,l),
(288,449,l),
(318,620,l),
(310,620,l),
(108,449,l),
(106,439,l),
(171,439,l),
(127,186,ls),
(102,45,o),
(153,-10,o),
(243,-10,cs),
(321,-10,o),
(390,43,o),
(418,122,c),
(403,125,l)
);
},
{
closed = 1;
nodes = (
(290,500,l),
(280,439,l),
(434,439,l),
(444,500,l)
);
}
);
width = 405;
}
);
note = t;
unicode = 116;
},
